<?xml version="1.0" encoding="UTF-8"?>
<svg id="Layer_1" data-name="Layer 1" xmlns="http://www.w3.org/2000/svg" xmlns:xlink="http://www.w3.org/1999/xlink" viewBox="0 0 70.87 70.87">
  <defs>
    <style>
      .cls-1 {
        fill: url(#linear-gradient);
      }
    </style>
    <linearGradient id="linear-gradient" x1="33.06" y1="11.45" x2="33.06" y2="60.54" gradientUnits="userSpaceOnUse">
      <stop offset="0" stop-color="gray"/>
      <stop offset=".09" stop-color="#727272"/>
      <stop offset=".26" stop-color="#5c5c5c"/>
      <stop offset=".45" stop-color="#4d4d4d"/>
      <stop offset=".67" stop-color="#444"/>
      <stop offset="1" stop-color="#424242"/>
    </linearGradient>
  </defs>
  <path class="cls-1" d="M48.47,11.49c3.62-.45,7.52,2.43,8.58,5.81,2.3,7.3-5.06,13.32-11.96,10.02-1.51-.72-2.02-2.02-4.07-1.61-.58.12-4.84,2.28-5.4,2.7-2.27,1.73-.88,3.49-.97,5.81-.11,2.81-1.94,4.3.85,6.57,3.31,2.69,3.84.6,6.68-.65,10.84-4.8,20.42,8.37,12.47,17-6.47,7.02-18.56,2.42-18.72-7.08-.04-2.25,1.51-3.73-.66-5.79-3.75-3.55-5.54.25-8.82,1.5-7.02,2.67-15.05-.84-17.27-8.08-3.58-11.61,8.73-21.19,19.21-15,2.41,1.42,3.03,3.65,6.26,2.81.65-.17,5.14-2.75,5.5-3.24.94-1.3.48-2.92.78-4.39.6-2.9,4.69-6.02,7.55-6.37Z"/>
</svg>