<?xml version="1.0" encoding="UTF-8"?>
<svg xmlns="http://www.w3.org/2000/svg" version="1.1" viewBox="0 0 709 709.2">
  <defs>
    <style>
      .cls-1 {
        fill: #000;
      }

      .cls-1, .cls-2 {
        stroke-width: 0px;
      }

      .cls-3 {
        font-size: 29.6px;
      }

      .cls-3, .cls-4, .cls-2, .cls-5, .cls-6 {
        fill: #1d1d1b;
      }

      .cls-3, .cls-4, .cls-5 {
        font-family: ArbelHagilda-Medium, ArbelHagilda;
      }

      .cls-3, .cls-4, .cls-5, .cls-6 {
        font-weight: 500;
      }

      .cls-4 {
        font-size: 25px;
      }

      .cls-4, .cls-7, .cls-5 {
        stroke: #1d1d1b;
        stroke-miterlimit: 10;
      }

      .cls-4, .cls-5 {
        stroke-width: .3px;
      }

      .cls-7 {
        fill: none;
      }

      .cls-5 {
        font-size: 21.3px;
      }

      .cls-8 {
        display: none;
      }

      .cls-6 {
        font-family: FuturaBT-Medium, 'Futura Md BT';
        font-size: 48.2px;
      }
    </style>
  </defs>
  <g id="Layer_1" data-name="Layer 1">
    <g class="cls-8">
      <g>
        <path class="cls-2" d="M190.4,1254.4c-2.6,5.3-6.2,8.7-10.8,10.1-4.6,1.4-9.7.6-15.2-2.5-5.5-3.1-8.9-7.2-10.2-11.9-1.2-4.7-.2-9.7,3.1-14.8,3.2-5.1,7.2-8.2,11.8-9.4,4.6-1.2,9.3-.3,14.2,2.5,5,2.8,8.1,6.4,9.3,10.9,1.2,4.5.5,9.5-2.3,15.2ZM166.8,1257.3c3.2,1.8,6.2,2.1,8.9.9,2.7-1.2,5.1-3.9,7.3-8.1,2.1-4,3-7.5,2.6-10.4-.4-2.9-1.9-5.1-4.7-6.7-2.9-1.7-5.7-1.9-8.5-.8-2.7,1.2-5.3,3.7-7.7,7.7-2.3,3.9-3.3,7.3-3,10.3.4,3,2,5.4,5,7.1Z"/>
        <path class="cls-2" d="M196.4,1267.4c.5,2,1.4,3.7,2.8,5.3,1.4,1.6,3.2,2.8,5.4,3.8,3.2,1.4,6.2,1.8,8.7,1.1s4.3-2.2,5.3-4.6c.9-2.3.6-4.6-.9-6.8-1.5-2.3-3.8-4.1-7.1-5.5-2-.9-3.9-1.4-5.8-1.7-1.9-.3-3.7-.2-5.4.1-.7-.5-1.1-.7-1.8-1.2,5.5-5.7,8.3-8.6,13.6-14.5,8.4,3.9,12.7,5.6,21.2,8.9-.7,1.8-1,2.8-1.7,4.6-6.9-2.6-10.3-4-17.1-7-2.4,2.5-3.6,3.8-6,6.3,1.4.2,2.8.4,4,.8,1.3.3,2.5.7,3.7,1.2,4.4,1.9,7.6,4.4,9.6,7.6,2,3.2,2.4,6.5,1.2,9.9-1.4,3.9-4.3,6.4-8.6,7.4-4.3,1-9.4.3-15.3-2.3-3.4-1.5-6.2-3.2-8.4-5.2-2.1-2-3.7-4.2-4.7-6.8,2.9-.6,4.3-.9,7.1-1.5Z"/>
        <path class="cls-2" d="M269.3,1283.6c-1.4,5.8-4,9.9-8,12.3-4,2.4-8.9,2.9-14.5,1.2-5.7-1.7-9.6-4.8-11.7-9-2.1-4.3-2-9.3,0-15.1,2-5.7,5-9.7,9-11.9,4-2.2,8.5-2.5,13.6-1,5.2,1.5,8.8,4.2,10.8,8.3,2,4,2.4,9.1.9,15.3ZM248.1,1292.1c3.3,1,6.1.5,8.4-1.3,2.3-1.8,4-5,5.2-9.6,1.2-4.4,1.3-8,.3-10.7-.9-2.7-2.8-4.5-5.7-5.4-3-.9-5.7-.5-7.9,1.3-2.3,1.8-4.1,4.9-5.6,9.3-1.4,4.3-1.6,7.9-.7,10.7.9,2.8,3,4.7,6,5.7Z"/>
        <path class="cls-2" d="M288,1282.9c1.1-.2,2.2-.3,3.3-.3s2.1,0,3.1.2c4.2.7,7.5,2.4,10,5,2.4,2.6,3.5,5.7,3,9.1-.5,3.8-2.5,6.7-6.1,8.5-3.6,1.8-8.1,2.3-13.5,1.4-5-.9-8.8-2.9-11.4-5.7-2.6-2.9-3.4-6.2-2.6-9.8.9-3.9,5.7-8.7,14-14.9.4-.3.6-.4,1-.7,3.9-3,5.9-4.5,9.7-7.6,2.1,1.3,3.2,1.9,5.3,3.2-6.1,4.8-9.3,7.1-15.8,11.6ZM281.5,1293c-.4,2.2,0,4.1,1.4,5.8,1.4,1.7,3.4,2.7,6.1,3.2,3,.5,5.4.3,7.3-.8,1.9-1,3-2.7,3.3-5,.3-2.3-.2-4.2-1.6-5.8-1.4-1.6-3.6-2.6-6.4-3.1-2.6-.5-4.8-.2-6.6.8-1.9,1-3,2.6-3.5,4.8Z"/>
        <path class="cls-2" d="M317.4,1309.2c7.8-9.6,15.1-19.5,22-29.8-8.5-.4-12.8-.7-21.4-1.6.2-1.9.3-2.9.5-4.8,10.4,1.2,20.9,1.8,31.4,1.9-8.2,12.8-16.8,25-26,37-2.6-1.1-3.9-1.6-6.4-2.8Z"/>
        <path class="cls-2" d="M359.2,1303c1.1,1.6,2.6,2.8,4.4,3.6,1.8.8,3.8,1.2,6,1.1,3.3-.1,5.9-1,7.8-2.7,1.9-1.7,2.8-3.8,2.6-6.4-.2-2.5-1.3-4.4-3.4-5.8-2.1-1.4-4.8-2.1-8.1-1.9-2,0-3.8.4-5.5,1-1.7.6-3.2,1.4-4.5,2.4-.8-.1-1.2-.2-1.9-.3,2.4-7.6,3.5-11.4,5.6-19,8.5-.2,12.8-.4,21.3-1.1.2,2,.2,2.9.4,4.9-6.8.6-10.2.8-17.1,1-1,3.3-1.5,5-2.5,8.3,1.3-.5,2.5-.8,3.7-1.1,1.2-.2,2.4-.4,3.6-.4,4.4-.2,8.1.7,11,2.7,3,2.1,4.6,4.9,4.9,8.5.3,4.2-1.1,7.6-4.3,10.4-3.3,2.7-7.8,4.3-13.7,4.5-3.5.1-6.5-.3-9-1.1-2.6-.9-4.7-2.2-6.6-4.1,2.1-1.8,3.2-2.7,5.3-4.4Z"/>
        <path class="cls-2" d="M400.2,1308.4c5.4-11,10.4-22.3,14.8-33.7-8.3,1.4-12.4,2-20.8,2.9-.2-1.9-.3-2.9-.5-4.8,10.2-1.1,20.5-2.7,30.5-4.8-5.2,14.2-10.9,28-17.3,41.7-2.7-.5-4.1-.8-6.7-1.3Z"/>
        <path class="cls-2" d="M439,1293.5c1.4,1.3,3.1,2.2,5,2.6,1.9.4,3.9.4,6-.2,3.1-.8,5.4-2.2,6.9-4.3,1.5-2,1.9-4.3,1.2-6.8-.7-2.4-2.2-4-4.5-5-2.3-.9-5.1-1-8.2-.2-1.9.5-3.6,1.2-5.1,2.1-1.5.9-2.8,2-3.8,3.3-.8,0-1.2,0-1.9,0,.7-7.9,1-11.8,1.4-19.7,8.2-1.9,12.3-3,20.3-5.5.6,1.9.8,2.8,1.4,4.7-6.5,1.9-9.7,2.8-16.3,4.5-.2,3.4-.4,5.2-.7,8.6,1.1-.7,2.2-1.3,3.3-1.8,1.1-.5,2.2-.9,3.3-1.2,4.2-1.1,8-1,11.2.4,3.3,1.4,5.5,3.8,6.5,7.3,1.2,4,.6,7.7-2,11-2.6,3.3-6.7,5.8-12.3,7.2-3.3.8-6.3,1.1-8.9.8-2.6-.3-5-1.2-7.2-2.6,1.7-2.2,2.5-3.3,4.2-5.4Z"/>
        <path class="cls-2" d="M478.2,1271c-2.4,0-4.4-.4-5.8-1.3-1.4-.9-2.4-2.2-3-4.1-.9-2.8-.5-5.5,1.3-8.1,1.8-2.6,4.6-4.5,8.5-6,3.9-1.5,7.4-1.9,10.4-1.1,3,.8,5.1,2.6,6.3,5.4.7,1.7.8,3.4.3,5-.5,1.6-1.7,3.2-3.5,4.6,2.7-.3,5,0,7,1,2,1,3.5,2.6,4.4,4.7,1.3,3.2,1,6.2-1,9.1-2,2.9-5.5,5.4-10.5,7.3-4.9,1.8-9.1,2.3-12.5,1.4-3.4-.9-5.7-3-6.7-6.1-.8-2.3-.7-4.5.2-6.6.8-2.1,2.4-3.9,4.7-5.4ZM490.8,1283.1c2.7-1,4.5-2.4,5.6-4,1.1-1.7,1.2-3.4.5-5.3-.8-1.9-2.1-3.1-3.9-3.6-1.9-.5-4.1-.2-6.7.7-2.5.9-4.3,2.2-5.4,3.8-1.1,1.6-1.3,3.4-.7,5.3.7,1.9,1.9,3.1,3.8,3.7,1.9.5,4.1.3,6.8-.7ZM481,1256.1c-2,.8-3.4,1.8-4.3,3-.8,1.3-1,2.7-.5,4.2.5,1.5,1.5,2.4,2.9,2.8,1.4.4,3.2.2,5.2-.5,2.1-.8,3.5-1.8,4.3-3.1s.9-2.6.4-4.1c-.6-1.5-1.6-2.4-3-2.9-1.4-.4-3.1-.3-5.1.5Z"/>
        <path class="cls-2" d="M527.3,1271.7c-4.7-9.6-9.4-19.2-14-28.8-3.3,1.6-5,2.4-8.4,4,.2-2.2.3-3.3.6-5.5,4.7-2.2,7-3.3,11.6-5.7,5.6,10.9,11.2,21.9,16.7,32.8-2.6,1.3-3.9,2-6.5,3.3Z"/>
        <path class="cls-2" d="M593.4,1218.3c2.3-1.8,3.5-2.8,5.8-4.7l.2.2c1.1,1.3,2.5,1.9,4.4,1.7,1.8-.2,3.7-1.1,5.7-2.8,2.2-1.9,3.6-3.8,4-5.7.4-1.9,0-3.6-1.5-5.2-1.5-1.6-3.2-2.3-5.2-2.1-1.9.2-4.1,1.4-6.5,3.4-.1,0-.3.3-.5.5-.2.2-.4.4-.5.5-1.3-1.5-1.9-2.2-3.2-3.7.1,0,.3-.2.5-.4.2-.2.4-.3.5-.4,2.1-1.8,3.3-3.5,3.7-5.1.4-1.6,0-3.1-1.2-4.4-1.1-1.2-2.4-1.7-3.9-1.6-1.5.1-3.1.8-4.6,2.2-1.7,1.4-2.7,2.9-3.1,4.3-.4,1.5-.1,2.8.9,4.1-2.1,1.7-3.1,2.6-5.2,4.2-1.8-2.6-2.3-5.3-1.6-8.1.8-2.8,2.7-5.5,5.9-8.3,3.1-2.7,6-4.1,9-4.4,3-.3,5.5.6,7.6,2.8,1.6,1.7,2.3,3.5,2.3,5.5,0,2-.9,4-2.5,5.9,2.5-1.6,4.8-2.4,7.1-2.3s4.3,1.2,6.2,3.2c2.3,2.4,3,5.3,2.1,8.8-.9,3.5-3.4,7-7.3,10.4-3.6,3.1-7.2,4.7-10.6,5-3.5.3-6.3-.9-8.5-3.4Z"/>
        <path class="cls-2" d="M640.7,1161.8c4.5,3.8,7.1,8,7.5,12.5.5,4.5-1.2,8.9-5,12.9-3.8,4.1-8.1,6-12.7,5.8-4.6-.2-9-2.6-13.3-6.9-4.3-4.3-6.5-8.7-6.9-13.1-.4-4.4,1.2-8.4,4.6-12.1,3.5-3.7,7.4-5.5,11.8-5.4s9,2.2,13.9,6.3ZM639.4,1183.8c2.2-2.4,3-5,2.3-7.7-.7-2.8-2.8-5.7-6.3-8.8-3.4-3-6.5-4.8-9.3-5.2-2.8-.5-5.1.3-7.1,2.4-2,2.2-2.7,4.6-2.1,7.4.6,2.8,2.6,5.8,6,9,3.2,3.2,6.3,5,9.1,5.5,2.9.5,5.4-.3,7.4-2.5Z"/>
        <path class="cls-2" d="M667.4,1157.4c-8.5-6.5-17-12.9-25.5-19.4-2.3,3-3.5,4.5-5.8,7.4-.8-2.1-1.2-3.1-2-5.2,3.3-4.1,4.9-6.2,8-10.4,9.9,7.3,19.8,14.5,29.7,21.8-1.7,2.4-2.6,3.5-4.4,5.9Z"/>
        <path class="cls-2" d="M690.7,1123.4c-9.1-5.5-18.3-11.1-27.4-16.6-2,3.2-3,4.8-5,8-1-2-1.5-3-2.5-5,2.8-4.4,4.2-6.7,6.9-11.3,10.6,6.2,21.3,12.3,31.9,18.5-1.5,2.6-2.3,3.8-3.8,6.3Z"/>
        <path class="cls-2" d="M710.4,1086.8c-9.7-4.5-19.4-9.1-29.1-13.6-1.6,3.5-2.5,5.2-4.2,8.6-1.2-1.9-1.8-2.8-3-4.7,2.4-4.8,3.5-7.2,5.7-12.1,11.2,5,22.5,10,33.7,15-1.2,2.7-1.8,4.1-3.1,6.8Z"/>
        <path class="cls-2" d="M711.6,1058.8c1.1-2.9,1.7-4.3,2.7-7.2.1,0,.2,0,.3.1,1.6.6,3.2.3,4.6-.8,1.5-1.1,2.7-3,3.5-5.6,1-2.9,1.2-5.4.6-7.3-.6-1.9-1.9-3.2-3.9-3.8-2.1-.7-4-.4-5.5.9-1.6,1.3-2.9,3.4-3.9,6.6,0,.1-.1.4-.2.7,0,.3-.2.6-.2.7-1.8-.6-2.8-1-4.6-1.6,0-.1.1-.4.3-.7.1-.3.2-.5.3-.7.9-2.7,1.1-4.9.7-6.6-.4-1.7-1.5-2.8-3.2-3.3-1.5-.5-2.9-.2-4.2.7-1.3.9-2.3,2.4-2.9,4.4-.7,2.2-.9,4-.5,5.5.4,1.5,1.3,2.6,2.8,3.2-.9,2.6-1.4,3.9-2.4,6.5-2.9-1.3-4.7-3.5-5.4-6.4-.7-2.9-.4-6.4,1-10.6,1.3-4,3.2-7,5.6-8.8,2.4-1.9,5.1-2.4,8-1.6,2.2.6,3.8,1.9,4.8,3.7,1,1.8,1.2,4.1.7,6.7,1.3-2.8,3-4.8,5-5.9,2-1.1,4.4-1.3,7-.5,3.2.9,5.3,3.2,6.2,6.8.9,3.6.6,8.1-1.2,13.2-1.6,4.7-3.9,8.1-6.8,10.2-2.9,2.1-5.9,2.6-9.1,1.5Z"/>
        <path class="cls-2" d="M725.5,996.4c.2,1.1.2,2.2.2,3.3,0,1.1-.2,2.2-.4,3.3-1,4.4-2.9,7.8-5.8,10-2.9,2.2-6,2.9-9.4,2-3.7-1-6.3-3.3-7.8-6.9-1.5-3.6-1.7-7.7-.7-12.7,1-4.6,2.8-8.1,5.5-10.6,2.8-2.5,5.9-3.4,9.6-2.8,3.9.7,9.1,5.2,15.2,14.1.3.4.4.6.7,1,2.9,4.3,4.3,6.5,7.1,10.9-1.5,2.3-2.2,3.5-3.7,5.7-4-7.2-6.1-10.7-10.5-17.5ZM715.3,989.8c-2.2-.4-4.1,0-5.7,1.3s-2.7,3.2-3.2,5.7c-.6,2.8-.4,5.1.5,7.1.9,1.9,2.5,3.2,4.7,3.7,2.3.6,4.2.2,5.9-1.1,1.7-1.3,2.8-3.4,3.4-6.3.6-2.6.3-4.9-.8-6.8-1.1-1.9-2.7-3.1-4.8-3.5Z"/>
        <path class="cls-2" d="M741.3,944.9c1.9.1,2.9.2,4.8.3-.7,12-1.9,23.9-3.7,35.8-5.4-8.9-8.2-13.2-14.1-21.5-1.8-2.6-3.5-4.5-5-5.7-1.5-1.2-2.9-1.9-4.1-2-1.8-.2-3.3.5-4.5,1.8-1.2,1.4-1.9,3.3-2.1,5.8-.2,2.2,0,4.1,1,5.7.9,1.6,2.2,2.6,3.8,3-.4,3.1-.6,4.6-1,7.7-3.3-.5-5.7-2.4-7.3-5.5-1.6-3.2-2.1-7.2-1.6-12.1.5-4.7,1.7-8.3,3.7-10.9,2-2.6,4.6-3.9,7.8-3.7,2.3.1,4.5,1.1,6.7,2.9,2.2,1.8,5.3,5.6,9.2,11.4,1.9,2.9,2.9,4.3,4.8,7.2.9-8,1.2-12.1,1.7-20.2Z"/>
        <path class="cls-2" d="M746.6,910.5c-3,0-4.5.1-7.5.2.3,10.5.3,15.7-.1,26-9.7-10.6-19.6-20.7-30.1-30.4,0-.9,0-1.4-.1-2.3,10.3-.5,15.5-.7,25.8-1.2-.1-2.7-.2-4-.4-6.7,1.7-.1,2.5-.2,4.2-.3.2,2.7.3,4,.4,6.7,3-.1,4.5-.2,7.5-.4.2,3.3.2,5,.3,8.3ZM721.5,910.9c5.5,5.2,8.2,7.9,13.5,13.4,0-5.4,0-8.1-.2-13.5-3.9.1-5.8.2-9.7.3-.5,0-1.1,0-1.7,0-.6,0-1.3,0-2-.1Z"/>
      </g>
    </g>
    <g class="cls-8">
      <g>
        <path class="cls-2" d="M277.8,1225.3c-1.1,4.4-3.4,7.6-6.9,9.3s-8,1.9-13.2.3c-5.3-1.6-9-4.2-11-7.7-2.1-3.5-2.2-7.5-.6-11.9,1.6-4.4,4.2-7.3,7.8-8.9,3.6-1.5,7.7-1.5,12.5,0,4.9,1.5,8.2,3.8,10.2,7,2,3.2,2.5,7.2,1.3,12ZM258.6,1231c3.1.9,5.6.7,7.6-.6,2-1.3,3.5-3.8,4.4-7.3.9-3.4.9-6.2,0-8.4-.9-2.2-2.7-3.7-5.4-4.5-2.8-.9-5.2-.7-7.3.6-2,1.3-3.6,3.6-4.8,7-1.1,3.3-1.2,6.1-.3,8.4.9,2.3,2.9,3.9,5.7,4.8Z"/>
        <path class="cls-2" d="M285.6,1234.3c.8,1.4,2,2.7,3.5,3.6,1.5,1,3.3,1.7,5.4,2.1,3,.6,5.5.4,7.6-.5,2-.9,3.2-2.3,3.5-4.3.3-1.9-.4-3.6-2.1-5.1-1.7-1.5-4.1-2.5-7.1-3.1-1.8-.3-3.6-.5-5.2-.4-1.7,0-3.2.4-4.5.9-.7-.3-1-.4-1.7-.6,3.5-5.2,5.1-7.8,8.4-13.1,8,1.7,11.9,2.4,19.8,3.5-.2,1.5-.3,2.3-.5,3.8-6.3-.9-9.5-1.4-15.9-2.7-1.5,2.3-2.2,3.5-3.7,5.7,1.3,0,2.4,0,3.6,0,1.1,0,2.3.2,3.4.4,4.1.7,7.3,2.1,9.7,4.3,2.4,2.1,3.4,4.6,3,7.4-.4,3.2-2.3,5.6-5.7,7s-7.9,1.7-13.3.7c-3.2-.6-5.9-1.5-8.1-2.7-2.2-1.2-4-2.7-5.4-4.5,2.3-.9,3.4-1.3,5.6-2.2Z"/>
        <path class="cls-2" d="M350.5,1234.8c0,4.6-1.4,8.2-4.3,10.7-2.9,2.5-6.9,3.7-12,3.4-5.1-.3-9.1-2-11.7-4.9-2.6-2.9-3.6-6.7-3.1-11.4.5-4.7,2.3-8.2,5.2-10.5,2.9-2.3,6.7-3.3,11.4-3,4.7.3,8.3,1.7,10.8,4.4,2.5,2.7,3.8,6.5,3.8,11.4ZM334.2,1244.8c3,.2,5.3-.6,6.8-2.4,1.5-1.8,2.4-4.5,2.5-8.1.1-3.5-.5-6.3-1.8-8.2-1.3-1.9-3.3-2.9-5.9-3.1-2.8-.2-4.9.6-6.5,2.3-1.6,1.7-2.5,4.4-2.8,8-.3,3.5.2,6.2,1.6,8.2s3.4,3.1,6.2,3.3Z"/>
        <path class="cls-2" d="M366.2,1230.9c.9-.3,1.8-.6,2.7-.8.9-.2,1.8-.3,2.7-.4,3.7-.2,6.8.4,9.4,1.9,2.6,1.5,4,3.6,4.3,6.3.3,3-.8,5.5-3.5,7.5s-6.4,3.3-11.1,3.5c-4.4.2-8-.6-10.7-2.3-2.7-1.7-4.1-4.1-4.1-6.9,0-3.1,3.1-7.6,8.9-13.7.3-.3.4-.4.7-.7,2.8-3,4.1-4.5,6.7-7.5,2,.6,3.1.9,5.1,1.4-4.3,4.7-6.5,7-11.2,11.6ZM362.7,1239.7c0,1.7.8,3.1,2.3,4.1,1.5,1,3.4,1.5,5.7,1.3,2.6-.1,4.6-.8,6-1.9,1.4-1.1,2-2.6,1.9-4.4-.1-1.8-1-3.1-2.5-4.1-1.5-.9-3.5-1.3-6-1.2-2.3.1-4.1.7-5.5,1.8-1.4,1.1-2.1,2.5-2,4.2Z"/>
        <path class="cls-2" d="M396.1,1245.3c4.8-8.6,9.2-17.6,13-26.7-7.3,1.4-11,2-18.4,2.9-.2-1.5-.3-2.2-.5-3.7,11-1.4,16.4-2.3,27-4.7-4.4,11.3-9.5,22.3-15.2,33-2.4-.3-3.6-.5-6-.9Z"/>
        <path class="cls-2" d="M430.2,1232.4c1.2,1,2.7,1.6,4.4,1.8,1.7.2,3.4.1,5.3-.4,2.7-.8,4.7-2,6-3.7,1.3-1.7,1.7-3.5,1.1-5.4-.6-1.8-1.9-3-3.9-3.7-2-.6-4.4-.5-7.2.2-1.7.5-3.1,1.1-4.5,1.9-1.3.8-2.4,1.7-3.3,2.8-.7,0-1,0-1.7.2.6-6.2.9-9.3,1.3-15.4,7.2-1.9,10.8-2.9,17.8-5.3.5,1.4.7,2.2,1.2,3.6-5.7,1.9-8.5,2.7-14.3,4.3-.2,2.7-.4,4.1-.6,6.8,1-.6,2-1.1,2.9-1.6,1-.4,1.9-.8,2.9-1.1,3.7-1.1,6.9-1.2,9.8-.2,2.8.9,4.7,2.7,5.6,5.4,1,3.1.4,6-1.8,8.7-2.3,2.7-5.8,4.9-10.7,6.2-2.9.8-5.5,1.1-7.8,1-2.3-.1-4.4-.7-6.3-1.8,1.5-1.8,2.2-2.6,3.7-4.4Z"/>
        <path class="cls-2" d="M465.5,1228c2.7-9.4,4.9-19.2,6.6-28.8-6.7,2.9-10.1,4.3-17,6.8-.5-1.4-.7-2.1-1.2-3.5,10.1-3.7,15.1-5.8,24.8-10.3-1.8,11.9-4.3,23.8-7.4,35.4-2.4.2-3.5.3-5.9.4Z"/>
        <path class="cls-2" d="M495.4,1208.1c1.4.7,3,1,4.6.8,1.7-.1,3.3-.6,5-1.5,2.5-1.3,4.1-2.9,5-4.9.9-1.9.9-3.7-.1-5.4-.9-1.7-2.5-2.6-4.6-2.7-2.1-.2-4.4.4-6.9,1.7-1.5.8-2.8,1.7-3.9,2.7-1.1,1-2,2.2-2.6,3.4-.6.2-1,.3-1.6.5-.7-6.2-1.2-9.2-2.1-15.3,6.5-3.4,9.7-5.1,16.1-8.9.8,1.3,1.2,2,1.9,3.3-5.1,3-7.6,4.5-12.9,7.2.4,2.7.5,4,.9,6.7.8-.8,1.6-1.5,2.5-2.1.8-.6,1.7-1.2,2.6-1.7,3.3-1.8,6.4-2.6,9.4-2.3,3,.3,5.2,1.6,6.6,4.1,1.6,2.8,1.7,5.7.1,8.9-1.6,3.1-4.6,6-9,8.3-2.6,1.4-5,2.3-7.3,2.6-2.2.4-4.4.2-6.4-.4,1-2,1.6-3,2.6-5.1Z"/>
        <path class="cls-2" d="M524.1,1181.8c-2,.6-3.7.7-5,.4-1.3-.3-2.4-1.1-3.2-2.4-1.2-2-1.3-4.1-.2-6.5,1.1-2.4,3.1-4.6,6-6.6,3-2.1,5.8-3.2,8.4-3.3,2.6-.1,4.6.7,6.1,2.7.8,1.1,1.2,2.4,1,3.8-.2,1.4-.9,2.9-2.1,4.4,2.1-.9,4.1-1.2,5.9-.9,1.8.3,3.3,1.2,4.4,2.6,1.6,2.1,1.8,4.5.7,7.3-1.2,2.7-3.6,5.5-7.4,8.1-3.7,2.6-7.1,3.9-10.1,4-3,.1-5.1-.9-6.5-3.2-1-1.6-1.3-3.3-.9-5.1.4-1.8,1.4-3.5,3-5.2ZM536.5,1188.1c2-1.4,3.4-2.9,4-4.4.6-1.5.5-2.9-.5-4.2-.9-1.3-2.2-1.9-3.8-1.8s-3.4.8-5.4,2.1c-1.9,1.3-3.2,2.7-3.8,4.2-.6,1.5-.5,2.9.3,4.2.9,1.3,2.1,2,3.7,1.9,1.6,0,3.5-.7,5.5-2.1ZM524,1169.7c-1.5,1.1-2.5,2.2-3,3.4-.5,1.2-.4,2.3.3,3.3.7,1,1.6,1.5,2.9,1.5,1.3,0,2.7-.6,4.2-1.6,1.6-1.1,2.6-2.2,3.1-3.4.5-1.2.4-2.3-.4-3.2-.7-1-1.7-1.5-3-1.5-1.3,0-2.6.5-4.1,1.6Z"/>
        <path class="cls-2" d="M564.4,1170.6c-6.4-7.6-9.6-11.4-16-19-2.5,2.1-3.7,3.1-6.2,5.2-.2-1.8-.2-2.7-.4-4.4,3.5-2.9,5.2-4.3,8.6-7.3,6.3,7.1,12.5,14.3,18.8,21.4-1.9,1.7-2.8,2.5-4.7,4.1Z"/>
        <path class="cls-2" d="M609.1,1112.3c1.6-2.1,2.3-3.1,3.8-5.2,0,0,.1,0,.2.1,1.1.8,2.3.9,3.7.3,1.4-.6,2.8-1.8,4.1-3.7,1.4-2.1,2.2-4,2.2-5.6,0-1.6-.6-2.9-2-3.8-1.4-.9-2.9-1.1-4.4-.4-1.5.7-3,2.1-4.6,4.4,0,.1-.2.3-.3.5-.1.2-.3.4-.4.5-1.2-.9-1.9-1.3-3.1-2.2,0-.1.2-.3.4-.5.2-.2.3-.4.4-.5,1.4-2,2.1-3.6,2.1-5,0-1.4-.5-2.5-1.6-3.2-1-.7-2.1-.8-3.3-.3-1.2.5-2.3,1.5-3.3,2.9-1.1,1.6-1.7,3-1.7,4.2,0,1.3.4,2.3,1.3,3-1.4,1.9-2,2.8-3.4,4.7-1.9-1.6-2.7-3.6-2.5-6.1.2-2.4,1.3-5.1,3.4-8.1,2-2.9,4.1-4.9,6.4-5.9,2.3-1,4.4-.9,6.4.3,1.5.9,2.4,2.2,2.7,3.9s0,3.4-1.1,5.4c1.7-2,3.4-3.2,5.2-3.6,1.8-.5,3.6-.1,5.4,1,2.2,1.4,3.2,3.5,3,6.5-.2,3-1.5,6.4-4.1,10.1-2.3,3.4-4.9,5.6-7.6,6.7-2.7,1.1-5.1.9-7.3-.6Z"/>
        <path class="cls-2" d="M637.1,1055c4.1,2,6.8,4.7,7.9,8.3,1.1,3.6.6,7.5-1.7,11.7-2.3,4.2-5.3,6.9-8.9,7.8-3.6,1-7.4.2-11.5-2.2-4-2.4-6.5-5.4-7.5-8.8-1-3.5-.4-7.1,1.7-10.9,2.1-3.9,4.8-6.4,8.3-7.4,3.4-1,7.4-.5,11.8,1.6ZM639.7,1073.1c1.3-2.5,1.5-4.8.5-6.8-1-2.1-3.1-3.9-6.4-5.6-3.2-1.6-5.9-2.2-8.1-1.9-2.3.3-4,1.6-5.1,3.7-1.2,2.3-1.4,4.4-.4,6.5,1,2.1,3,4,6.1,5.8,3,1.7,5.7,2.5,8.1,2.2,2.3-.3,4.1-1.6,5.4-3.9Z"/>
        <path class="cls-2" d="M656.9,1044.7c-9.2-3.8-13.8-5.7-23-9.5-1.3,3-1.9,4.5-3.3,7.5-.9-1.5-1.4-2.3-2.4-3.7,1.8-4.2,2.7-6.3,4.4-10.5,8.9,3.5,17.7,6.9,26.6,10.4-.9,2.4-1.4,3.5-2.4,5.9Z"/>
        <path class="cls-2" d="M668.9,1011.1c-9.6-2.8-14.3-4.2-23.9-6.9-.9,3.2-1.4,4.7-2.4,7.9-1.1-1.4-1.7-2.1-2.8-3.5,1.4-4.4,2-6.6,3.2-11,9.2,2.5,18.4,5,27.6,7.4-.7,2.5-1,3.7-1.7,6.1Z"/>
        <path class="cls-2" d="M677.1,976.1c-9.8-1.7-14.7-2.6-24.5-4.3-.6,3.3-.9,4.9-1.6,8.2-1.3-1.3-1.9-1.9-3.1-3.2.9-4.6,1.3-6.8,2-11.5,9.4,1.5,18.8,2.9,28.3,4.4-.4,2.6-.6,3.8-1.1,6.4Z"/>
        <path class="cls-2" d="M672.6,952.5c.3-2.7.4-4,.6-6.7,0,0,.1,0,.2,0,1.3.1,2.4-.5,3.3-1.8.9-1.3,1.4-3.1,1.5-5.5.1-2.7-.2-4.7-1-6.2-.8-1.5-2.1-2.2-3.7-2.3-1.7,0-3,.6-4,2s-1.4,3.6-1.6,6.4c0,.1,0,.3,0,.6,0,.3,0,.5,0,.7-1.5,0-2.3-.1-3.8-.2,0-.1,0-.3,0-.6,0-.3,0-.5,0-.6.1-2.5-.1-4.4-.8-5.7-.7-1.3-1.7-2-3.1-2-1.2,0-2.2.5-3,1.6-.8,1.1-1.2,2.6-1.3,4.4-.1,2,.1,3.6.7,4.7.6,1.2,1.5,1.8,2.7,2-.2,2.4-.3,3.6-.5,6-2.4-.4-4.2-1.8-5.3-4-1.1-2.3-1.6-5.3-1.4-9.1.2-3.7,1-6.6,2.4-8.8,1.4-2.2,3.3-3.2,5.7-3.2,1.8,0,3.2.7,4.3,2,1.1,1.3,1.8,3.1,1.9,5.4.4-2.7,1.3-4.7,2.6-6.1,1.3-1.4,3-2.1,5.1-2.1,2.6,0,4.6,1.4,6,4.2,1.4,2.8,2.1,6.6,1.8,11.3-.2,4.3-1.3,7.6-3,10.1-1.8,2.4-3.9,3.5-6.5,3.4Z"/>
        <path class="cls-2" d="M670.1,897.2c.4.9.7,1.8.9,2.8.2.9.3,1.9.4,2.9.2,3.9-.5,7.2-2.2,9.7-1.7,2.5-3.9,3.8-6.6,3.8-3,0-5.4-1.3-7.3-4-1.9-2.6-2.9-6.1-3.2-10.5-.3-4.1.3-7.5,1.8-10.2,1.5-2.7,3.7-4.2,6.5-4.5,3.1-.3,7.9,2.3,14.4,8.4.3.3.5.4.8.7,3.1,2.9,4.6,4.4,7.6,7.5-.6,2.3-.9,3.4-1.6,5.6-4.5-5.1-6.8-7.5-11.6-12.3ZM661.1,893.9c-1.7.1-3,1-4,2.4-.9,1.5-1.3,3.3-1.2,5.5.2,2.5.8,4.4,1.9,5.8,1.1,1.4,2.5,2.1,4.3,2,1.8,0,3.2-.8,4.2-2.3,1-1.5,1.4-3.5,1.2-6.1-.1-2.3-.8-4.2-2-5.5-1.2-1.4-2.7-2-4.4-1.8Z"/>
        <path class="cls-2" d="M670.3,850.4c1.5-.3,2.2-.5,3.7-.8,2.3,10.1,4.1,20.5,5.4,30.8-6-6.2-9.1-9.2-15.3-14.9-2-1.8-3.6-3-5-3.7-1.4-.7-2.6-1-3.5-.8-1.4.3-2.4,1.1-2.9,2.5-.6,1.4-.6,3.2-.3,5.3.3,1.9,1,3.5,2,4.6,1,1.1,2.2,1.7,3.5,1.7.4,2.7.6,4,.9,6.7-2.6.3-4.8-.7-6.7-3-1.9-2.3-3.2-5.6-3.9-9.8-.7-4-.7-7.4.2-10,.9-2.6,2.5-4.3,4.9-4.8,1.7-.4,3.6,0,5.7,1,2.1,1,5.3,3.5,9.5,7.6,2.1,2,3.1,3,5.2,5-1.2-6.9-1.8-10.4-3.4-17.3Z"/>
        <path class="cls-2" d="M666,820.5c-2.2.7-3.3,1.1-5.6,1.8,2.8,8.7,4,13.1,6.2,21.8-9.6-6.9-19.5-13.3-29.7-19.2-.3-.8-.4-1.2-.7-1.9,7.6-2.6,11.4-3.9,18.9-6.4-.7-2.2-1.1-3.3-1.9-5.5,1.2-.4,1.8-.7,3.1-1.1.8,2.2,1.2,3.3,1.9,5.6,2.2-.8,3.3-1.1,5.5-1.9.9,2.8,1.4,4.1,2.3,6.9ZM647.4,826.1c5.4,3.2,8,4.9,13.3,8.4-1.3-4.5-1.9-6.8-3.4-11.3-2.9.9-4.3,1.4-7.1,2.3-.4.1-.8.2-1.3.4s-1,.2-1.5.3Z"/>
      </g>
    </g>
    <g class="cls-8">
      <text class="cls-6" transform="translate(191.7 635.8) rotate(34.9) scale(1 1.2)"><tspan x="0" y="0">0</tspan></text>
      <text class="cls-6" transform="translate(271.4 671.6) rotate(8.3) scale(1 1.2)"><tspan x="0" y="0">0</tspan></text>
      <text class="cls-6" transform="translate(230.1 656.7) rotate(22.5) scale(1 1.2)"><tspan x="0" y="0">5</tspan></text>
      <text class="cls-6" transform="translate(390.4 678.3) rotate(-13.7) scale(1 1.2)"><tspan x="0" y="0">5</tspan></text>
      <text class="cls-6" transform="translate(310.5 678.8) rotate(2.8) scale(1 1.2)"><tspan x="0" y="0">6</tspan></text>
      <text class="cls-6" transform="translate(350.9 682.4) rotate(-6.2) scale(1 1.2)"><tspan x="0" y="0">7</tspan></text>
      <text class="cls-6" transform="translate(464.4 660.5) rotate(-22.7) scale(1 1.2)"><tspan x="0" y="0">5</tspan></text>
      <text class="cls-6" transform="translate(499.5 644.9) rotate(-30.6) scale(1 1.2)"><tspan x="0" y="0">8</tspan></text>
      <text class="cls-6" transform="translate(600.1 565.1) rotate(-49.6) scale(1 1.2)"><tspan x="0" y="0">3</tspan></text>
      <text class="cls-6" transform="translate(679.6 386.1) rotate(-89.2) scale(1 1.2)"><tspan x="0" y="0">3</tspan></text>
      <text class="cls-6" transform="translate(681.6 344.8) rotate(-93.1) scale(1 1.2)"><tspan x="0" y="0">9</tspan></text>
      <text class="cls-6" transform="translate(676.7 299.4) rotate(-104.7) scale(1 1.2)"><tspan x="0" y="0">2</tspan></text>
      <text class="cls-6" transform="translate(668.9 257.9) rotate(-112.8) scale(1 1.2)"><tspan x="0" y="0">4</tspan></text>
      <text class="cls-6" transform="translate(626.5 532.8) rotate(-58.3) scale(1 1.2)"><tspan x="0" y="0">0</tspan></text>
      <text class="cls-6" transform="translate(648.6 495.6) rotate(-69.5) scale(1 1.2)"><tspan x="0" y="0">1</tspan></text>
      <text class="cls-6" transform="translate(661.2 464) rotate(-69.5) scale(1 1.2)"><tspan x="0" y="0">1</tspan></text>
      <text class="cls-6" transform="translate(671.6 429.5) rotate(-77.8) scale(1 1.2)"><tspan x="0" y="0">1</tspan></text>
      <text class="cls-6" transform="translate(532.2 626.4) rotate(-35.5) scale(1 1.2)"><tspan x="0" y="0">1</tspan></text>
      <text class="cls-6" transform="translate(426 670.9) rotate(-15.3) scale(1 1.2)"><tspan x="0" y="0">7</tspan></text>
    </g>
    <g class="cls-8">
      <polygon class="cls-2" points="186.6 596.4 188.6 612.3 172.1 614.4 170 598.3 186.6 596.4"/>
      <polygon class="cls-2" points="573.9 570.4 577.1 586 560.8 589.4 557.5 573.6 573.9 570.4"/>
      <polygon class="cls-2" points="626.2 195.8 640.5 202.8 633.1 217.8 618.6 210.6 626.2 195.8"/>
    </g>
    <g class="cls-8">
      <text class="cls-4" transform="translate(417.5 497.9)"><tspan x="0" y="0">CRN.30111.3924</tspan></text>
      <g>
        <path class="cls-2" d="M489,393c0-.3.3-.6.7-.6h6.2c1.4,0,2.5,1,2.5,2.2v8.9c0,.2-.2.5-.5.5h-1.2c-.3,0-.5-.2-.5-.5v-8.9c0-.1,0-.2-.2-.2h-4.8v9.1c0,.2-.2.5-.5.5h-1.1c-.3,0-.5-.2-.5-.5v-10.5Z"/>
        <path class="cls-2" d="M511.7,403.9h-1.2c-.3,0-.5-.2-.5-.5v-7.8c0-.7-.7-1.3-1.5-1.3h-5.1c-.3,0-.5-.2-.5-.5v-1.1c0-.3.2-.5.5-.5h5.1c2,0,3.7,1.5,3.7,3.3v7.8c0,.2-.2.5-.5.5Z"/>
        <path class="cls-2" d="M521.2,403.9h-1.2c-.3,0-.5-.2-.5-.5v-8.9l-2.7-.6c-.3,0-.4-.3-.3-.6l.3-1c0-.3.4-.4.7-.3l3.4.8c.6.1.9.5.9,1v9.6c0,.2-.2.5-.5.5Z"/>
        <path class="cls-2" d="M536.4,394.2l-3.1,9.4c0,.2-.3.4-.7.3l-1.2-.3c-.3,0-.4-.3-.3-.6l3-8.5h-7c-.3,0-.5-.2-.5-.5v-1.1c0-.3.2-.5.5-.5h8.1c.8,0,1.4.6,1.4,1.3s0,.4-.1.5ZM528.7,400v6c0,.2-.2.5-.5.5h-1.2c-.3,0-.5-.2-.5-.5v-6c0-.5.2-2.6.2-2.6,0-.2.2-.4.5-.4h1.2c.3,0,.5.3.5.6,0,0-.2,2-.2,2.5Z"/>
        <path class="cls-2" d="M558.2,403.9h-1.2c-.3,0-.5-.2-.5-.5v-7.8c0-.7-.6-1.3-1.4-1.3h-1.8c-1.1.9-1.7,2.3-1.7,3.8s.5,2.8,1.6,4.1v1c0,.4-.3.6-.7.6h-2.9c-.3,0-.5-.2-.5-.5v-.9c0-.3.2-.5.5-.5h1.4c-1-1.2-1.5-2.6-1.5-3.8s.6-3,1.6-3.9h-1.3c-.3,0-.5-.2-.5-.5v-1.1c0-.3.2-.5.5-.5h5.4c2,0,3.6,1.5,3.6,3.3v7.8c0,.2-.2.5-.5.5Z"/>
        <path class="cls-2" d="M567.4,399.4c-.2.2-.5.2-.7,0l-.8-.7c-.2-.2-.2-.5,0-.6,1.3-1.3,1.4-1.9,1.4-3.8h-3.6c-.3,0-.5-.2-.5-.5v-1.1c0-.3.2-.5.5-.5h4.3c.7,0,1.4.5,1.4,1.2v1.3c0,1.6-.2,2.8-2.1,4.5Z"/>
        <path class="cls-2" d="M574.1,393.4c-.2-.2-.2-.5,0-.7l.8-.7c.2-.2.5-.2.7,0l1.1,1c1.3-.5,2.4-.7,3.3-.7,1.9,0,2.9.9,3,2.4l.6,7.9c0,.8-.6,1.4-1.4,1.4h-3.4c-.3,0-.5-.2-.5-.5v-1.1c0-.3.2-.5.5-.5h2.5l-.5-6.9c0-.4-.3-.8-1.1-.8s-1.4,0-2.5.6l-1.1,8.7c0,.3-.2.5-.6.5h-1.1c-.3,0-.6-.2-.5-.5l1.1-9.1-1-.8Z"/>
        <path class="cls-2" d="M595.5,399.4c-.5,2.4-1.1,3.1-3.5,4.3l-3.2,1.6c-.3.1-.6,0-.7-.2l-.5-.9c-.1-.3,0-.5.2-.6l3.4-1.6-3.2-8.9c-.1-.4,0-.7.5-.7h1c.3,0,.6.1.7.4l2.9,8.4c.2-.2.3-.6.4-1.1l1.4-7.3c0-.2.2-.4.6-.4h1.1c.4,0,.6.2.5.5l-1.4,6.5Z"/>
        <path class="cls-2" d="M429.6,427.1c0-3.7,1.3-8.1,5.6-8.1s5.6,4.4,5.6,8.1-1.3,8.1-5.6,8.1-5.6-4.4-5.6-8.1ZM438.3,427.1c0-2.1-.3-6.1-3-6.1s-3,4-3,6.1.3,6.1,3,6.1,3-3.9,3-6.1Z"/>
        <path class="cls-2" d="M448.3,421.4v3.9c.8-.3,1.6-.5,2.5-.5,2.9,0,5.5,1.9,5.5,5.1s-2.9,5.3-5.8,5.3-3.7-.8-5-2.3c-.3-.3-.3-.7,0-.9l.4-.4c.4-.3.8-.3,1.1,0,1,1,2.1,1.5,3.3,1.5,2.1,0,3.5-1.5,3.5-3.2s-1.6-3.1-3.4-3.1-1.7.2-2.5.7c-.4.2-.7.3-1.1,0l-.9-.4v-7.3c0-.4.3-.6.6-.6h7.8c.3,0,.6.2.6.5v1c0,.3-.3.5-.6.5h-6.1Z"/>
        <path class="cls-2" d="M460.5,427.1c0-3.7,1.3-8.1,5.6-8.1s5.6,4.4,5.6,8.1-1.3,8.1-5.6,8.1-5.6-4.4-5.6-8.1ZM469.1,427.1c0-2.1-.3-6.1-3-6.1s-3,4-3,6.1.3,6.1,3,6.1,3-3.9,3-6.1Z"/>
        <path class="cls-2" d="M485.3,419.2c.4,0,.7.2.7.6v.6c0,.4-.3.6-.7.6-3.4,0-6.2,1.9-6.6,5.4.9-.9,2.2-1.4,3.3-1.4,2.9,0,5.2,2.3,5.2,5.1s-2.3,5.1-5.2,5.1-3.3-.7-4.3-1.9c-1.1-1.3-1.6-3-1.6-5.1s.8-4.9,2.4-6.6c1.5-1.6,3.7-2.5,6.2-2.5h.6ZM481.9,433.2c1.6,0,2.9-1.4,2.9-3.1s-1.2-3-2.9-3-2.9,1.3-2.9,3,1.2,3.1,2.9,3.1Z"/>
        <path class="cls-2" d="M493.8,431.8c1,0,1.8.8,1.8,1.7s-.8,1.7-1.8,1.7-1.8-.8-1.8-1.7.8-1.7,1.8-1.7Z"/>
        <path class="cls-2" d="M502.4,422.3c0,.3-.3.5-.6.5h-.8c-.3,0-.6-.2-.6-.5v-2.3c0-.4.3-.7.7-.7h8.5c.9,0,1.5.7,1.2,1.5l-4.5,13.6c-.1.4-.3.5-.8.5h-1.2c-.5,0-.7-.3-.6-.8l4.5-12.8h-5.9v.8Z"/>
        <path class="cls-2" d="M518.4,421.4v3.9c.8-.3,1.6-.5,2.5-.5,2.9,0,5.5,1.9,5.5,5.1s-2.9,5.3-5.8,5.3-3.7-.8-5-2.3c-.3-.3-.3-.7,0-.9l.4-.4c.4-.3.8-.3,1.1,0,1,1,2.1,1.5,3.3,1.5,2.1,0,3.5-1.5,3.5-3.2s-1.6-3.1-3.4-3.1-1.7.2-2.5.7c-.4.2-.7.3-1.1,0l-.9-.4v-7.3c0-.4.3-.6.6-.6h7.8c.3,0,.6.2.6.5v1c0,.3-.3.5-.6.5h-6.1Z"/>
        <path class="cls-2" d="M532.5,422.3c0,.3-.3.5-.6.5h-.8c-.3,0-.6-.2-.6-.5v-2.3c0-.4.3-.7.7-.7h8.5c.9,0,1.5.7,1.2,1.5l-4.5,13.6c-.1.4-.3.5-.8.5h-1.2c-.5,0-.7-.3-.6-.8l4.5-12.8h-5.9v.8Z"/>
        <path class="cls-2" d="M548.5,421.4v3.9c.8-.3,1.6-.5,2.5-.5,2.9,0,5.5,1.9,5.5,5.1s-2.9,5.3-5.8,5.3-3.7-.8-5-2.3c-.3-.3-.3-.7,0-.9l.4-.4c.4-.3.8-.3,1.1,0,1,1,2.1,1.5,3.3,1.5,2.1,0,3.5-1.5,3.5-3.2s-1.6-3.1-3.4-3.1-1.7.2-2.5.7c-.4.2-.7.3-1.1,0l-.9-.4v-7.3c0-.4.3-.6.6-.6h7.8c.3,0,.6.2.6.5v1c0,.3-.3.5-.6.5h-6.1Z"/>
        <path class="cls-2" d="M563,431.8c1,0,1.8.8,1.8,1.7s-.8,1.7-1.8,1.7-1.8-.8-1.8-1.7.8-1.7,1.8-1.7Z"/>
        <path class="cls-2" d="M572,427c-1.4-.8-2.2-2.1-2.2-3.5,0-2.4,2.3-4.4,5.3-4.4s5.4,2,5.4,4.4-.8,2.7-2.2,3.5c1.6.8,2.4,2.1,2.4,3.6,0,2.6-2.5,4.7-5.5,4.7s-5.5-2.1-5.5-4.7.8-2.9,2.4-3.6ZM575.2,433.3c1.7,0,3-1.2,3-2.6s-1.4-2.6-3-2.6-3,1.2-3,2.6,1.4,2.6,3,2.6ZM575.2,426.1c1.6,0,2.9-1.1,2.9-2.5s-1.3-2.5-2.9-2.5-2.9,1.1-2.9,2.5,1.3,2.5,2.9,2.5Z"/>
        <path class="cls-2" d="M585.7,434.9c-.3,0-.6-.2-.6-.5v-1c0-.3.3-.5.6-.5h3.6v-11l-2.4.8c-.4.1-.6,0-.8-.3l-.4-1.1c-.1-.3,0-.6.4-.7l4.1-1.4c.8-.3,1.6.2,1.6,1v12.7h3.2c.3,0,.6.2.6.5v1c0,.3-.3.5-.6.5h-9.3Z"/>
      </g>
      <text class="cls-5" transform="translate(373.7 467.3)"><tspan x="0" y="0">amit@studiopaco.com</tspan></text>
      <g>
        <path class="cls-2" d="M389,326.3v-24.7h4.9c1.1,0,2.1,0,2.9.3.8.2,1.5.6,2.2,1.2.7.6,1.2,1.4,1.6,2.2.3.9.5,1.8.5,2.9,0,2.3-1,4-2.9,5,1.5.3,2.8,1,3.7,2.2s1.4,2.5,1.4,4.1-.8,3.8-2.3,5.1c-.8.7-1.7,1.1-2.6,1.4-.9.3-2,.4-3.2.4h-6.3ZM390.6,312.8h2.7c1.2,0,2.1,0,2.7-.2s1.2-.4,1.7-.8c.7-.5,1.2-1,1.4-1.7.3-.6.4-1.4.4-2.3s-.2-1.6-.5-2.4c-.3-.7-.8-1.3-1.5-1.7-.5-.3-1.1-.6-1.8-.7-.6,0-1.5-.1-2.4-.1h-2.7v9.7ZM390.6,324.9h3.8c1.3,0,2.3,0,3-.2s1.4-.4,2-.8c.8-.5,1.4-1.2,1.8-1.9.4-.8.6-1.6.6-2.5s-.2-1.8-.7-2.6c-.4-.8-1.1-1.4-1.9-1.8-.7-.3-1.4-.5-2.3-.6-.8,0-1.8-.1-2.9-.1h-3.5v10.6Z"/>
        <path class="cls-2" d="M404.7,311.2h1.5l6.5,13.7,5.8-13.7h1.5l-10.2,24h-1.5l3.6-8.6-7.3-15.4Z"/>
        <path class="cls-2" d="M435.2,318.2l-3.3,8.1h-1.6l10.4-25.5,10.3,25.5h-1.6l-3.3-8.1h-10.8ZM440.7,304.8l-4.9,11.9h9.7l-4.8-11.9Z"/>
        <path class="cls-2" d="M455.1,313.1h0c.3-.7.9-1.2,1.6-1.6.7-.4,1.4-.6,2.2-.6s1.8.2,2.6.7,1.3,1.2,1.7,2c.4-.9,1-1.6,1.8-2,.8-.5,1.7-.7,2.7-.7s1.7.1,2.3.4c.6.3,1.1.7,1.4,1.2.3.5.6,1.2.7,1.9.1.7.2,1.5.2,2.4v9.5h-1.5v-9.7c0-.7,0-1.2-.1-1.7,0-.5-.2-1-.4-1.4-.2-.4-.5-.7-1-.9-.4-.2-1-.3-1.7-.3s-1.4.1-1.9.4c-.5.3-.9.7-1.2,1.2-.3.5-.5,1.1-.6,1.7-.1.6-.2,1.3-.2,2v8.7h-1.5v-9.3c0-.7,0-1.3-.1-1.8,0-.5-.2-1-.5-1.5s-.6-.8-1-1.1c-.5-.3-1-.4-1.7-.4s-1.4.2-1.9.5c-.5.3-.9.8-1.2,1.4-.3.6-.5,1.2-.6,1.8s-.2,1.3-.2,2v8.3h-1.5v-15.1h1.5v1.9Z"/>
        <path class="cls-2" d="M479.7,305.2c.3.3.4.6.4,1s-.1.7-.4.9-.6.4-.9.4-.7-.1-1-.4-.4-.6-.4-.9.1-.7.4-1,.6-.4,1-.4.7.1.9.4ZM479.5,326.3h-1.5v-15.1h1.5v15.1Z"/>
        <path class="cls-2" d="M486.7,326.3h-1.5v-13.8h-1.7v-1.4h1.7v-5.4h1.5v5.4h2.7v1.4h-2.7v13.8Z"/>
        <path class="cls-2" d="M515.6,301.6h2.1l-12.1,11.9,12.8,12.8h-2.1l-11.9-11.8-.7.7v11.1h-1.6v-24.7h1.6v11.5l11.7-11.5Z"/>
        <path class="cls-2" d="M530.3,311.5c1,.4,1.8.9,2.6,1.7.7.7,1.3,1.6,1.7,2.5.4,1,.6,2,.6,3.1s-.2,2.2-.6,3.1c-.4,1-1,1.8-1.7,2.5-.7.7-1.6,1.3-2.6,1.7s-2,.6-3.1.6-2.1-.2-3-.6c-1-.4-1.8-1-2.5-1.7-.7-.7-1.3-1.6-1.7-2.5-.4-1-.6-2-.6-3s.2-2.1.6-3.1c.4-1,1-1.8,1.7-2.5.7-.7,1.6-1.3,2.5-1.7,1-.4,2-.6,3-.6s2.1.2,3.1.6ZM524.6,312.8c-.8.3-1.4.8-2,1.4-.6.6-1,1.3-1.3,2.1-.3.8-.5,1.6-.5,2.5s.2,1.7.5,2.5c.3.8.8,1.5,1.3,2.1.6.6,1.2,1.1,2,1.4.8.4,1.6.5,2.5.5s1.8-.2,2.6-.5,1.5-.8,2.1-1.4,1.1-1.3,1.4-2.1.5-1.6.5-2.5-.2-1.8-.5-2.6c-.3-.8-.8-1.5-1.4-2.1-.6-.6-1.3-1.1-2.1-1.4s-1.7-.5-2.6-.5-1.7.2-2.5.5Z"/>
        <path class="cls-2" d="M540.2,313.2h0c.3-.7.7-1.3,1.3-1.7.6-.4,1.2-.6,2-.6s1.1.1,1.6.4l-.8,1.3c-.3-.2-.7-.3-1-.3-.7,0-1.3.2-1.7.5-.4.4-.7.8-1,1.4-.2.6-.3,1.2-.4,1.9s0,1.5,0,2.5v7.7h-1.5v-15.1h1.5v2Z"/>
        <path class="cls-2" d="M561.1,326.3h-1.5v-2.7h0c-.5.9-1.4,1.7-2.4,2.2-1.1.5-2.2.8-3.3.8s-2.1-.2-3.1-.6c-.9-.4-1.7-1-2.4-1.7s-1.2-1.6-1.5-2.6c-.4-1-.5-2-.5-3.1s.2-2.1.5-3.1c.3-.9.8-1.8,1.5-2.5s1.4-1.3,2.4-1.7c.9-.4,1.9-.6,3-.6s2.3.3,3.3.8c1,.5,1.9,1.2,2.5,2.2h0v-2.6h1.5v15.1ZM551.3,312.8c-.7.3-1.3.8-1.9,1.4-.5.6-.9,1.3-1.2,2.1s-.4,1.6-.4,2.4.1,1.7.4,2.5.7,1.5,1.2,2.1c.5.6,1.2,1.1,1.9,1.5.7.4,1.5.5,2.4.5,1.9,0,3.3-.7,4.4-2,1.1-1.3,1.6-2.9,1.6-4.8s-.6-3.3-1.7-4.5c-1.1-1.2-2.6-1.8-4.4-1.8s-1.6.2-2.4.5Z"/>
        <path class="cls-2" d="M577.8,314.7c-1.5-1.6-3.3-2.5-5.3-2.5s-1.7.2-2.5.5c-.8.3-1.4.8-2,1.4-.6.6-1,1.3-1.3,2.1-.3.8-.5,1.6-.5,2.5s.2,1.7.5,2.5c.3.8.7,1.5,1.3,2.1.6.6,1.2,1.1,2,1.5.8.4,1.6.5,2.5.5s2.1-.2,3.1-.7c1-.5,1.8-1.1,2.5-2v2c-.8.7-1.6,1.2-2.6,1.6-1,.4-1.9.5-2.9.5s-2.1-.2-3.1-.6c-.9-.4-1.8-1-2.5-1.7-.7-.7-1.2-1.6-1.6-2.5s-.6-2-.6-3.1.2-2.1.6-3,.9-1.8,1.7-2.5,1.5-1.3,2.5-1.7c.9-.4,2-.6,3.1-.6,2.1,0,3.8.6,5.3,1.9v2Z"/>
        <path class="cls-2" d="M583.3,299.3v14.3h0c.4-.9,1-1.5,1.8-2,.8-.5,1.7-.7,2.7-.7,1.9,0,3.2.5,3.9,1.6.7,1.1,1.1,2.6,1.1,4.7v9.1h-1.5v-9.1c0-.8,0-1.5-.1-2,0-.6-.2-1.1-.5-1.5-.3-.4-.6-.8-1.1-1-.5-.3-1.1-.4-1.9-.4s-1.6.2-2.2.6-1.1.9-1.4,1.5c-.3.6-.5,1.3-.6,2.1s-.2,1.6-.2,2.4v7.5h-1.5v-27h1.5Z"/>
      </g>
      <g>
        <text class="cls-3" transform="translate(391.6 348.7)"><tspan x="0" y="0" xml:space="preserve">DES     ARCHIT</tspan><tspan x="102.8" y="26.7">ECTURE</tspan></text>
        <text class="cls-3" transform="translate(390.9 374.9)"><tspan x="0" y="0">IGN</tspan></text>
        <path class="cls-2" d="M475.2,350.8c-.5,0-.8,0-1.2-.6l-.7-1c-1.2,1.1-2.8,1.7-4.4,1.7-3.1,0-6.1-2-6.1-5.7s1.2-4.5,3.8-5.9l-1.8-2.6c-.6-.9-1-2-1-3.1,0-2.9,2.6-5.2,5.5-5.2s3.4.8,4.5,2.4c.3.5.6.9,0,1.4l-.6.5c-.4.4-.7.2-1-.1-.7-.8-1.6-1.6-3-1.6-1.3,0-2.5.9-2.5,2.4s.1,1,.5,1.5l6.5,9.7,1.7-2.3c.3-.4.6-.4,1-.1l.7.6c.4.3.5.6.2,1l-2,3.1,1.8,2.8c.3.4,0,1-.5,1h-1.5ZM468,341.5c-1.6.8-2.3,2.2-2.3,3.5,0,2.1,1.6,3.3,3.3,3.3s2-.4,2.8-1.2l-3.8-5.6Z"/>
      </g>
    </g>
    <path class="cls-2" d="M513.2,321.5c5.5,2.3,10.4,5.5,14.6,9.6,4.2,4.1,7.4,9,9.7,14.5,2.3,5.5,3.5,11.5,3.5,17.9s-1.2,12.3-3.5,17.9c-2.3,5.5-5.5,10.3-9.7,14.5-4.2,4.1-9,7.3-14.6,9.6-5.5,2.3-11.4,3.4-17.7,3.4s-11.9-1.2-17.4-3.6c-5.5-2.4-10.3-5.6-14.4-9.8-4.1-4.1-7.3-9-9.6-14.5-2.3-5.5-3.5-11.3-3.5-17.3s1.2-12,3.5-17.6c2.3-5.6,5.5-10.4,9.6-14.6,4.1-4.1,8.9-7.4,14.4-9.8,5.5-2.4,11.3-3.6,17.4-3.6s12.1,1.1,17.7,3.4ZM480.8,329c-4.4,2-8.3,4.8-11.5,8.3-3.2,3.5-5.8,7.5-7.6,12.1-1.8,4.6-2.7,9.3-2.7,14.2s.9,9.6,2.7,14.1c1.8,4.5,4.3,8.5,7.6,11.9,3.2,3.4,7.1,6.2,11.5,8.2,4.4,2,9.1,3,14.1,3s10.1-.9,14.7-2.8c4.6-1.9,8.6-4.5,12.1-7.9,3.5-3.4,6.2-7.4,8-11.9,1.9-4.6,2.8-9.4,2.8-14.6s-.9-10.2-2.8-14.8c-1.9-4.6-4.5-8.6-7.9-12-3.4-3.4-7.5-6-12.1-7.9-4.6-1.9-9.5-2.8-14.8-2.8s-9.7,1-14.1,3Z"/>
    <path class="cls-2" d="M133.4,339.3l-6.9-3.6h-18.7l4.3,2.3c.5.3,1.4.7,2.6,1.3,4,1.9,7.3,3.6,10,5.2,2.7,1.6,5.2,3.4,7.7,5.5,2.4,2.1,4.4,4.5,5.9,7.3,1.5,2.8,2.2,6,2.2,9.5s-.9,8.8-2.8,13-4.4,7.7-7.7,10.8c-3.2,3.1-7,5.5-11.1,7.1-4.2,1.7-8.6,2.5-13.2,2.5-8.1,0-15-2.3-20.8-6.9-5.7-4.6-10.2-10.8-13.3-18.7l-7.9,3.6c3.4,9.3,8.7,16.7,16.1,22.2,7.4,5.5,15.8,8.3,25.4,8.3s11.3-1,16.6-3.1c5.3-2.1,10-5,14.2-8.7,4.2-3.8,7.4-8.1,9.8-13.2,2.4-5,3.6-10.4,3.6-16.2s-1.3-11.7-3.9-16.3c-2.6-4.6-6.7-8.5-12.2-11.9Z"/>
    <path class="cls-2" d="M124.1,276c4.7,2.9,8.7,7,12.1,12.4l6.4-5.3c-1.8-3.2-3.9-6.1-6.5-8.6l-15-.2c1.1.5,2.1,1,3.1,1.6Z"/>
    <polygon class="cls-2" points="181.3 308.4 172.9 308.4 172.9 320 163.3 320 163.3 327.8 172.9 327.8 172.9 406.8 181.3 406.8 181.3 327.8 196.4 327.8 196.4 320 181.3 320 181.3 308.4"/>
    <path class="cls-2" d="M263.4,332.9v36.1c0,5-.3,9.3-.7,12.9-.5,3.6-1.5,6.8-3,9.6-1.5,2.8-3.8,5.1-6.8,6.8-3.1,1.7-7.1,2.5-12.1,2.5s-9-.8-12.1-2.5c-3.1-1.7-5.3-3.9-6.8-6.8-1.5-2.8-2.5-6-3-9.6-.5-3.6-.8-7.9-.8-12.9v-49.1h-8.4v52.1c0,6.1.3,11.1.9,14.8.6,3.7,2.1,7.1,4.3,10.2,2.9,3.9,6.6,6.8,11.2,8.7,4.6,1.9,9.5,2.9,14.6,2.9s10-1,14.6-2.9c4.6-1.9,8.4-4.9,11.2-8.7,2.2-3.1,3.7-6.5,4.3-10.2.6-3.7.9-8.6.9-14.8v-39.1h-8.4Z"/>
    <path class="cls-1" d="M422.7,298.7c2.1,0,3.9-.8,5.4-2.3,1.5-1.5,2.2-3.3,2.2-5.5s-.7-3.9-2.2-5.4c-1.5-1.5-3.3-2.3-5.4-2.3s-3.9.8-5.4,2.3c-1.5,1.5-2.2,3.3-2.2,5.4s.7,3.9,2.2,5.5c1.5,1.5,3.3,2.3,5.4,2.3Z"/>
    <rect class="cls-1" x="418.4" y="359.5" width="8.4" height="47.3"/>
    <path class="cls-2" d="M561.8,461.7c-.2-.5-.4-1-.6-1.5-1.8-4.5-2.7-9.2-2.7-14.1s.9-9.6,2.7-14.2c1.8-4.6,4.3-8.6,7.6-12.1,3.2-3.5,7.1-6.3,11.5-8.3,4.4-2,9.1-3,14.1-3s10.2.9,14.8,2.8c4.6,1.9,8.6,4.5,12.1,7.9,3.4,3.4,6.1,7.4,7.9,12,1.9,4.6,2.8,9.6,2.8,14.8s-.9,10-2.8,14.6c-.1.3-.3.7-.4,1h9c1.8-4.9,2.7-10.2,2.7-15.8s-1.2-12.3-3.5-17.9c-2.3-5.5-5.5-10.3-9.7-14.5-4.2-4.1-9-7.3-14.6-9.6-5.5-2.3-11.4-3.4-17.7-3.4s-11.9,1.2-17.4,3.6c-5.5,2.4-10.3,5.6-14.4,9.8-4.1,4.1-7.3,9-9.6,14.6-2.3,5.6-3.5,11.4-3.5,17.6s.9,10.6,2.8,15.6h9Z"/>
    <g>
      <path class="cls-2" d="M472,476.5h12.4c-1.8-1.4-3.5-2.9-5-4.6-3.2-3.6-5.7-7.6-7.5-12.1-1.7-4.5-2.6-9.2-2.6-14.1s.9-9.6,2.7-14.1c1.8-4.5,4.3-8.5,7.6-11.9,3.2-3.4,7-6.2,11.4-8.2,4.4-2,9-3,14-3,11.7,0,21.9,4.7,30.5,14.1v-11.3c-8.4-7.1-18.4-10.7-30.1-10.7s-12.1,1.2-17.5,3.5c-5.4,2.3-10.2,5.5-14.2,9.7-4.1,4.1-7.2,9-9.4,14.5-2.2,5.5-3.4,11.3-3.4,17.5s1.1,12.2,3.3,17.8c1.9,4.9,4.5,9.3,7.9,13Z"/>
      <path class="cls-2" d="M526.8,476.5h9.7v-8.8c-2.8,3.5-6.1,6.4-9.7,8.8Z"/>
    </g>
    <path class="cls-2" d="M300.7,369.9c-.5-2.6-.7-5.3-.7-8.1,0-4.6.8-9.2,2.4-13.6,1.6-4.4,3.9-8.4,6.9-11.9,3-3.5,6.5-6.3,10.7-8.3,4.1-2,8.6-3,13.5-3,10.3,0,18.7,3.4,25.1,10.2,6.4,6.8,9.5,15.4,9.5,25.7s-.3,6.1-.8,9h8.6v-76.2h-8.4v40.3h-.4c-3.6-5.4-8.4-9.6-14.3-12.5-5.9-2.9-12.3-4.4-19-4.4s-12.2,1.1-17.4,3.4c-5.2,2.3-9.7,5.4-13.5,9.5-3.7,4.1-6.6,8.8-8.5,14.3-1.9,5.5-2.9,11.3-2.9,17.6s.2,5.4.6,8.1h8.5Z"/>
    <path class="cls-2" d="M297.9,533.7h-9v-141.7h24.9c6.7,0,12.5.5,17.3,1.6,4.8,1.1,9.2,3.3,13.2,6.7,4.2,3.6,7.4,8,9.5,13.1,2.1,5.1,3.2,10.4,3.2,16.1s-1,10.5-3.1,15.6c-2.1,5.1-5,9.3-8.7,12.4-4,3.4-8.6,5.7-13.8,7-5.2,1.3-11.1,2-17.6,2h-15.9v67.3ZM314.2,457.9c5.2,0,9.8-.5,13.7-1.6,3.9-1.1,7.6-3.1,10.9-6.1,6.1-5.6,9.2-12.7,9.2-21.2s-.9-9-2.7-13.1c-1.8-4.1-4.5-7.4-7.9-9.9-3.1-2.4-6.6-3.9-10.5-4.6-3.9-.7-8.6-1-14.2-1h-14.8v57.5h16.3Z"/>
    <path class="cls-2" d="M365.7,456c-.8-3.4-1.3-7-1.3-10.6s.8-9.2,2.4-13.6c1.6-4.4,3.9-8.4,6.9-11.9,3-3.5,6.5-6.3,10.7-8.3,4.1-2,8.6-3,13.5-3,10.3,0,18.7,3.4,25.1,10.2,6.4,6.8,9.5,15.4,9.5,25.7s-.4,8-1.3,11.6h9.1v-53.5h-8.4v15h-.4c-3.6-5.4-8.4-9.6-14.3-12.5-5.9-2.9-12.3-4.4-19-4.4s-12.2,1.1-17.4,3.4c-5.2,2.3-9.7,5.4-13.5,9.5-3.7,4.1-6.6,8.8-8.5,14.3-1.9,5.5-2.9,11.3-2.9,17.6s.4,7.2,1,10.6h8.6Z"/>
  </g>
  <g id="Layer_2" data-name="Layer 2" class="cls-8">
    <circle class="cls-7" cx="-1618.3" cy="-588.6" r="95.9"/>
    <circle class="cls-7" cx="-1350.8" cy="-594.1" r="90.4"/>
    <circle class="cls-7" cx="1832.9" cy="-593.8" r="89.3"/>
    <circle class="cls-7" cx="1564.6" cy="-593.8" r="89.3"/>
    <circle class="cls-7" cx="1830.9" cy="-322.1" r="83.6"/>
    <circle class="cls-7" cx="1585.6" cy="-580.1" r="83.6"/>
    <circle class="cls-7" cx="1564.5" cy="-315.1" r="89.3"/>
    <circle class="cls-7" cx="-2139" cy="-600.3" r="86.2"/>
    <circle class="cls-7" cx="-1884" cy="-587.9" r="95.5"/>
  </g>
</svg>