<?xml version="1.0" encoding="UTF-8"?>
<svg id="Layer_1" data-name="Layer 1" xmlns="http://www.w3.org/2000/svg" xmlns:xlink="http://www.w3.org/1999/xlink" viewBox="0 0 37 37">
  <defs>
    <style>
      .cls-1 {
        clip-path: url(#clippath-2);
      }

      .cls-2, .cls-3 {
        stroke-width: 0px;
      }

      .cls-3 {
        fill: none;
      }
    </style>
    <clipPath id="clippath">
      <rect class="cls-3" y="137" width="37" height="37"/>
    </clipPath>
    <clipPath id="clippath-2">
      <rect class="cls-3" y="0" width="37" height="37"/>
    </clipPath>
  </defs>
  <g class="cls-1">
    <path class="cls-2" d="M25.06,27.62c0-2.86,0-5.72,0-8.58,0-.42-.1-.59-.55-.57-.82.04-1.64,0-2.46.02-.3,0-.41-.08-.41-.4.01-2.15.01-4.3,0-6.45,0-.37.14-.46.48-.45.74.02,1.49,0,2.23,0,.69,0,.68,0,.69-.71.01-1.25-.06-2.5.06-3.74.2-2.26,1.02-4.23,3.02-5.53.98-.63,2.07-.95,3.22-.98,1.85-.03,3.7,0,5.55-.02.28,0,.39.08.39.38-.01,1.82-.01,3.64,0,5.45,0,.32-.11.4-.41.4-1.09-.02-2.18,0-3.27,0-.91,0-1.47.46-1.54,1.38-.07,1.01-.04,2.02-.06,3.03,0,.36.24.35.48.35,1.44,0,2.88,0,4.31,0,.61,0,.59.01.53.62-.16,1.63-.29,3.27-.43,4.9-.04.49-.08.98-.1,1.46,0,.31-.2.3-.42.3-1.38,0-2.75.01-4.12,0-.4,0-.5.11-.5.5.01,5.75,0,11.51.02,17.26,0,.45-.1.59-.57.58-1.85-.03-3.7-.03-5.55,0-.5,0-.59-.16-.59-.62.02-2.86,0-5.72,0-8.58Z"/>
  </g>
</svg>