<?xml version="1.0" encoding="UTF-8"?>
<svg id="Layer_1" data-name="Layer 1" xmlns="http://www.w3.org/2000/svg" viewBox="0 0 1000 626.49">
  <defs>
    <style>
      .cls-1, .cls-2 {
        stroke-width: 0px;
      }

      .cls-2 {
        fill: #1d1d1b;
      }
    </style>
  </defs>
  <path class="cls-2" d="M672.61,229.35c5.55,2.26,10.41,5.45,14.59,9.58,4.18,4.13,7.42,8.96,9.73,14.47,2.31,5.52,3.46,11.47,3.46,17.85s-1.16,12.34-3.46,17.85c-2.31,5.52-5.55,10.34-9.73,14.47-4.18,4.13-9.04,7.33-14.59,9.58-5.55,2.26-11.44,3.38-17.68,3.38s-11.91-1.19-17.4-3.57c-5.49-2.38-10.29-5.64-14.4-9.78-4.12-4.13-7.33-8.95-9.63-14.47-2.31-5.51-3.46-11.28-3.46-17.29s1.15-11.99,3.46-17.57c2.31-5.58,5.52-10.43,9.63-14.57,4.12-4.13,8.91-7.39,14.4-9.77,5.49-2.38,11.29-3.57,17.4-3.57s12.13,1.13,17.68,3.38ZM640.25,236.87c-4.43,2-8.26,4.76-11.51,8.27-3.24,3.51-5.77,7.55-7.57,12.12-1.81,4.58-2.71,9.3-2.71,14.19s.9,9.59,2.71,14.1c1.81,4.51,4.33,8.49,7.57,11.93,3.24,3.45,7.08,6.17,11.51,8.18,4.42,2.01,9.13,3.01,14.12,3.01,5.23,0,10.13-.94,14.68-2.82,4.55-1.88,8.57-4.51,12.06-7.89,3.49-3.38,6.17-7.36,8.04-11.93,1.87-4.57,2.81-9.43,2.81-14.57s-.94-10.21-2.81-14.85c-1.87-4.63-4.52-8.65-7.95-12.03-3.43-3.38-7.45-6.01-12.06-7.89-4.61-1.88-9.54-2.82-14.78-2.82s-9.7,1-14.12,3.01Z"/>
  <path class="cls-2" d="M292.82,247.2l-6.87-3.59h-18.74l4.29,2.28c.5.25,1.37.69,2.62,1.31,3.99,1.88,7.32,3.6,10.01,5.17,2.68,1.57,5.24,3.38,7.67,5.45,2.43,2.07,4.4,4.51,5.89,7.33,1.5,2.82,2.25,5.99,2.25,9.49,0,4.51-.94,8.83-2.81,12.97-1.87,4.14-4.43,7.74-7.67,10.81-3.24,3.07-6.95,5.45-11.13,7.14-4.18,1.69-8.58,2.54-13.19,2.54-8.11,0-15.03-2.29-20.76-6.86-5.74-4.57-10.16-10.81-13.28-18.7l-7.86,3.57c3.37,9.27,8.73,16.66,16.09,22.18,7.36,5.52,15.84,8.27,25.44,8.27,5.73,0,11.25-1.03,16.56-3.1,5.3-2.07,10.03-4.98,14.22-8.74,4.18-3.76,7.45-8.14,9.82-13.16,2.37-5.01,3.55-10.4,3.55-16.16,0-6.26-1.31-11.68-3.93-16.26-2.62-4.57-6.67-8.55-12.16-11.93Z"/>
  <path class="cls-2" d="M283.56,183.87c4.68,2.89,8.7,7.02,12.06,12.4l6.36-5.26c-1.77-3.22-3.94-6.08-6.5-8.59l-15-.16c1.06.48,2.09,1.01,3.08,1.61Z"/>
  <polygon class="cls-2" points="340.7 216.28 332.28 216.28 332.28 227.85 322.74 227.85 322.74 235.74 332.28 235.74 332.28 314.67 340.7 314.67 340.7 235.74 355.85 235.74 355.85 227.85 340.7 227.85 340.7 216.28"/>
  <path class="cls-2" d="M422.81,240.77v36.13c0,5.01-.25,9.3-.75,12.87-.5,3.57-1.5,6.76-2.99,9.58-1.5,2.82-3.77,5.07-6.83,6.77-3.06,1.69-7.08,2.54-12.06,2.54s-9.01-.85-12.06-2.54c-3.06-1.69-5.33-3.95-6.83-6.77-1.5-2.82-2.5-6.01-2.99-9.58-.5-3.57-.75-7.86-.75-12.87v-49.05h-8.42v52.06c0,6.14.31,11.06.94,14.75.62,3.7,2.06,7.11,4.3,10.24,2.87,3.88,6.61,6.8,11.22,8.74,4.61,1.94,9.48,2.91,14.59,2.91s9.97-.97,14.59-2.91c4.61-1.94,8.35-4.86,11.22-8.74,2.25-3.13,3.68-6.55,4.3-10.24.62-3.69.93-8.61.93-14.75v-39.14h-8.42Z"/>
  <path class="cls-1" d="M582.18,206.61c2.12,0,3.93-.75,5.43-2.26,1.49-1.51,2.24-3.32,2.24-5.45s-.75-3.95-2.24-5.45c-1.5-1.51-3.31-2.26-5.43-2.26s-3.93.75-5.42,2.26c-1.5,1.5-2.25,3.32-2.25,5.45s.75,3.95,2.25,5.45c1.49,1.5,3.3,2.26,5.42,2.26Z"/>
  <rect class="cls-1" x="577.88" y="267.42" width="8.42" height="47.25"/>
  <path class="cls-2" d="M721.24,369.58c-.22-.49-.43-.98-.63-1.49-1.81-4.51-2.71-9.21-2.71-14.1s.9-9.61,2.71-14.19c1.81-4.57,4.33-8.61,7.57-12.12,3.24-3.51,7.08-6.26,11.51-8.27,4.42-2,9.13-3.01,14.12-3.01,5.23,0,10.16.94,14.78,2.82,4.61,1.88,8.63,4.51,12.06,7.89,3.43,3.38,6.08,7.39,7.95,12.03,1.87,4.64,2.81,9.58,2.81,14.85s-.94,9.99-2.81,14.57c-.14.34-.3.68-.44,1.01h9.02c1.77-4.92,2.65-10.18,2.65-15.77,0-6.39-1.16-12.34-3.46-17.85-2.31-5.51-5.55-10.34-9.73-14.47-4.18-4.13-9.04-7.33-14.59-9.58-5.55-2.26-11.44-3.38-17.68-3.38s-11.91,1.19-17.4,3.57c-5.49,2.38-10.29,5.64-14.4,9.77-4.12,4.13-7.33,8.99-9.63,14.57-2.31,5.58-3.46,11.43-3.46,17.57,0,5.4.94,10.59,2.79,15.58h8.97Z"/>
  <g>
    <path class="cls-2" d="M631.39,384.42h12.43c-1.81-1.35-3.49-2.88-5.05-4.59-3.24-3.57-5.73-7.61-7.48-12.12-1.75-4.51-2.62-9.21-2.62-14.1s.9-9.58,2.71-14.09c1.81-4.51,4.33-8.49,7.57-11.94,3.24-3.44,7.04-6.17,11.41-8.17,4.36-2,9.04-3.01,14.03-3.01,11.72,0,21.88,4.7,30.49,14.09v-11.27c-8.35-7.14-18.4-10.71-30.12-10.71-6.24,0-12.06,1.16-17.49,3.48-5.43,2.32-10.16,5.54-14.22,9.68-4.05,4.14-7.2,8.96-9.44,14.47-2.25,5.52-3.37,11.34-3.37,17.48s1.09,12.19,3.27,17.76c1.92,4.91,4.54,9.25,7.86,13.04Z"/>
    <path class="cls-2" d="M686.28,384.42h9.73v-8.81c-2.84,3.48-6.09,6.41-9.73,8.81Z"/>
  </g>
  <path class="cls-2" d="M460.12,277.8c-.47-2.62-.71-5.31-.71-8.06,0-4.63.81-9.18,2.43-13.63,1.62-4.44,3.93-8.42,6.92-11.93,2.99-3.51,6.55-6.26,10.66-8.27,4.11-2,8.6-3.01,13.47-3.01,10.35,0,18.7,3.41,25.06,10.24,6.36,6.83,9.54,15.38,9.54,25.66,0,3.14-.26,6.14-.76,9h8.62v-76.18h-8.42v40.31h-.38c-3.62-5.39-8.39-9.55-14.31-12.5-5.93-2.94-12.25-4.42-18.99-4.42-6.36,0-12.16,1.13-17.4,3.38-5.24,2.26-9.73,5.42-13.47,9.49-3.74,4.07-6.58,8.83-8.51,14.28-1.93,5.45-2.9,11.31-2.9,17.57,0,2.75.2,5.44.59,8.06h8.54Z"/>
  <path class="cls-2" d="M457.34,441.57h-8.98v-141.7h24.88c6.73,0,12.5.54,17.3,1.6,4.8,1.06,9.19,3.29,13.18,6.67,4.24,3.64,7.42,7.99,9.54,13.06,2.12,5.07,3.18,10.43,3.18,16.07,0,5.26-1.03,10.46-3.09,15.6-2.06,5.14-4.96,9.27-8.7,12.4-3.99,3.38-8.6,5.73-13.84,7.05-5.23,1.32-11.1,1.97-17.58,1.97h-15.9v67.28ZM473.61,365.83c5.23,0,9.82-.53,13.75-1.6,3.93-1.06,7.57-3.1,10.94-6.11,6.11-5.64,9.17-12.71,9.17-21.24,0-4.63-.91-8.99-2.71-13.06-1.81-4.07-4.46-7.36-7.95-9.87-3.12-2.38-6.61-3.91-10.47-4.6-3.87-.69-8.61-1.03-14.22-1.03h-14.78v57.51h16.27Z"/>
  <path class="cls-2" d="M525.18,363.89c-.83-3.43-1.25-6.98-1.25-10.65,0-4.63.81-9.18,2.43-13.63,1.62-4.44,3.93-8.42,6.92-11.93,2.99-3.51,6.55-6.26,10.66-8.27,4.11-2,8.6-3.01,13.47-3.01,10.35,0,18.7,3.41,25.06,10.24,6.36,6.83,9.54,15.38,9.54,25.66,0,4.1-.43,7.96-1.29,11.59h9.14v-53.5h-8.42v15.03h-.38c-3.62-5.39-8.39-9.55-14.31-12.5-5.93-2.94-12.25-4.42-18.99-4.42-6.36,0-12.16,1.13-17.4,3.38-5.24,2.26-9.73,5.42-13.47,9.49-3.74,4.07-6.58,8.83-8.51,14.28-1.93,5.45-2.9,11.31-2.9,17.57,0,3.67.35,7.22,1.04,10.65h8.64Z"/>
</svg>