<?xml version="1.0" encoding="UTF-8"?>
<svg id="Layer_1" data-name="Layer 1" xmlns="http://www.w3.org/2000/svg" viewBox="0 0 1000 626.49">
  <defs>
    <style>
      .cls-1 {
        fill: #ffcc05;
        stroke-width: 0px;
      }
    </style>
  </defs>
  <path class="cls-1" d="M818.97,151.43c-.25.43-.62.84-.74,1.3-.35,1.32-.18,2.95-1.01,3.9-.7.8-2.62.65-3.81,1.24-1.44.71-2.01,2.05-1.92,3.54.05.79-.09,1.38-1.22,1.26-.96-.1-2.08.1-2.01-1.31.03-.58-.02-1.2-.2-1.76-.27-.79-.04-1.05.87-1.05.64,0,1.32-.1,1.91-.32,1.65-.63,2.47-2.04,2.19-3.6-.26-1.46-1.43-2.5-3.06-2.72-1.74-.23-3.29.52-4.01,1.99-.17.35-.21.76-.36,1.13-.21.5.65,1.49-.85,1.42-2.49-.12-2.96-.38-3.06-1.79-.05-.74-.08-1.37,1.07-1.43.64-.03,1.31-.21,1.89-.46,1.73-.73,2.62-2.16,2.45-3.85-.16-1.63-1.14-2.75-2.82-3.35-2.59-.92-2.8-1.24-2.72-3.56.03-.78.31-1.07,1.13-1.03.22.01.45,0,.66-.05,2.23-.48,3.61-1.96,3.51-3.72-.11-1.77-1.58-3.35-3.85-3.43-1.82-.06-2.09-.51-1.52-1.87.11-.26.12-.62.01-.88-.61-1.52-.35-2.16,1.74-2.22,2.12-.07,3.36-1.67,3.29-3.45-.08-1.79-1.59-3.16-3.6-3.23-1.98-.07-3.49,1.05-3.93,2.94-.07.29-.06.59-.03.89.1,1.05-.48,1.01-1.42.9-1.05-.12-2.22-.14-3.2.15-2.36.7-3.58,2.33-3.43,4.54.1,1.46-.14,2.04-1.99,2.16-2.23.14-3.6,1.77-3.65,3.59-.05,1.72,1.15,3.14,3.15,3.72.31.09.68.07.96.2.48.23,1.34.72,1.3.79-.45.89.58,2.34-1.2,2.73-.21.05-.44.04-.65.09-3.39.85-4.77,2.65-4.07,5.67.27,1.18.25,1.72-1.27,1.42-.21-.04-.44-.05-.66-.03-1.99.17-3.41,1.29-3.66,2.88-.24,1.51.88,3.42,2.71,3.56,2.4.18,2.33,1.06,2.09,2.77-.17,1.21-.02,1.88-1.77,2.1-2.5.32-3.76,1.87-3.78,3.83-.02,1.95,1.27,3.62,3.69,3.94,1.72.23,1.91.76,1.73,2.07-.14.97-.79.96-1.54,1.16-3.54.96-4.61,2.11-4.57,5.24.01,1.23-.24,1.61-1.69,1.81-3.06.42-4.51,2.58-3.56,4.9.64,1.57,1.98,2.38,3.81,2.35,1.26-.02,1.43.41,1.26,1.42-.23,1.3.2,2.55-2.26,2.68-2.53.13-3.97,2.28-3.79,4.48.18,2.24,1.86,3.72,4.51,3.99,2.15.22,2.27.44,2.15,2.31-.06.88-.54.84-1.23.93-1.29.17-2.55.48-3.83.73.15-.57.36-1.13.44-1.7.31-2.18-1.19-3.95-3.5-4.16-2.13-.19-4.08,1.3-4.24,3.24-.17,2.13,1.44,3.69,3.94,3.76.75.02,1.51-.07,2.27-.11-.1.38-.29.76-.3,1.15-.03,1.99-.48,3.23-3.32,3.32-2.33.07-3.55,2.09-3.39,4.68.07,1.15,0,1.47-1.45,1.44-3.02-.05-4.83,1.43-4.96,3.68-.13,2.35,1.6,3.86,4.83,4.19.59.06,1.58-.22,1.25.75-.27.77.62,2.1-1.29,2.25-2.02.15-2.21.12-2.69-1.7-.59-2.23-2.35-3.42-4.74-3.2-2.29.21-4.02,1.85-3.88,4.04.08,1.24.52,1.89-1.58,1.58-3.1-.47-5.24,1.33-5.32,4.26-.04,1.35-.4,1.59-1.8,1.59-1.28,0-2.55.48-3.82.75.26-.74.67-1.48.74-2.23.18-2.03-1.54-3.6-3.78-3.57-2.2.03-3.93,1.73-3.73,3.66.21,2.04,2.43,3.5,4.69,3.01.73-.16,1.39-.55,2.08-.84-2.16,5.09-.66,4.07-6.93,6.36.37-.71.88-1.39,1.09-2.14.55-1.95-.86-3.8-3.07-4.18-2.31-.39-4.42,1.12-4.54,3.25-.11,2.06,1.53,3.69,3.81,3.61.95-.03,1.89-.42,2.84-.65-.26.94-.6,1.88-.77,2.83-.36,1.98-.45,2.03-2.49,1.93-.98-.05-1.37-.34-1.34-1.22.02-.58-.05-1.2-.25-1.75-.68-1.87-2.65-3.05-4.82-2.94-2.3.11-3.97,1.47-4.47,3.69-.2.86.32,1.95-1.6,1.9-1.57-.05-2.18-.12-2.35-1.78-.23-2.34-2.46-3.8-4.76-3.69-2.35.11-4.18,1.65-4.31,4.08-.08,1.42-.58,1.44-1.91,1.44-3.12,0-4.91,1.44-5.3,4.24-.17,1.18-.43,1.7-1.87,1.8-2.79.18-4.44,1.71-4.71,4.17-.14,1.26-.78,1.37-1.89,1.42-1.19.06-1.34-.46-1.58-1.36-.96-3.49-4.13-4.93-7.07-3.34-1.3.7-1.99,1.75-2.28,3.1-.35,1.61-.77,1.73-3.3,1.69-1.52-.02-.94-1.01-1.09-1.66-.53-2.18-2.07-3.35-4.34-3.29-2.09.06-3.76,1.4-4.06,3.26-.35,2.12,1.14,3.79,3.9,4.33.77.15,1.95-.25,1.65,1.13-.21.98.2,2.34-1.74,2.28-.32-.01-.65.1-.97.18-.89.22-1.56.25-1.26-.9.1-.37.07-.79-.02-1.17-.48-1.98-2.58-3.31-4.63-2.95-2.19.38-3.56,2.1-3.21,4.16.13.76.45,1.5.68,2.25l.06-.06c-.4-.15-.8-.3-1.21-.43-3.71-1.28-6.27.08-6.83,3.6-.09.58.37,1.61-1,1.32-.92-.19-2.41.42-2.5-1.22-.02-.49-.13-.98-.24-1.46-.18-.77.11-1.08,1.01-1,.54.05,1.11.03,1.64-.08,1.92-.4,3.25-1.99,3.14-3.69-.11-1.77-1.88-3.37-3.85-3.5-1.87-.12-3.68,1.08-4.17,2.77-.06.19-.08.39-.12.58-.13.62-.15,1.72-.4,1.76-.82.14-1.74-.04-2.59-.21-.63-.12-1.36-3.2-.81-3.38.69-.23,1.53-.09,2.26-.25,1.94-.44,3.19-1.99,3.08-3.73-.1-1.7-1.61-3.2-3.49-3.47-2.34-.34-4.26,1.1-4.74,3.53-.11.54.48,1.71-.92,1.3-1.12-.33-3.08.77-3.24-1.5-.13-1.76-.3-1.75,1.72-1.95,2.39-.23,4.01-1.67,4.05-3.59.04-2.02-1.79-3.9-4.22-3.67-2.15.21-2.07-.5-1.69-1.84.11-.37.05-.79.02-1.18-.05-.7.17-1.14,1.07-1.11,3.38.13,5.16-1.41,5.41-4.35.08-.97.6-1.02,1.47-1.11,4.14-.43,5.22-1.41,5.52-5.25.08-1.04.56-.99,1.39-1.08,3.56-.42,4.67-1.5,4.87-4.81.05-.85.12-1.14,1.22-1.2,4.06-.22,5.09-1.15,5.36-4.89.08-1.08.57-.96,1.42-1,3.93-.2,5.64-1.88,5.07-5.32-.25-1.51.44-1.05,1.36-1,2.39.13,4.08-.81,4.73-2.48.86-2.22-.43-4.48-3.12-5.01-1.32-.26-2.4-.28-2.01-1.88.24-.96,1.48-1.68,3.04-1.53.3.03.69.38.8.66.21.55.14,1.19.38,1.72.69,1.59,2.51,2.47,4.25,2.14,1.65-.32,2.91-1.63,3.01-3.15.11-1.69-1.02-3.04-2.91-3.46-.42-.09-.88-.12-1.31-.08-1.04.1-1.01-.36-.82-1.06.15-.57.02-1.22.26-1.75.19-.43.69-1,1.14-1.06,3.21-.45,4.93-2.03,4.97-4.97,0-.7.2-.99,1.05-1.16,4.53-.89,4.87-1.22,5.37-5.06.09-.71.24-1.12,1.13-1.01.33.04.67.05.99,0,2.64-.35,4.31-1.88,4.46-4.06.15-2.33-1.37-4.01-4.16-4.59-1.79-.38-2.15-.8-1.85-1.95.3-1.17,1.4-.67,2.14-.92,1.38-.45,2.12-.49,1.99,1.31-.12,1.69,1.23,2.84,2.88,3.19,1.44.31,2.61-.17,3.55-1.11,1.07-1.07,1.17-2.35.52-3.6-.74-1.42-2.12-1.95-3.82-1.8-1.13.1-1.36-.33-1-1.19.04-.09.11-.19.1-.28-.14-2,.36-3.28,3.05-3.64,1.96-.26,2.88-2.14,2.67-3.94-.21-1.86-1.63-3.11-3.9-3.45-.67-.1-1.86-.25-1.88-.46-.11-.95.08-1.94.26-2.91.03-.14.54-.24.84-.3,4.32-.94,4.62-1.19,5.17-4.91.1-.7.24-1.05,1.14-1.02,3.28.1,5.16-1.29,5.61-4.26.05-.36.8-.85,1.26-.89.77-.07,1.85-.42,2.17.74.08.29.09.59.19.87.84,2.42,2.57,3.62,5,3.49,2.4-.13,4.02-1.42,4.45-4.02.21-1.27.75-1.36,1.9-1.28.95.07,1.24.38,1.44,1.22.27,1.13.89,2.18,1.37,3.27-.93-.24-1.85-.64-2.8-.69-1.96-.11-3.58,1.33-3.65,3.05-.07,1.78,1.75,3.42,3.73,3.36,1.92-.06,3.53-1.51,3.41-3.27-.06-.85-.5-1.68-.77-2.51,2.72,1.88,5.4,1.51,8.06-.12-.25.74-.61,1.47-.73,2.22-.29,1.79.94,3.15,2.84,3.3,1.89.15,3.5-1.07,3.59-2.73.1-1.75-1.54-3.16-3.6-3.04-.75.04-1.48.23-2.22.35.38-.92,1.01-1.83,1.08-2.77.11-1.5,1.06-1.66,2.38-1.81,1.2-.14,1.63.14,1.53,1.21-.03.38.11.79.25,1.16.64,1.71,2.38,2.72,4.33,2.55,1.8-.16,3.33-1.39,3.69-2.96.39-1.7-.56-3.42-2.36-4.15-.49-.2-1.05-.26-1.58-.35-.67-.11-1.73.23-1.42-.98.24-.94-.34-2.29,1.68-2.31,1.22-.02,2.19-.51,2.28,1.34.12,2.27,1.89,3.45,4.14,3.35,1.93-.08,3.57-1.4,3.86-3.11.31-1.84-1.05-3.81-3.4-4.05-1.89-.19-2.24-.84-1.77-2.19.16-.45.64-.95,1.12-1.13,1.1-.42,2.28-.67,3.43-.99-.07.68-.24,1.37-.18,2.05.13,1.76,1.57,2.93,3.44,2.89,1.84-.04,3.36-1.39,3.36-3.01,0-1.7-1.67-3.15-3.65-3.07-.75.03-1.49.28-2.23.44.12-.17.29-.32.35-.5.4-1.21.42-2.71,1.25-3.57.73-.75,2.43-.66,3.58-1.17,1.6-.71,2.35-2.08,2.55-3.61.13-1.01.32-1.59,1.7-1.66,2.97-.16,4.55-1.84,4.92-4.38.16-1.07.48-1.51,1.77-1.59,2.82-.17,4.38-1.76,4.79-4.16.19-1.12.68-1.42,1.86-1.54,2.86-.3,4.5-1.83,5.03-4.38.1-.47.52-1.09.97-1.26.78-.3,1.71-.32,2.58-.38.12,0,.32.45.41.72.21.66.25,1.38.58,1.98.72,1.31,2.39,2,3.85,1.73,1.68-.31,2.92-1.62,2.98-3.14.07-1.6-.96-2.85-2.7-3.3-.11-.03-.22-.04-.32-.06-.64-.08-1.76-.05-1.83-.27-.19-.6.03-1.32.16-1.99.2-.97,1.76-1.79,2.97-1.56.25.05.56.3.62.51.14.47.06,1,.2,1.46.55,1.81,2.15,2.83,4.16,2.72,1.81-.1,3.34-1.28,3.74-2.88.41-1.64-.62-3.32-2.5-4.07-.3-.12-.63-.27-.94-.26-1.46.04-1.84-.57-1.68-1.82.19-1.52,1.29-2.38,2.98-2.07.21.04.5.34.52.55.07.58-.08,1.2.05,1.76.43,1.87,2.23,3.16,4.25,3.13,1.91-.03,3.55-1.2,4.06-2.95.19-.64.18-1.8.49-1.86,1.25-.26,2.59-.27,3.87-.17.27.02.53.9.67,1.42.73,2.71,3,4.03,5.56,3.11,1.82-.66,2.81-1.95,2.63-3.72-.14-1.33.28-1.37,1.62-1.17,1.48.22,2.56.16,2.7,2.02.17,2.36,2.03,3.59,4.63,3.93.57.07,1.47.31,1.57.62.25.83.22,1.75.08,2.61-.02.15-1.16.15-1.78.2-1.97.16-3.29,1.12-3.93,2.74-.55,1.41-.27,2.85.96,3.83.84.68,2.09.94,3.15,1.41.49.22,1.4.6,1.36.72-.26.85.56,2.13-1.08,2.47-.75.15-1.55.21-2.24.48-2.25.85-3.4,2.82-2.82,5.41.3,1.35.04,1.37-1.33,1.32-2.3-.09-3.75,1.01-4.13,2.69-.36,1.6.57,3.26,2.25,3.89.49.19,1.07.29,1.61.27,1.26-.04,1.48.51,1.27,1.47-.1.48-.21,1.02-.07,1.47.47,1.51-.29,1.72-1.79,1.94-2.49.37-3.68,2-3.42,4.01.27,1.99,1.89,3.31,4.44,3.01,2.06-.25,1.94.38,1.49,1.67-.16.45-.16,1-.04,1.46.35,1.3-.21,1.35-1.52,1.32-2.79-.08-4.61,1.35-4.89,3.47-.3,2.24,1.22,3.91,4.13,4.51.69.14,1.7-.13,1.49,1.01-.17.9.2,2.01-1.49,2.21-1.17.14-2.29.64-3.43.98.14-.86.43-1.72.38-2.57-.08-1.51-1.74-2.74-3.38-2.67-1.83.08-3.22,1.56-3.06,3.23.16,1.6,1.54,2.72,3.36,2.57.95-.08,1.87-.43,2.81-.66ZM800.31,119.61c.04-2.07-1.78-3.76-4.09-3.8-2.3-.04-4.21,1.61-4.25,3.67-.04,2.07,1.8,3.78,4.1,3.81,2.29.04,4.2-1.63,4.24-3.69ZM806.27,113.71c.06-1.79-1.47-3.22-3.47-3.24-2.01-.02-3.57,1.39-3.55,3.18.02,1.68,1.45,3.01,3.32,3.1,2,.1,3.64-1.25,3.7-3.04ZM687.01,196.73c0-1.5-1.73-3.04-3.4-3.04-1.78,0-3.32,1.41-3.32,3.05,0,1.67,1.46,2.99,3.33,2.98,1.82,0,3.4-1.4,3.4-2.99ZM792.67,125.49c0-1.56-1.33-2.78-3.08-2.82-1.72-.03-3.15,1.16-3.23,2.68-.08,1.65,1.4,3,3.24,2.97,1.7-.03,3.07-1.3,3.07-2.83ZM825.84,107.76c.05-1.55-1.31-2.87-3.04-2.96-1.74-.09-3.23,1.08-3.35,2.64-.14,1.73,1.24,3.08,3.16,3.08,1.76,0,3.18-1.21,3.23-2.77ZM693.42,250.06c-.08-1.53-1.56-2.78-3.26-2.75-1.84.03-3.28,1.5-3.11,3.16.16,1.57,1.62,2.67,3.39,2.57,1.72-.1,3.06-1.44,2.98-2.98ZM776.36,175.82c1.71-.03,3.1-1.34,3.06-2.89-.04-1.57-1.47-2.79-3.22-2.75-1.72.04-3.13,1.36-3.07,2.9.05,1.54,1.52,2.78,3.23,2.75ZM822.61,93.03c-1.74,0-3.13,1.25-3.12,2.79,0,1.51,1.44,2.8,3.13,2.8,1.71,0,3.1-1.25,3.1-2.81,0-1.6-1.32-2.78-3.11-2.78ZM743.29,229.22c1.67-.06,3.02-1.42,2.92-2.95-.09-1.45-1.37-2.54-3-2.55-1.71-.01-3.17,1.28-3.14,2.77.03,1.46,1.6,2.79,3.22,2.74ZM653.52,238.19c-.07-1.6-1.47-2.71-3.27-2.59-1.6.11-2.87,1.3-2.87,2.7,0,1.47,1.53,2.82,3.16,2.79,1.7-.03,3.04-1.35,2.98-2.91ZM677.13,247.44c-1.76-.07-3.24,1.13-3.27,2.68-.04,1.52,1.42,2.86,3.11,2.87,1.59,0,2.94-1.12,3.06-2.57.14-1.63-1.1-2.9-2.9-2.98ZM643.77,241.53c-1.73.05-3.11,1.38-3,2.89.11,1.49,1.71,2.74,3.35,2.61,1.57-.12,2.79-1.34,2.79-2.78,0-1.6-1.36-2.78-3.14-2.72ZM785.96,107.53c-.09-1.59-1.54-2.72-3.32-2.59-1.61.12-2.87,1.33-2.86,2.75.01,1.49,1.55,2.82,3.2,2.78,1.71-.04,3.06-1.38,2.98-2.94ZM693.13,190.74c-.04-1.47-1.29-2.56-2.93-2.55-1.6,0-2.94,1.16-2.98,2.56-.04,1.44,1.57,2.83,3.16,2.75,1.57-.09,2.79-1.31,2.76-2.75ZM719.61,238.45c.08-1.5-1.05-2.65-2.7-2.75-1.77-.1-3.24,1.1-3.23,2.63.02,1.32,1.47,2.64,2.94,2.68,1.56.04,2.91-1.11,2.99-2.56ZM703.41,152.54c-1.61.02-2.97,1.2-2.99,2.61-.02,1.43,1.64,2.85,3.22,2.75,1.57-.1,2.81-1.35,2.76-2.8-.05-1.48-1.33-2.58-2.99-2.56ZM765.87,208.67c.03-1.47-1.28-2.63-2.92-2.58-1.52.04-2.66,1.09-2.7,2.47-.04,1.4,1.04,2.47,2.58,2.56,1.67.1,3.01-.98,3.04-2.45ZM659.95,232.37c0-1.45-1.29-2.58-2.91-2.54-1.61.04-2.84,1.24-2.76,2.69.07,1.33,1.28,2.38,2.76,2.41,1.6.03,2.91-1.11,2.91-2.56ZM785.73,143.35c.04-1.44-1.31-2.63-2.92-2.58-1.5.05-2.67,1.12-2.7,2.47-.04,1.37,1.06,2.46,2.58,2.56,1.64.1,3.01-1,3.04-2.45ZM710,146.75c-1.44.04-2.66,1.24-2.62,2.56.04,1.39,1.25,2.39,2.8,2.34,1.5-.05,2.73-1.21,2.66-2.51-.06-1.28-1.43-2.43-2.85-2.39ZM769.69,188.35c-1.43-.02-2.7,1.17-2.68,2.5.03,1.25,1.09,2.25,2.48,2.33,1.44.08,2.85-1.04,2.91-2.3.05-1.21-1.35-2.51-2.71-2.53ZM699.51,244.19c-.04-1.26-1.51-2.46-2.88-2.35-1.32.1-2.4,1.21-2.38,2.44.02,1.42,1.22,2.39,2.81,2.27,1.36-.1,2.48-1.18,2.44-2.36ZM778.95,113.58c-.02-1.25-1.49-2.47-2.85-2.38-1.31.09-2.41,1.2-2.4,2.42,0,1.42,1.19,2.4,2.78,2.3,1.36-.08,2.49-1.16,2.47-2.34ZM765.79,125.34c-.1-1.24-1.53-2.4-2.88-2.33-1.4.07-2.61,1.31-2.54,2.59.07,1.35,1.31,2.34,2.83,2.27,1.45-.07,2.69-1.28,2.59-2.53ZM769.54,117.23c-1.38.06-2.43,1.09-2.41,2.36.03,1.41,1.25,2.38,2.82,2.23,1.38-.13,2.39-1.21,2.28-2.45-.11-1.18-1.39-2.2-2.69-2.14ZM816.07,135.09c-1.38-.04-2.5.9-2.58,2.14-.08,1.38,1.07,2.43,2.6,2.39,1.38-.04,2.45-1.02,2.45-2.26,0-1.21-1.12-2.24-2.48-2.27ZM666.32,226.37c-.05-1.18-1.26-2.25-2.57-2.25-1.5,0-2.67,1.17-2.54,2.53.13,1.26,1.26,2.13,2.69,2.06,1.39-.07,2.46-1.1,2.41-2.33ZM798.31,107.36c-.14-.93-.83-1.58-2.12-1.63-1.27-.05-2.32.93-2.25,2.06.06.98,1.08,1.87,2.16,1.88,1.25.02,2.29-.97,2.21-2.31ZM696.87,182.89c-1.23-.01-2.33.95-2.3,2.02.03,1.05,1.23,2.09,2.39,1.95,1.2-.14,1.99-.74,2.08-1.9.09-1.16-.87-2.06-2.17-2.08ZM703.5,240.27c1.34-.06,2.3-1.05,2.12-2.2-.18-1.15-.97-1.72-2.24-1.71-1.28.01-2.24,1.03-2.06,2.17.18,1.14,1,1.68,2.19,1.73ZM811.45,142.72c-.51-.31-1.24-1.03-2.12-1.23-1.05-.24-1.96.79-1.94,1.85.02,1.07.87,1.79,2.08,1.76,1.17-.04,2.06-.86,1.98-2.37ZM672.41,220.1c-.53-.36-1.24-1.18-2.09-1.34-1.01-.18-1.79.57-1.86,1.6-.07,1.03.52,1.66,1.64,1.84,1.08.17,2.22-.66,2.32-2.1ZM818.64,125.34c-1.21-.72-1.89-1.38-2.69-1.54-1.03-.21-2,.95-1.8,1.94.2,1.02.99,1.65,2.06,1.37.76-.2,1.35-.94,2.44-1.76ZM778.91,161.25c-1.16-.83-1.77-1.59-2.53-1.74-1.05-.2-1.85.46-1.91,1.52-.06,1.04.59,1.81,1.71,1.68.78-.09,1.48-.76,2.74-1.46ZM809.88,97.5c.35-.43,1.14-1.01,1.27-1.69.19-.97-.62-1.64-1.75-1.64-1.1,0-1.83.56-1.84,1.61,0,1.04.66,1.57,2.31,1.71ZM705.26,167.47c-.13-1.56-.9-2.18-1.96-1.94-.64.15-1.43.89-1.57,1.48-.23.98.6,1.76,1.7,1.59.75-.12,1.38-.84,1.82-1.13ZM809.48,129.26c-.87.97-1.57,1.45-1.78,2.07-.29.82.86,1.89,1.74,1.6.66-.21,1.44-.95,1.51-1.52.07-.52-.73-1.13-1.48-2.15ZM758.78,214.31c-1.22-.56-1.98-1.2-2.53-1.08-.6.13-1,.97-1.49,1.5.61.44,1.2,1.21,1.83,1.23.55.02,1.13-.8,2.2-1.65ZM811.01,120.05c-.09-1.41-.67-2.06-1.69-1.87-.6.11-1.57.91-1.49,1.19.19.63.84,1.45,1.46,1.58.53.11,1.28-.65,1.72-.9ZM663.91,251.78c.52-.78,1.1-1.29,1.09-1.78,0-.35-.82-.69-1.27-1.03-.42.46-1.05.87-1.19,1.38-.08.28.68.74,1.37,1.43ZM784.98,131.47c-1.05-.62-1.6-1.16-2.19-1.2-.35-.03-1.07.7-1.09,1.12-.02.39.66,1.13,1.03,1.13.58,0,1.16-.5,2.25-1.04ZM789.52,112.07c-.53.62-1.17,1.04-1.17,1.46,0,.41.66.81,1.03,1.22.5-.41,1.19-.75,1.4-1.26.1-.25-.68-.8-1.26-1.42ZM658.76,256.22c-.66-.52-1.09-1.12-1.55-1.14-.41-.01-1.14.58-1.19.96-.04.34.61,1.03,1.02,1.07.44.05.96-.47,1.72-.89ZM749.62,221.96c.64-.64,1.36-1.06,1.33-1.42-.04-.41-.69-.89-1.2-1.09-.2-.08-1.03.54-1.04.85,0,.45.47.91.91,1.66ZM751.26,149.36c-.64-.47-1.04-.94-1.51-1.02-.28-.05-.7.51-1.06.79.37.37.68.88,1.14,1.05.25.09.76-.42,1.43-.82ZM804.18,101.76c-.59-.43-.98-.92-1.35-.92-.39,0-.78.48-1.17.75.39.38.71.88,1.19,1.07.2.08.73-.48,1.33-.91ZM676.97,213.39c-.46.53-1.02.89-.98,1.18.05.34.62.63.97.93.33-.31.88-.59.92-.93.04-.31-.48-.66-.91-1.19ZM729.54,156.54c.27-.14.54-.28.81-.42.15-.38.44-.78.4-1.14-.03-.23-.68-.64-.83-.57-.38.17-.85.55-.89.88-.05.4.32.83.51,1.25ZM769.47,177.71c-.37.66-.84,1.12-.73,1.38.14.33.74.59,1.18.67.15.03.69-.59.63-.82-.09-.37-.55-.66-1.08-1.23ZM756.43,142.28c-.4.39-.93.72-.87.89.13.37.55.67.85,1,.29-.33.7-.62.81-.99.06-.18-.43-.5-.79-.89ZM817.33,113.48c-.65-.32-1.1-.73-1.43-.67-.36.07-.61.58-.91.9.37.27.73.76,1.11.76.33,0,.68-.51,1.24-1ZM810.7,107.84c-.55-.46-.89-.96-1.23-.96-.37,0-.75.45-1.12.71.3.34.55.86.92.95.32.07.78-.36,1.43-.7ZM650.63,249.01c-.54.56-1.13.92-1.08,1.18.06.34.6.67,1.02.85.13.05.76-.44.76-.68,0-.36-.35-.72-.7-1.35ZM723.74,231.63c-.27-.15-.54-.3-.8-.45-.12.37-.39.76-.33,1.1.05.29.43.59.75.77.09.05.63-.28.66-.48.05-.3-.17-.63-.28-.94ZM731.11,226.33c-.53-.22-.8-.42-1.06-.41-.21,0-.55.25-.58.42-.03.17.25.5.43.53.21.03.47-.19,1.21-.54ZM763.07,197.43c.26-.38.47-.57.52-.79.02-.11-.29-.4-.36-.38-.25.08-.57.22-.64.41-.05.15.23.39.49.76ZM663.98,238.32c-.14-.08-.28-.18-.43-.27-.06.07-.17.16-.15.21.05.13.16.25.25.37.11-.1.22-.21.34-.31ZM657.16,243.85c-.15.09-.39.16-.42.27-.03.14.11.32.17.48.22-.12.43-.24.65-.36-.13-.13-.27-.26-.4-.39ZM703.97,178.75c-.26-.07-.51-.17-.76-.19-.05,0-.22.44-.18.46.21.12.46.2.71.23.04,0,.13-.27.23-.5ZM763.05,137.69c.07-.13.16-.25.2-.39.01-.03-.17-.17-.2-.15-.14.07-.25.17-.38.26.12.09.25.19.38.28ZM710.39,232.29c-.17-.08-.34-.16-.51-.24-.07.16-.15.33-.22.49.17.06.36.19.51.16.11-.02.15-.26.22-.41ZM670.62,232.41c-.14-.09-.28-.19-.44-.27-.02,0-.19.14-.17.17.05.14.16.26.24.39.12-.1.24-.2.37-.3ZM683.91,208.54c-.17-.08-.34-.16-.52-.23-.07.16-.14.33-.21.49.17.06.37.19.51.16.11-.02.15-.27.22-.41Z"/>
</svg>