<?xml version="1.0" encoding="UTF-8"?>
<svg id="Layer_1" data-name="Layer 1" xmlns="http://www.w3.org/2000/svg" viewBox="0 0 481.89 127.56">
  <defs>
    <style>
      .cls-1, .cls-2 {
        stroke-width: 0px;
      }

      .cls-2 {
        fill: #1d1d1b;
      }
    </style>
  </defs>
  <path class="cls-2" d="M193.57,20.24c2.33.95,4.36,2.28,6.11,4.02,1.75,1.73,3.11,3.75,4.08,6.06.97,2.31,1.45,4.8,1.45,7.48s-.48,5.17-1.45,7.48c-.97,2.31-2.33,4.33-4.08,6.06-1.75,1.73-3.79,3.07-6.11,4.02-2.33.95-4.79,1.42-7.41,1.42s-4.99-.5-7.29-1.5c-2.3-1-4.31-2.36-6.03-4.1-1.72-1.73-3.07-3.75-4.04-6.06-.97-2.31-1.45-4.73-1.45-7.25s.48-5.03,1.45-7.36c.97-2.34,2.31-4.37,4.04-6.1,1.72-1.73,3.74-3.1,6.03-4.09,2.3-1,4.73-1.5,7.29-1.5s5.08.47,7.41,1.42ZM180.01,23.39c-1.86.84-3.46,2-4.82,3.46-1.36,1.47-2.42,3.16-3.17,5.08-.76,1.92-1.14,3.9-1.14,5.95s.38,4.02,1.14,5.91c.76,1.89,1.81,3.56,3.17,5,1.36,1.44,2.97,2.59,4.82,3.43,1.85.84,3.83,1.26,5.92,1.26,2.19,0,4.24-.39,6.15-1.18,1.91-.79,3.59-1.89,5.06-3.31,1.46-1.42,2.59-3.08,3.37-5,.78-1.92,1.18-3.95,1.18-6.1s-.39-4.28-1.18-6.22c-.78-1.94-1.89-3.62-3.33-5.04-1.44-1.42-3.12-2.52-5.06-3.31-1.93-.79-4-1.18-6.19-1.18s-4.06.42-5.92,1.26Z"/>
  <path class="cls-2" d="M34.41,27.72l-2.88-1.51h-7.85l1.8.96c.21.11.57.29,1.1.55,1.67.79,3.07,1.51,4.19,2.17,1.12.66,2.2,1.42,3.21,2.28,1.02.87,1.84,1.89,2.47,3.07.63,1.18.94,2.51.94,3.98,0,1.89-.39,3.7-1.18,5.43-.78,1.73-1.86,3.24-3.21,4.53-1.36,1.29-2.91,2.28-4.66,2.99-1.75.71-3.59,1.06-5.53,1.06-3.4,0-6.3-.96-8.7-2.88-2.4-1.91-4.26-4.53-5.57-7.84l-3.29,1.5c1.41,3.89,3.66,6.98,6.74,9.29,3.08,2.31,6.64,3.47,10.66,3.47,2.4,0,4.72-.43,6.94-1.3,2.22-.87,4.2-2.09,5.96-3.66,1.75-1.57,3.12-3.41,4.11-5.51.99-2.1,1.49-4.36,1.49-6.77,0-2.62-.55-4.9-1.65-6.81-1.1-1.91-2.8-3.58-5.1-5Z"/>
  <path class="cls-2" d="M30.53,1.18c1.96,1.21,3.64,2.94,5.05,5.2l2.67-2.21c-.74-1.35-1.65-2.55-2.72-3.6l-6.29-.07c.44.2.88.42,1.29.68Z"/>
  <polygon class="cls-2" points="54.47 14.77 50.95 14.77 50.95 19.61 46.95 19.61 46.95 22.92 50.95 22.92 50.95 56 54.47 56 54.47 22.92 60.82 22.92 60.82 19.61 54.47 19.61 54.47 14.77"/>
  <path class="cls-2" d="M88.89,25.03v15.14c0,2.1-.11,3.9-.31,5.39-.21,1.5-.63,2.83-1.25,4.02-.63,1.18-1.58,2.13-2.86,2.84-1.28.71-2.97,1.06-5.06,1.06s-3.78-.35-5.06-1.06c-1.28-.71-2.23-1.66-2.86-2.84-.63-1.18-1.05-2.52-1.25-4.02-.21-1.5-.31-3.29-.31-5.39v-20.56h-3.53v21.82c0,2.57.13,4.63.39,6.18.26,1.55.86,2.98,1.8,4.29,1.2,1.63,2.77,2.85,4.7,3.66,1.93.81,3.97,1.22,6.11,1.22s4.18-.41,6.11-1.22c1.93-.81,3.5-2.03,4.7-3.66.94-1.31,1.54-2.74,1.8-4.29.26-1.55.39-3.61.39-6.18v-16.4h-3.53Z"/>
  <path class="cls-1" d="M155.67,10.71c.89,0,1.65-.32,2.27-.95.63-.63.94-1.39.94-2.28s-.31-1.65-.94-2.28c-.63-.63-1.39-.95-2.27-.95s-1.65.31-2.27.95c-.63.63-.94,1.39-.94,2.28s.31,1.65.94,2.28c.63.63,1.38.95,2.27.95Z"/>
  <rect class="cls-1" x="153.87" y="36.2" width="3.53" height="19.8"/>
  <path class="cls-2" d="M213.94,79.01c-.09-.21-.18-.41-.27-.62-.76-1.89-1.14-3.86-1.14-5.91s.38-4.03,1.14-5.95c.76-1.92,1.81-3.61,3.17-5.08,1.36-1.47,2.97-2.62,4.82-3.46,1.85-.84,3.83-1.26,5.92-1.26,2.19,0,4.26.39,6.19,1.18,1.93.79,3.62,1.89,5.06,3.31,1.44,1.42,2.55,3.1,3.33,5.04.78,1.94,1.18,4.02,1.18,6.22s-.39,4.19-1.18,6.1c-.06.14-.12.28-.19.43h3.78c.74-2.06,1.11-4.26,1.11-6.61,0-2.68-.48-5.17-1.45-7.48-.97-2.31-2.33-4.33-4.08-6.06-1.75-1.73-3.79-3.07-6.11-4.02-2.33-.95-4.79-1.42-7.41-1.42s-4.99.5-7.29,1.5c-2.3,1-4.31,2.36-6.03,4.09-1.72,1.73-3.07,3.77-4.04,6.1-.97,2.34-1.45,4.79-1.45,7.36,0,2.26.39,4.44,1.17,6.53h3.76Z"/>
  <g>
    <path class="cls-2" d="M176.29,85.23h5.21c-.76-.57-1.46-1.21-2.12-1.92-1.36-1.5-2.4-3.19-3.13-5.08-.73-1.89-1.1-3.86-1.1-5.91s.38-4.02,1.14-5.91c.76-1.89,1.81-3.56,3.17-5,1.36-1.44,2.95-2.59,4.78-3.42,1.83-.84,3.79-1.26,5.88-1.26,4.91,0,9.17,1.97,12.78,5.91v-4.72c-3.5-2.99-7.71-4.49-12.62-4.49-2.61,0-5.05.49-7.33,1.46-2.27.97-4.26,2.32-5.96,4.06-1.7,1.73-3.02,3.75-3.96,6.06-.94,2.31-1.41,4.75-1.41,7.32s.46,5.11,1.37,7.44c.8,2.06,1.9,3.88,3.29,5.47Z"/>
    <path class="cls-2" d="M199.29,85.23h4.08v-3.69c-1.19,1.46-2.55,2.69-4.08,3.69Z"/>
  </g>
  <path class="cls-2" d="M104.52,40.55c-.2-1.1-.3-2.22-.3-3.38,0-1.94.34-3.85,1.02-5.71.68-1.86,1.65-3.53,2.9-5,1.25-1.47,2.74-2.62,4.47-3.46,1.72-.84,3.61-1.26,5.64-1.26,4.34,0,7.84,1.43,10.5,4.29,2.67,2.86,4,6.45,4,10.75,0,1.32-.11,2.57-.32,3.77h3.61V8.62h-3.53v16.89h-.16c-1.52-2.26-3.52-4-6-5.24-2.48-1.23-5.13-1.85-7.96-1.85-2.67,0-5.1.47-7.29,1.42-2.2.95-4.08,2.27-5.64,3.98-1.57,1.71-2.76,3.7-3.57,5.98-.81,2.28-1.21,4.74-1.21,7.36,0,1.15.09,2.28.25,3.38h3.58Z"/>
  <path class="cls-2" d="M103.35,109.17h-3.76v-59.38h10.43c2.82,0,5.24.22,7.25.67,2.01.45,3.85,1.38,5.53,2.8,1.78,1.52,3.11,3.35,4,5.47.89,2.13,1.33,4.37,1.33,6.73,0,2.21-.43,4.38-1.29,6.54-.86,2.15-2.08,3.89-3.65,5.2-1.67,1.42-3.61,2.4-5.8,2.95-2.19.55-4.65.83-7.37.83h-6.66v28.2ZM110.17,77.43c2.19,0,4.11-.22,5.76-.67,1.65-.45,3.17-1.3,4.59-2.56,2.56-2.36,3.84-5.33,3.84-8.9,0-1.94-.38-3.77-1.14-5.47-.76-1.7-1.87-3.08-3.33-4.13-1.31-1-2.77-1.64-4.39-1.93-1.62-.29-3.61-.43-5.96-.43h-6.19v24.1h6.82Z"/>
  <path class="cls-2" d="M131.78,76.62c-.35-1.44-.53-2.93-.53-4.46,0-1.94.34-3.85,1.02-5.71.68-1.86,1.65-3.53,2.9-5,1.25-1.47,2.74-2.62,4.47-3.46,1.72-.84,3.61-1.26,5.64-1.26,4.34,0,7.84,1.43,10.5,4.29,2.67,2.86,4,6.45,4,10.75,0,1.72-.18,3.34-.54,4.86h3.83v-22.42h-3.53v6.3h-.16c-1.52-2.26-3.52-4-6-5.24-2.48-1.23-5.13-1.85-7.96-1.85-2.67,0-5.1.47-7.29,1.42-2.2.95-4.08,2.27-5.64,3.98-1.57,1.71-2.76,3.7-3.57,5.98-.81,2.28-1.21,4.74-1.21,7.36,0,1.54.15,3.02.43,4.46h3.62Z"/>
</svg>