<?xml version="1.0" encoding="UTF-8"?>
<svg id="Layer_1" data-name="Layer 1" xmlns="http://www.w3.org/2000/svg" viewBox="0 0 1000 626.49">
  <defs>
    <style>
      .cls-1 {
        fill: #e6e7e8;
      }

      .cls-1, .cls-2, .cls-3, .cls-4 {
        stroke-width: 0px;
      }

      .cls-3 {
        fill: #ffcc05;
      }

      .cls-4 {
        fill: #1d1d1b;
      }
    </style>
  </defs>
  <path class="cls-1" d="M75.57,450.19c.28-.94.7-1.87.8-2.83.1-.92.27-1.46,1.49-1.41.86.03,1.73-.19,2.59-.29.1.74.18,1.48.32,2.21.34,1.82,1.81,3.01,3.79,3.11,2.04.1,3.91-1.19,4.31-2.96.37-1.64-.68-3.36-2.49-4.07-.3-.12-.62-.2-.93-.27-.79-.18-2.14-.21-2.26-.56-.3-.89-.09-1.93.05-2.9.03-.21.6-.45.96-.53,1.36-.31,2.75-.56,4.12-.83-.31.62-.75,1.21-.89,1.86-.36,1.74.48,3.23,2.06,3.95,1.57.71,3.62.42,4.84-.68,1.21-1.09,1.55-2.68.86-4.05-.79-1.59-2.56-2.47-4.53-2.18-.62.09-1.2.44-1.8.66.21-1.31.38-2.63.68-3.92.07-.28.6-.62.97-.68,1.25-.21,2.52-.31,3.79-.45-.1.78-.31,1.57-.27,2.35.13,2.05,1.95,3.46,4.19,3.37,2.18-.09,3.97-1.78,3.91-3.7-.05-1.91-1.91-3.62-4.07-3.58-.85.02-1.69.37-2.54.57.11-.38.29-.75.32-1.14.18-1.97.77-3.18,3.51-3.39,2.37-.18,3.68-2.06,3.66-4.31-.01-.98.22-1.29,1.41-1.43,3.68-.43,4.49-1.21,5.12-4.69.16-.9.53-1.04,1.43-1.17,3.98-.57,4.84-1.44,5.22-5.21.08-.77.29-.92,1.12-1.01,4.37-.45,5.56-1.67,5.17-5.55-.13-1.33.51-.87,1.28-.84,2.71.09,4.49-1.03,4.91-3.02.53-2.45-1.21-4.52-4.17-4.54-1.63,0-2.06-.18-1.81-1.73.33-2.06.16-2.06,2.37-2.37.75-.1,1.46-.39,2.19-.59-.17.66-.41,1.32-.5,1.99-.3,2.21,1.66,4.32,4.1,4.47,2.31.15,4.45-1.6,4.58-3.74.14-2.33-1.78-4.14-4.44-4.06-.97.03-1.93.28-2.9.43.14-.15.33-.27.4-.44q1.39-3.41,5.4-4.59c-.05.29-.09.58-.17.87-.66,2.31-.15,3.92,1.58,4.93,1.69.99,3.63.9,5.2-.24,1.62-1.18,1.93-2.79.97-5.08-.08-.18-.22-.34-.33-.51.53.13,1.05.28,1.58.4,3.49.78,6.03-.76,6.06-3.96.01-1.41.28-1.49,1.73-1.4,2.94.18,4.64-1.19,5.31-3.85.41-1.62.74-1.72,3.27-1.79,1.52-.04,1.09.88,1.25,1.57.5,2.16,1.87,3.23,4.02,3.17,1.98-.06,3.55-1.36,3.77-3.13.23-1.9-1.2-3.78-3.65-3.79-2.57,0-1.36-1.28-1.45-2.24-.13-1.44.83-1.71,2.04-1.49.43.08.86.65,1.06,1.09.42.89.5,1.94,1.06,2.73,1.02,1.42,3.14,1.92,5.02,1.42,1.88-.49,3.12-1.96,3.37-3.99.07-.56.05-1.58.21-1.6,1.07-.15,2.18-.11,3.27-.06.12,0,.28.47.32.74.66,4.54,1.61,5.31,6.4,4.9,1.14-.1,1.03.3.84.96-.97,3.26,2.75,5.57,5.54,4.52,1.98-.74,2.82-2.08,2.75-3.97-.02-.51-.21-1.46.81-1.13,1.01.33,2.57-.46,3.04,1.04.36,1.13.64,2.28.96,3.42-.97-.04-1.95-.18-2.91-.11-1.79.15-3.18,1.63-3.14,3.21.04,1.65,1.74,3.18,3.58,3.22,1.76.03,3.42-1.21,3.58-2.82.09-.86-.07-1.74-.12-2.61.61.21,1.23.62,1.83.59,2.27-.08,2.98.86,3.38,2.82.46,2.29,2.59,3.28,5.17,3.19.91-.03,1.27,0,1.38,1.02.44,4.23,3,5.59,7.37,4.09.3-.1.62-.17.93-.25-.27.65-.66,1.27-.77,1.94-.38,2.21,1.21,3.99,3.59,4.1,2.36.11,4.33-1.63,4.18-3.69-.15-2.05-2.27-3.57-4.62-3.26-.65.08-1.26.35-1.89.53.21-.66.62-1.32.59-1.97-.08-1.87.77-2.37,2.85-2.52,2.41-.16,3.83-1.75,4.19-3.97.09-.54.25-1.43.59-1.52,1.03-.28,2.16-.3,3.26-.28.13,0,.29.84.37,1.29.41,2.39,1.7,3.56,3.95,3.57,2.49,0,4.11-1.54,3.95-4.11-.07-1.14.03-1.29,1.3-1.1,3.78.55,5.94-.89,6.26-4.27.12-1.23.54-1.33,1.73-1.44,3.4-.33,4.72-1.67,4.9-4.87.06-1.02.27-1.25,1.45-1.32,3.55-.22,4.63-1.26,5.06-4.63.1-.81.23-1.11,1.3-1.19,4.12-.31,5.41-1.56,5.29-5.26-.04-1.3.47-1.1,1.48-1.12,2.57-.03,4.17-1.19,4.59-3.07.55-2.43-1-4.21-4.07-4.7-.65-.1-1.8.29-1.46-.92.23-.82-.43-2.09,1.34-2.29,1.18-.13,2.33-.53,3.49-.81-.11.68-.35,1.37-.32,2.05.07,1.75,1.54,2.98,3.41,2.98,1.74,0,3.2-1.12,3.45-2.65.26-1.58-.98-3.19-2.81-3.48-.85-.13-1.74-.02-2.62-.02.2-.56.57-1.13.57-1.69.01-1.86.5-3.01,3.01-3.22,1.85-.15,3.14-2.06,3.17-3.74.03-1.73-.84-3.05-2.54-3.88-.57-.28-1.23-.45-1.87-.54-.8-.11-1.53-.09-1.5-1.12.02-.92.29-1.41,1.43-1.58,2.05-.32,2.04-.39,2.48,1.41.51,2.12,1.93,3.19,4.1,3.09,1.97-.09,3.53-1.46,3.7-3.21.17-1.78-1.2-3.24-3.43-3.81-.64-.16-2.13.66-1.78-.89.24-1.06-.54-2.66,1.89-2.78,2.81-.14,4.31-1.87,4.69-4.26.17-1.07.28-1.66,1.75-1.91,3.22-.56,4.19-1.66,4.44-4.66.09-1.05.38-1.22,1.5-1.33,3.62-.33,4.59-1.26,5.06-4.69.12-.9.42-1.05,1.38-1.15,3.72-.36,4.73-1.2,5.31-4.53.19-1.08.7-1.17,1.68-1.28,3.52-.42,4.77-1.53,5.16-4.72.12-.99.33-1.24,1.47-1.4,3.62-.5,4.64-1.57,4.87-4.88.06-.94.18-1.34,1.4-1.46,3.79-.37,4.81-1.4,4.8-4.71,0-.86,0-1.18,1.12-1.21,4.17-.12,5.02-.75,5.74-4.25.17-.84.4-1.09,1.38-1.2,4-.43,4.82-1.12,5.54-4.66.18-.89.55-1.06,1.44-1.19,4.01-.57,4.8-1.33,5.32-5.17.1-.75.32-.93,1.13-1.06,4.13-.67,4.71-1.2,5.18-4.88.11-.91.45-1.07,1.39-1.16,3.89-.39,5.06-1.43,5.15-4.83.03-1.2.5-1.18,1.53-1.24,3.79-.22,5.26-1.79,4.82-5.2-.13-1.01,0-1.09,1.12-.99,3.62.29,5.25-1.04,5.32-4.4.02-1.18.39-1.17,1.49-1.1,3.48.2,4.85-.87,5.74-4.02.13-.46.57-1.1.98-1.18.89-.17,1.76.05,1.83,1.16.03.49.2.97.34,1.45.22.74,0,1.13-.93,1.07-.44-.03-.9-.03-1.32.06-1.69.37-2.89,1.78-2.82,3.25.07,1.56,1.64,3.02,3.4,3.14,1.64.12,3.28-.92,3.72-2.41.21-.72.1-1.9.54-2.09.66-.28,1.69.3,2.55.24,1.35-.09,1.54.52,1.82,1.52.83,2.95,2.13,3.83,5.67,3.81,1.11,0,1.2.27,1.27,1.1.33,3.5,1.24,4.28,5.35,4.55.96.06,1.27.25,1.36,1.16.39,3.9,1.39,4.7,5.8,4.63,1.01-.02.96.23.93.97-.14,3.8,1.4,5.15,5.69,4.92.99-.05.99.11.95.89-.23,3.75.84,4.83,5.19,5.17,1.05.08,1.19.4,1.26,1.24.32,3.86,1.38,4.75,5.76,4.67,1.32-.02,1.02.43.99,1.19-.13,3.45,1.83,5.05,5.74,4.58,1.17-.14,1.4-.03,1.04.97-.61,1.71.03,3.14,1.5,4.24,1.17.87,2.55,1.2,4.03.71,1.47-.49,1.33.07,1.15,1.1-.59,3.34,1.56,5.31,5.33,4.78,1.63-.23,1.2.29,1.08,1.19-.42,3.3,1.3,5.03,5.05,5.01,1.08,0,1.48-.06,1.45,1.16-.1,3.67,1.53,5.02,5.58,4.81,1.05-.06,1.53-.25,1.32,1.1-.4,2.55,1.25,4.44,3.72,4.73,2.4.28,4.3-1.18,4.72-3.91.16-1.04.49-1.25,1.6-1.3,3.97-.15,5.1-.91,6.01-4.24.3-1.11.8-1.41,1.94-1.52.96-.09,1.89-.49,2.83-.76-.12.77-.41,1.55-.33,2.31.18,1.63,1.84,2.87,3.6,2.85,1.92-.02,3.5-1.47,3.52-3.22.02-1.7-1.2-2.99-3.13-3.18-.75-.07-1.52.07-2.28.12.24-.96.61-1.91.67-2.88.07-1.07.63-1.3,1.67-1.33,1.01-.03,1.74.04,1.68,1.2-.02.48.09.99.27,1.45.67,1.67,2.42,2.72,4.33,2.67,1.94-.05,3.85-1.15,4.02-2.92.19-1.98,1.07-2.49,3.04-2.19.41.06.87-.1,1.29-.23,1.14-.35,1.14.08,1.19.99.05.91.47,1.96,1.12,2.64,1,1.05,2.46,1.26,3.93.61,1.43-.63,2.13-1.67,2.04-3.11-.09-1.45-.97-2.39-2.45-2.85-.5-.16-1.09-.13-1.63-.13-.76,0-1.28-.09-.96-.99.23-.65.05-1.52.47-1.99.45-.49,1.37-.69,2.12-.89.97-.26,1.01.39,1.07,1.02.04.49.12.99.31,1.44.75,1.78,2.71,2.85,4.69,2.62,2.04-.23,3.85-1.63,3.74-3.55-.13-2.11.69-2.33,2.74-2.28,2.37.06,3.87-1.36,4.28-3.78.2-1.15.39-1.62,1.88-1.71,3.26-.21,4.52-1.37,5.08-4.45.18-.97.48-1.27,1.57-1.41,3.53-.46,4.55-1.33,5.19-4.4.19-.88.27-1.42,1.5-1.45,3.32-.08,4.9-1.87,5.36-4.66.07-.43.33-1.09.66-1.17,1.03-.26,2.13-.31,3.21-.39.05,0,.18.51.2.79.04.49-.07,1.01.05,1.48.44,1.71,2.33,2.89,4.19,2.68,1.8-.21,3.22-1.59,3.31-3.22.1-1.79-1.21-3.23-3.26-3.52-.43-.06-.89-.04-1.31.03-.99.16-1.14-.23-.91-.98.17-.57.37-1.16.37-1.74,0-1.17.82-1.15,1.75-1.21,1.17-.07,1.39.4,1.55,1.36.48,2.77,2.1,4.12,4.62,4.13,2.41.01,4.35-1.23,4.68-3.77.27-2.09,1.76-1.2,2.81-1.46,1.75-.44,1.26.85,1.49,1.59.68,2.14,2.38,3.41,4.44,3.33,2.11-.08,3.63-1.42,4.09-3.62.04-.19.04-.4.03-.59-.05-.78.39-1.06,1.2-1,.44.03.9.11,1.32.02,1.8-.38,2.74-.23,2.71,1.88-.03,1.83,1.86,2.94,3.89,2.88,2-.06,3.55-1.35,3.77-3.13.21-1.72-1.05-3.3-3.02-3.73-.52-.11-1.11-.15-1.62-.05-1.01.2-1.14-.19-.95-.93.13-.48.41-1,.3-1.44-.46-1.86.86-1.83,2.26-1.89.85-.04,1.24.18,1.17.96-.03.3-.07.6-.04.89.28,2.68,2.2,4.23,5,4.05,2.67-.18,4.61-2.14,4.19-4.72-.24-1.47.02-1.7,1.52-1.39.6.13,1.33,0,1.94-.17,1.41-.4,1.03.19.97,1.02-.08,1.03.02,2.18.48,3.11.74,1.5,2.71,2.24,4.42,1.98,1.79-.27,3.22-1.46,3.6-3.08.11-.48.13-.99.08-1.47-.09-.87.37-.99,1.18-.85.54.09,1.16.2,1.64.04,1.82-.59,2.08-.09,2.04,1.56-.05,2.26,1.98,3.68,4.34,3.52,2.19-.15,3.78-1.71,3.83-3.78.02-.64-.02-1.28-.03-1.92.65.09,1.3.16,1.94.27.7.12,1.91.13,2.01.43.33,1.01.29,2.13.35,3.21,0,.09-.3.26-.48.29-.32.05-.66-.01-.99.02-2.78.25-4.35,1.46-4.52,3.48-.17,2.02,1.24,3.47,3.91,4.07.55.12,1.48.39,1.5.64.09.96.07,2.01-.33,2.87-.17.36-1.42.27-2.13.49-1.94.59-3.18,1.76-3.38,3.65-.18,1.72.51,3.15,2.21,4.01.74.37,1.66.59,2.51.61,1.32.02,1.36.68,1.32,1.55-.05.87.18,1.61-1.36,1.84-4.66.69-5.89,3.07-3.89,7.03-.74-.13-1.47-.3-2.21-.37-2.35-.23-4.33,1.23-4.5,3.28-.18,2.13,1.39,3.73,3.85,3.84.75.03,1.51-.08,2.27-.13-.07.29-.14.58-.22.86-.47,1.64-2.02,3.26-3.78,3.93-1.74.67-2.84,2.36-2.64,4.07.19,1.71,1.6,3.17,3.48,3.54.53.1,1.1.11,1.64.07.94-.08,1.5.01,1.21,1.08-.15.55-.1,1.18,0,1.75.14.84-.24.89-1.08.93-3.81.18-4.94,1.06-5.32,4.3-.12,1.03-.39,1.41-1.56,1.26-.64-.08-1.32.04-1.96.13-.79.11-1.26.06-1.13-.86.08-.57.05-1.2-.13-1.75-.59-1.8-2.69-2.96-4.6-2.63-1.88.32-3.32,1.85-3.36,3.57-.04,1.9,1.36,3.35,3.54,3.67.11.02.23,0,.33.04.67.24,1.9-.72,2.01.61.14,1.66-.68,2.54-2.25,2.77-.43.06-.88.12-1.28.25-1.14.38-1.14-.1-1.22-.96-.09-.93-.42-1.96-1.03-2.69-.94-1.12-2.42-1.28-3.91-.86-1.51.43-2.56,1.72-2.56,3.13,0,1.42.74,2.49,2.16,3.07.67.28,1.52.21,2.21.46.37.13.71.58.83.95.11.35-.17.78-.13,1.16.15,1.3-.22,1.93-1.91,2.04-1.07.07-2.32.74-3.07,1.48-2.24,2.2-1.16,5.72,1.98,6.82.61.21,1.34.19,1.9.47.37.19.71.72.71,1.1,0,.39-.33,1.01-.69,1.13-.69.24-1.61.45-2.24.22-.43-.16-.57-1.06-.75-1.64-.6-1.91-2.06-2.97-4.02-2.86-1.96.1-3.52,1.5-3.62,3.25-.11,1.78,1.07,3.1,3.16,3.63.7.18,2.14-.39,1.88.88-.21,1.05.42,2.64-1.84,2.93-2.85.37-4.49,1.98-4.56,4.65-.02.86-.33,1.2-1.33,1.26-3.21.2-5.07,1.73-5.28,4.67-.07,1.01-.8.97-1.59,1.06-3.17.34-4.94,1.9-5.26,4.8-.11.98-2.58,2.19-3.46,1.65-.33-.2-.2-1.02-.27-1.56-.24-1.89-1.47-3.26-3.34-3.61-1.7-.31-3.14.26-3.99,1.52-.52.78-.64,1.84-.68,2.79-.04.79.14,1.41-1.14,1-.5-.16-1.11-.23-1.63-.15-1.71.25-2.47-.06-2.52-1.89-.06-2.13-1.99-3.46-4.17-3.4-2.17.06-3.63,1.4-4.03,3.62-.09.52.64,1.76-.74,1.39-1.08-.28-2.97.62-3.21-1.25-.34-2.75-1.91-4.31-5.02-4.63-.93-.1-2.09-2.53-1.61-3.26.12-.18.52-.25.8-.29.54-.07,1.11,0,1.63-.12,2.11-.47,3.38-2.06,3.21-3.94-.16-1.85-1.82-3.3-3.88-3.42-2.1-.12-3.81,1.03-4.35,2.93-.08.28-.18.6-.12.87.31,1.39-.42,1.25-1.63,1.21-1.36-.04-2.75.47-4.13.74.06-.89.26-1.79.13-2.66-.23-1.52-1.82-2.57-3.55-2.52-1.86.05-3.34,1.37-3.42,3.03-.07,1.54,1.1,2.98,2.83,3.18.94.11,1.94-.16,2.92-.26-.28,1.05-.8,2.09-.78,3.13.02,1.35-.59,1.69-1.92,1.67-.73-.01-1.47.2-2.2.3.03-.64.11-1.29.08-1.93-.07-2.01-1.85-3.62-3.98-3.64-2.16-.02-3.81,1.47-3.95,3.59-.03.39.08.79.09,1.18,0,.19-.05.54-.07.54-1.15-.03-2.31-.02-3.44-.18-.4-.05-.85-.44-1.05-.78-.18-.31,0-.78-.08-1.16-.39-2.07-1.74-3.57-3.99-3.79-1.68-.16-2.38-.44-2.43-2.16-.06-2.35-1.78-3.77-4.39-4.08-1.17-.14-1.66-.43-1.81-1.58-.16-1.24-.81-2.43-1.25-3.64.78.31,1.55.82,2.36.88,2.01.16,3.63-1.34,3.59-3.1-.04-1.6-1.6-3.01-3.39-3.04-1.96-.04-3.63,1.42-3.45,3.21.07.72.64,1.41.98,2.11-1.24-.39-2.46-.98-3.74-1.11-1.32-.13-1.53-.63-1.72-1.65-.25-1.33-.74-2.2,1.64-2.22,2.36-.02,3.65-2.1,3.07-4.06-.49-1.67-2.46-2.71-4.41-2.23-1.83.45-2.82,1.65-2.7,3.29.11,1.52-.51,1.34-1.69,1.02-1.19-.32-2.49,0-2.6-1.89-.08-1.44-.31-1.96,1.68-2.02,2.17-.07,3.35-1.66,3.22-3.46-.12-1.72-1.51-2.93-3.43-3-2.02-.07-3.4,1-3.88,2.97-.14.57-.4,1.59-.61,1.6-1.08.01-2.19-.16-3.21-.46-.3-.09-.41-.81-.54-1.26-.96-3.41-2.91-4.68-6.71-3.96-1.68.32-1.43-.19-1.39-1.26.06-2.03-.93-3.15-2.73-3.56-1.72-.39-3.36.23-4.24,1.61-1.44,2.24.25,4.74,3.36,5.07.6.06,1.67-.76,1.79.48.16,1.63-.76,2.89-1.98,3.07-1.45.22-2.32.22-2.47-1.6-.18-2.15-2.2-3.34-4.4-3.16-2.31.18-3.82,1.76-3.7,4.12.06,1.1.48,1.83-1.49,1.45-3.05-.58-4.86.74-5.73,3.58-.16.51-.41,1.3-.79,1.39-1.25.3-2.58.38-3.89.4-.1,0-.21-1.06-.33-1.62-.51-2.38-2.92-3.64-5.15-2.59-1.61.76-2.43,2.04-1.94,3.71.36,1.23-.25,1.09-1.14.83-.52-.15-1.07-.29-1.61-.33-2.33-.17-2.47-.24-3.05-2.11-.54-1.71-2.34-2.93-4.17-2.81-1.89.13-3.27,1.39-3.7,3.26-.14.61.63,1.72-.9,1.71-2.32,0-3.14-.44-3.46-1.69-.76-2.98-1.98-3.97-5.45-4.02-1.36-.02-1.53-.29-1.59-1.47-.12-2.53-1.8-4.03-4.19-4.19-2.37-.16-4.13,1.17-4.82,3.63-.36,1.28-1.22,1.76-2.43,1.36-.57-.19-1.19-1.95-.85-2.6.11-.22.44-.42.71-.48.64-.15,1.33-.12,1.94-.31,1.87-.59,2.92-2.25,2.63-4-.26-1.59-1.72-2.9-3.49-3.14-1.93-.26-3.77.7-4.49,2.35-.12.27-.16.57-.24.86-.18.67.27,1.75-1.28,1.52-1.1-.16-2.43.25-2.54-1.5-.2-3.16-4.27-5.4-7.61-3.85-1.69.79-2.66,1.99-2.97,3.69-.1.52-.34,1.31-.74,1.45-1.01.34-2.14.41-3.23.47-.1,0-.34-.82-.36-1.26-.08-1.55-.85-2.65-2.52-3.14-1.92-.56-3.83.31-4.56,2.01-.66,1.52.07,3.24,1.81,3.98.67.29,1.52.24,2.2.51.35.14.75.64.74.97-.07,2.17-.51,2.5-2.86,2.69-.78.06-1.27.08-1.23-.81.02-.48-.08-.99-.26-1.45-.58-1.5-2.12-2.4-3.83-2.3-1.83.1-3.34,1.37-3.58,2.98-.22,1.51.69,2.99,2.26,3.62.3.12.63.16.94.26.7.22,1.92-.4,1.92.93,0,1.69-.57,2.34-2.15,2.65-1.22.24-2.16.73-2.1-1.24.06-2.08-1.78-3.31-3.87-3.22-1.81.08-3.37,1.35-3.6,2.96-.26,1.8,1.04,3.3,3.28,3.84.71.17,1.92-.42,1.89.96-.03,1.74-.51,2.28-2.15,2.65-1.37.31-2.37.73-2.36-1.33.01-2-1.65-3.06-3.7-2.96-1.84.09-3.34,1.41-3.45,3.03-.11,1.69,1.28,3.05,3.36,3.5.62.13,1.95-.88,1.82.73-.18,2.26-.49,2.64-2.17,2.93-.54.09-1.07.31-1.6.31-.27,0-.69-.32-.77-.57-.14-.46,0-1-.12-1.47-.4-1.6-1.79-2.54-3.58-2.5-1.74.04-3.16,1.12-3.46,2.67-.3,1.5.65,2.94,2.32,3.53.2.07.41.16.63.19.72.11,1.44.19,2.16.28-.2.97-.05,2.23-.69,2.82-.71.66-2.12.75-3.25.92-.13.02-.58-1-.67-1.56-.22-1.44-1.06-2.54-2.58-2.73-1.07-.14-2.42.18-3.34.71-1.16.68-1.46,1.92-1.03,3.19.47,1.39,1.61,2.02,3.11,2.35.6.13,1.67-.76,1.8.5.15,1.45-.85,2.87-1.98,3.2-1.13.33-2.22.79-3.32,1.19.2-.66.52-1.32.56-1.99.12-1.76-1.55-3.29-3.42-3.28-1.67.01-3.13,1.24-3.29,2.77-.19,1.81,1.18,3.2,3.31,3.28.76.03,1.52-.13,2.28-.21-.12.17-.26.33-.35.5-.53,1.04-3.35,3.72-4.54,4.33-1.52.79-2.51,1.93-2.71,3.51-.14,1.06-.34,1.73-1.84,1.92-2.81.35-4.55,1.9-4.76,4.53-.08,1.04-.66,1.19-1.64,1.39-3.59.75-4.56,1.71-4.92,4.98-.11,1.01-.43,1.26-1.5,1.43-3.55.55-4.42,1.49-4.65,4.97-.05.79-.24.94-1.08,1.01-4.08.37-5.11,1.18-5.46,4.55-.11,1.07-.45,1.37-1.54,1.3-.65-.04-1.32.17-1.96.09-.34-.04-.81-.4-.9-.69-.14-.45.07-.98,0-1.46-.3-1.87-2.01-3.22-4.06-3.24-2.08-.03-3.79,1.25-4.15,3.13-.07.38-.09.8,0,1.17.2.87.05,1.37-1.11,1.08-.11-.03-.22-.04-.33-.05-3.87-.13-5.26.82-6.08,4.36-.18.78-.27,1.29-1.33,1.23-.94-.05-1.6-.09-1.79-1.22-.19-1.13-.85-2.19-1.3-3.28.86.16,1.71.42,2.57.47,2.02.11,3.64-1.24,3.73-3.01.1-1.92-1.57-3.41-3.7-3.32-1.97.08-3.48,1.53-3.35,3.35.05.78.34,1.54.52,2.31-.79-.34-1.55-.91-2.36-.98-1.28-.12-2.93.54-3.79.02-.72-.44-.36-2.14-.8-3.17-.54-1.28-2.28-1.92-3.88-1.69-1.72.25-3.03,1.21-3.07,2.68-.05,1.93-1.06,1.96-2.62,1.67-.42-.08-.92-.08-1.31.05-1.51.5-2.01.25-2.08-1.36-.09-2-1.71-3.07-3.73-2.99-1.81.07-3.37,1.37-3.57,2.97-.18,1.51,1.01,3.02,2.87,3.54.52.14,1.1.08,1.63.21.24.06.62.39.59.53-.22.94-.23,2.16-.9,2.7-.7.56-2.06.49-3.14.6-.07,0-.27-.84-.36-1.3-.37-1.94-1.22-2.89-2.87-3.16-1.87-.31-3.55.59-4.13,2.22-.56,1.58.29,3.23,2.07,3.86.59.21,1.3.14,1.91.32.36.11.89.49.88.72-.05.78-.07,1.72-.56,2.27-.43.49-1.49.53-2.24.82-.7.27-1.38.6-2.06.9.09-.77.31-1.56.25-2.32-.13-1.67-1.69-2.88-3.48-2.86-1.82.02-3.31,1.29-3.42,2.94-.12,1.75,1.29,3.2,3.32,3.3.75.04,1.51-.14,2.26-.22-.33.93-.72,1.86-.98,2.81-.32,1.16-1.82,2.11-2.98,1.75-.23-.07-.46-.38-.51-.61-.08-.38.04-.79-.01-1.18-.33-2.27-2.02-3.62-4.41-3.55-2.45.07-4.43,1.77-4.1,4.1.25,1.77-.28,1.58-1.78,1.43-2.75-.27-4.83,1.26-5.24,3.5-.44,2.42,1.05,4.28,3.96,4.95,1.79.41,2.32.95,1.79,1.96-.73,1.39-2.43.46-3.49,1.1-.18-.48-.46-.95-.52-1.43-.17-1.54-.96-2.62-2.64-3.05-1.5-.38-2.85-.05-3.88,1.03-1.82,1.91-.79,4.51,2,5.42.74.24,2.23-.61,2.19.98-.02.88.09,1.87-.33,2.6-.28.5-1.34.69-2.09.91-1.81.53-3.1,1.51-3.45,3.24-.32,1.56.06,3.01,1.53,3.98.76.5,1.76.8,2.69.95.91.15,1.4.35,1.29,1.29-.1.84-.19,1.57-1.44,1.56-.54,0-1.1.11-1.61.27-.73.22-.99-.04-1.01-.66-.01-.39.03-.8-.06-1.18-.44-1.76-1.89-2.73-3.8-2.59-1.7.12-3.09,1.33-3.28,2.85-.18,1.47.89,2.92,2.58,3.37.8.21,1.65.27,2.47.39-.15.77-.52,1.57-.39,2.31.26,1.5-.25,1.98-1.96,2.22-2.41.35-3.65,1.98-3.62,3.96.04,2.1,1.46,3.47,4.07,3.98.62.12,1.83-.4,1.62.81-.16.92.47,2.11-1.44,2.53-4.82,1.08-5.83,3.23-3.82,7.46-.97-.09-1.96-.3-2.92-.25-1.92.1-3.47,1.72-3.37,3.37.1,1.6,1.89,3.17,3.67,3.21,1.75.04,3.43-1.2,3.63-2.81.1-.86-.08-1.75-.14-2.62,1.06.25,2.1.59,3.18.71,1.01.11,1.27.53,1.25,1.35-.02.8-.29,1.18-1.24,1.41-4.34,1.06-5.08,1.91-4.93,5.66.03.77-.09.98-.95,1.09-3.62.45-5.07,1.67-4.91,3.96.16,2.24,1.7,3.33,5.11,3.41.98.02,1.11.26.92,1-.15.57-.3,1.18-.23,1.74.12.99-.43,1.06-1.33,1.16-4.05.46-5.39,1.9-4.88,5.49.2,1.38-.41,1.1-1.39,1.07-2.53-.06-4,.83-4.6,2.58-.84,2.46.82,4.47,4.08,4.83.76.08,1.76-.19,1.35.95-.32.88.78,2.22-1.18,2.61-4.59.91-4.78,1.19-5.39,5.68-.04.31-.54.63-.91.82-.25.13-.65-.02-.97.03-2.52.36-4.08,1.85-4.12,3.92-.04,2.07,1.39,3.74,3.95,4.02,1.55.17,2.14.49,1.89,1.94-.15.83-.48,1.14-1.39,1.3-1.28.22-2.52.65-3.77.98.23-.65.61-1.28.67-1.94.18-1.85-1.2-3.29-3.16-3.44-2.09-.16-3.89,1.3-3.89,3.15,0,1.73,1.55,3.16,3.56,3.17.75,0,1.49-.25,2.24-.39-.23.65-.68,1.32-.64,1.96.13,1.99-.57,2.87-3,3.09-2.16.2-3.53,2.08-3.31,4.18.18,1.66-.12,2.24-2.09,2.07-1.69-.15-2.92.77-3.65,2.11-.75,1.36-.56,2.71.45,3.9,1.01,1.2,2.42,1.76,4.06,1.45,1.39-.26,1.51.21,1.24,1.21-.13.47-.2.99-.11,1.46.18.9-.11,1.13-1.16,1.2-4.18.3-5.38,1.49-5.29,5.2.02.93-.1,1.22-1.2,1.11-.84-.08-1.78,0-2.57.25-1.88.61-3,2.54-2.65,4.31.37,1.9,2.06,3.18,4.4,3.36.7.05,1.99.11,2,.25.12,1.15.03,2.33-.09,3.49-.01.1-.77.17-1.18.2-4,.28-5.09,1.32-4.97,5.02.03.98-.33.84-1.1.78-3.83-.3-5.47.87-5.83,4.32-.11,1.05-.43,1.26-1.53,1.35-1.27.1-2.51.56-3.76.86.13-.77.35-1.53.38-2.3.09-2.07-1.58-3.6-3.81-3.57-2.2.03-3.92,1.71-3.74,3.65.18,1.93,2.15,3.38,4.33,3.11.85-.11,1.66-.41,2.49-.63-.4.81-1.1,1.6-1.15,2.42-.09,1.65-1.06,1.79-2.55,1.86-1.35.06-1.56-.34-1.75-1.44-.42-2.51-2.26-3.67-4.78-3.46-2.01.16-4.26,2.28-3.66,4.49.33,1.18-.01,1.22-1.25,1.08-3.3-.36-5.12.69-5.76,3.54-.33,1.49-1.08,1.67-2.44,1.65-.75-.01-1.69.51-2.21.25-.42-.21-.3-1.24-.48-1.89-.47-1.74-1.95-2.7-3.86-2.54-1.71.15-3.05,1.38-3.19,2.92-.13,1.51.93,2.88,2.68,3.31.51.13,1.08.07,1.63.1.2.01.59.08.58.09-.13,1.15-.01,2.42-.56,3.4-.29.51-1.72.53-2.66.7-.1.02-.39-.41-.43-.66-.09-.48,0-1-.1-1.47-.42-1.92-2.06-3.12-4.18-3.13-2.09,0-3.81,1.24-4.27,3.09-.43,1.74.67,3.56,2.65,4.29.5.18,1.07.37,1.59.34,1.43-.08,1.58.58,1.51,1.65-.1,1.63-1.71,2.76-3.41,2.21-.21-.07-.4-.41-.43-.64-.04-.49.1-.99.05-1.48-.21-1.89-1.48-3.17-3.41-3.52-1.98-.36-3.79.38-4.76,1.93-1,1.6-.8,2.63.88,4.42v-.03c-1.51-.19-3.02-.36-4.53-.57-.26-.04-.7-.24-.71-.39-.11-1.17-.16-2.35-.15-3.53,0-.16.44-.41.71-.45.54-.09,1.11,0,1.64-.08,2.04-.35,3.35-1.78,3.28-3.53-.07-1.74-1.6-3.2-3.54-3.38-2.06-.19-3.79,1.04-4.19,3-.06.29-.06.59-.04.89.06.84-.2,1.3-1.3,1.15-.86-.11-1.75-.11-2.62-.07-.84.04-1.18-.24-1.17-1.01.01-.59,0-1.21-.22-1.75-.62-1.52-1.85-2.42-3.69-2.57-1.89-.15-3.48.65-4.28,2.21-.27.53-.48,1.13-.49,1.7-.01.87-.21,1.18-1.32,1.1-1.58-.1-2.71-.02-3.05-2.01-.44-2.59-2.77-3.72-5.67-3.17-1.31.25-1.66.44-1.37-1.08.47-2.53-1.03-4.26-3.43-4.56-2.84-.36-4.98,1.46-4.71,4.34.14,1.45-.26,1.47-1.52,1.11-.71-.21-2.06-.03-2.16-.31-.39-1.07-.45-2.25-.48-3.39,0-.11,1.06-.28,1.64-.35,2.33-.27,3.83-1.46,4.06-3.26.19-1.55-.9-3.1-2.63-3.74-1.68-.62-3.67-.18-4.65,1.25-.49.71-.53,1.66-.81,2.49-.13.4-.41,1.15-.48,1.13-1.11-.22-2.38-.32-3.22-.9-.5-.35-.39-1.48-.42-2.26,0-.2.46-.53.76-.59.52-.12,1.11,0,1.63-.11,2.09-.42,3.44-2.08,3.25-3.9-.18-1.68-1.77-3.14-3.64-3.35-2.04-.22-3.92.95-4.43,2.81-.13.47-.06.98-.14,1.47-.04.26-.22.74-.3.73-1.09-.09-2.47.07-3.16-.47-.65-.51-.6-1.76-.79-2.7-.02-.12.39-.42.63-.45.65-.07,1.33.05,1.96-.06,2.07-.38,3.44-2.05,3.27-3.89-.17-1.81-1.9-3.31-3.93-3.41-2.06-.1-3.83,1.16-4.24,3.04-.16.72.01,1.65-.44,2.12-.3.31-1.45-.14-2.2-.05-1.88.23-1.49-.97-1.59-1.88-.11-.93-.72-1.81,1.38-1.72,3.03.13,4.83-1.9,4.42-4.34-.39-2.37-2.82-3.61-5.77-2.93-.52.12-1.04.27-1.56.41l.02.02c.08-.29.09-.6.24-.85,1.87-3.09-1.14-6.77-5.28-5.58-1.04.3-1.29.34-1.07-.83.75-3.95-.99-5.61-5.4-5.16-1.29.13-1.13-.17-1.01-1.02.52-3.65-1.04-5.26-5.04-5.14-1.12.03-1.49.09-1.36-1.17.37-3.47-1.53-5.13-5.45-4.88-.98.06-1.33.12-1.29-.96.14-3.78-1.26-5.02-5.4-4.86-1.05.04-1.27-.07-1.22-1.06.2-3.72-1.21-5.01-5.36-4.89-1.15.03-1.18-.2-1.11-1.12.27-3.53-1.6-5.26-5.42-4.93-1.2.1-1.6,0-1.43-1.12.3-2.08-.4-3.71-2.75-4.52v-5.34c1.99.15,2.29-1.27,2.41-2.43.17-1.58-.3-3.07-2.41-3.51v-5.34c1.99-.58,2.76-1.97,2.6-3.68-.13-1.36-.49-2.82-2.6-2.86v-5.34c2.23-1.04,2.97-1.99,2.67-3.83-.22-1.34-.49-2.83-2.67-2.71v-5.34c2.11-.59,2.81-2.05,2.6-3.81-.16-1.31-.54-2.73-2.6-2.72v-5.94c3.16-1.37,3.16-3.93,0-5.94v-5.94c3.05-1.54,3.05-3.81,0-5.94v-5.94c2.82-2.07,2.82-3.84,0-5.34v-7.13c2.48-1.47,2.48-2.78,0-4.75v-7.72c1.92-1.09,1.92-2.03,0-3.56v-6.53c2.35-.14,2.78-1.73,2.85-3.32.06-1.27.62-1.51,1.82-1.38,1.02.11,2-.26,2.24,1.34.5,3.33,1.82,4.17,5.81,4.23.88.01,1.07.18,1.17.92.52,3.9.98,4.3,5.45,4.75.82.08,1.23.27,1.14,1.04-.02.2-.04.4-.02.59.25,3,1.46,4.11,4.95,4.35.99.07,1.52.06,1.59,1.23.2,3.68,1.3,4.64,5.39,4.79,1.16.04,1.1.4,1.13,1.21.11,3.49,1.68,4.91,5.42,4.81,1.08-.03,1.48-.08,1.52,1.12.11,3.59,1.75,4.77,5.92,4.38,1.06-.1.97.14.87.9-.46,3.7,1.21,5.31,5.37,5.14.86-.04,1.23-.06,1.06.82-.11.58-.13,1.18-.09,1.77.11,1.4.92,2.49,2.31,3.02.96.37,2.13.3,3.18.53,1.94.42.28,1.78.8,2.64.51.84.7,1.83,1.03,2.75-.91-.3-1.8-.79-2.73-.86-2.08-.16-3.83,1.41-3.85,3.24-.01,1.79,1.78,3.4,3.77,3.4,2.04,0,3.8-1.56,3.64-3.43-.07-.83-.61-1.64-.94-2.45,1.68.3,3.36.58,5.02.94.28.06.51.47.67.76.08.15-.06.39-.04.58.1.86.23,1.72.35,2.59-.83-.03-1.68-.16-2.5-.08-2.18.21-3.74,1.96-3.59,3.91.14,1.88,1.77,3.29,3.87,3.35,2.17.07,4.04-1.39,4.23-3.36.05-.47-.09-.97-.21-1.45-.2-.79.3-.85.88-.65,1.94.67,3.65.06,5.35-.7-.24.75-.61,1.49-.69,2.25-.22,2.03,1.4,3.66,3.61,3.76,2.24.1,4.06-1.39,4.12-3.37.06-1.94-1.72-3.6-3.94-3.56-.86.01-1.71.26-2.57.4ZM170.7,563.69c2.18.07,4.09-1.48,4.19-3.4.09-1.8-1.82-3.65-3.88-3.75-2.11-.1-4.02,1.51-4.1,3.46-.09,2.01,1.57,3.62,3.79,3.69ZM614.38,301.47c-2.13.01-3.79,1.5-3.77,3.38.02,1.85,1.74,3.38,3.8,3.38,2.09,0,3.73-1.49,3.73-3.41,0-1.95-1.58-3.36-3.76-3.35ZM164.27,562.8c-2.06-.02-3.83,1.54-3.81,3.33.03,1.73,1.95,3.39,3.86,3.33,1.88-.05,3.5-1.52,3.57-3.24.08-1.9-1.52-3.41-3.63-3.42ZM604.74,257.21c-.06-1.81-1.59-3.13-3.62-3.11-1.94.02-3.6,1.48-3.63,3.18-.02,1.76,1.91,3.43,3.86,3.32,1.92-.11,3.44-1.62,3.38-3.39ZM339.9,280.96c-.06-1.79-1.57-3.09-3.58-3.08-1.95.02-3.54,1.42-3.57,3.14-.02,1.81,1.8,3.37,3.8,3.27,1.93-.1,3.4-1.57,3.34-3.33ZM230.42,384.76c-1.97,0-3.57,1.38-3.61,3.12-.05,1.78,1.8,3.4,3.78,3.32,1.92-.09,3.43-1.56,3.39-3.32-.04-1.79-1.55-3.12-3.56-3.12ZM303.46,378.87c-2.03-.1-3.64,1.21-3.71,3.03-.06,1.71,1.25,3.07,3.14,3.24,2.02.18,3.71-1.08,3.85-2.87.15-1.81-1.29-3.29-3.29-3.39ZM104.57,432.64c1.98.04,3.57-1.35,3.57-3.13,0-1.76-1.61-3.17-3.57-3.13-1.86.04-3.31,1.31-3.4,2.98-.1,1.78,1.42,3.25,3.4,3.29ZM481.89,319.82c1.99.05,3.59-1.33,3.61-3.1.02-1.76-1.58-3.19-3.54-3.16-1.86.02-3.33,1.29-3.43,2.96-.11,1.8,1.36,3.25,3.36,3.31ZM329.67,290.06c2.05.03,3.58-1.33,3.53-3.14-.05-1.65-1.52-2.98-3.36-3.02-2.02-.05-3.54,1.32-3.5,3.16.03,1.74,1.4,2.97,3.34,3ZM5.39,402.89c1.84-.02,3.36-1.33,3.42-2.96.07-1.69-1.61-3.24-3.5-3.22-1.94.02-3.49,1.52-3.39,3.28.1,1.66,1.61,2.92,3.47,2.9ZM478.84,310.81c.03-1.57-1.52-3.06-3.28-3.15-1.95-.1-3.59,1.37-3.54,3.16.04,1.69,1.51,2.97,3.4,2.96,1.86,0,3.39-1.34,3.43-2.97ZM177.36,545.28c1.85.05,3.47-1.31,3.48-2.92.01-1.54-1.7-3.07-3.41-3.05-1.67.02-3.13,1.31-3.23,2.84-.11,1.72,1.26,3.08,3.16,3.13ZM326.46,292.98c.03-1.52-1.67-3.05-3.37-3.04-1.8.01-3.29,1.44-3.23,3.09.05,1.58,1.37,2.77,3.13,2.83,1.84.06,3.44-1.28,3.47-2.88ZM548.3,355.23c1.86-.04,3.33-1.44,3.23-3.06-.1-1.48-1.59-2.78-3.23-2.82-1.82-.05-3.33,1.3-3.33,2.98,0,1.74,1.39,2.95,3.33,2.91ZM621.18,278.03c1.86-.07,3.31-1.49,3.17-3.11-.13-1.47-1.65-2.76-3.28-2.78-1.82-.02-3.3,1.35-3.27,3.03.03,1.74,1.43,2.93,3.39,2.86ZM399.19,310.75c0-1.62-1.64-3-3.42-2.92-1.7.08-3.03,1.38-3.03,2.93,0,1.72,1.45,2.95,3.37,2.86,1.72-.08,3.09-1.35,3.08-2.88ZM51.71,444.27c1.69,0,3.18-1.26,3.26-2.75.08-1.56-1.54-3.06-3.29-3.06-1.8,0-3.29,1.45-3.19,3.09.09,1.57,1.47,2.72,3.23,2.71ZM535.07,343.3c1.73-.05,3.12-1.33,3.11-2.87,0-1.55-1.42-2.83-3.15-2.86-1.85-.03-3.34,1.37-3.24,3.04.1,1.57,1.51,2.73,3.28,2.68ZM346.17,275.03c-.06-1.57-1.48-2.79-3.23-2.77-1.75.02-3.12,1.26-3.14,2.83-.02,1.74,1.43,2.99,3.37,2.89,1.75-.09,3.06-1.37,3-2.95ZM210.67,456.1c1.69-.05,3.06-1.32,3.04-2.85-.01-1.57-1.35-2.77-3.1-2.8-1.84-.03-3.32,1.36-3.21,3,.11,1.52,1.55,2.7,3.26,2.65ZM518.3,346.43c.03-1.55-1.33-2.84-3.06-2.9-1.73-.06-3.2,1.12-3.3,2.66-.11,1.71,1.29,3.05,3.2,3.04,1.73,0,3.14-1.25,3.17-2.8ZM197.4,503.61c1.72-.03,3.11-1.29,3.12-2.83,0-1.55-1.37-2.82-3.1-2.86-1.85-.05-3.35,1.34-3.26,3,.09,1.57,1.48,2.73,3.24,2.7ZM207.06,483.01c.03-1.6-1.28-2.82-3.07-2.84-1.74-.02-3.17,1.21-3.19,2.75-.02,1.53,1.38,2.83,3.08,2.86,1.71.03,3.14-1.21,3.17-2.77ZM329.73,355.48c-1.71,0-3.14,1.27-3.13,2.78,0,1.5,1.45,2.8,3.13,2.81,1.7,0,3.1-1.26,3.11-2.8,0-1.58-1.35-2.79-3.1-2.79ZM250.32,384.83c1.75,0,3.08-1.24,3.07-2.83-.02-1.63-1.32-2.78-3.13-2.76-1.76.02-3.12,1.26-3.1,2.81.03,1.54,1.44,2.78,3.16,2.78ZM8.41,471.12c.02-1.59-1.35-2.82-3.13-2.79-1.6.03-2.96,1.17-3.06,2.58-.11,1.49,1.31,2.9,2.99,2.97,1.69.07,3.17-1.21,3.2-2.76ZM290.15,319.92c-1.71-.06-3.2,1.17-3.24,2.67-.03,1.45,1.49,2.83,3.11,2.83,1.54,0,2.89-1.15,3.01-2.57.13-1.58-1.13-2.87-2.88-2.93ZM257.05,373.38c-1.74-.07-3.26,1.2-3.24,2.71.01,1.33,1.44,2.67,2.93,2.76,1.67.1,3.18-1.21,3.18-2.77,0-1.49-1.22-2.64-2.87-2.7ZM177.38,373.32c-1.73.04-3.09,1.31-3.05,2.83.05,1.51,1.51,2.76,3.19,2.73,1.71-.03,3.04-1.3,3.01-2.86-.03-1.6-1.37-2.74-3.16-2.71ZM508.44,337.72c-1.72.02-3.14,1.34-3.07,2.84.07,1.48,1.66,2.77,3.3,2.67,1.56-.09,2.83-1.31,2.86-2.73.03-1.59-1.32-2.81-3.09-2.79ZM385.74,310.88c.07-1.58-1.26-2.84-3.02-2.85-1.58-.01-2.98,1.1-3.13,2.49-.16,1.46,1.22,2.91,2.89,3.03,1.67.12,3.19-1.12,3.26-2.66ZM485,304.75c-.04-1.48-1.29-2.6-2.94-2.63-1.72-.03-3.23,1.3-3.16,2.78.06,1.3,1.57,2.65,3.01,2.69,1.66.05,3.13-1.3,3.09-2.85ZM551.21,269.27c.04-1.47-1.15-2.65-2.78-2.76-1.74-.11-3.27,1.1-3.31,2.62-.04,1.43,1.56,2.86,3.16,2.82,1.55-.04,2.88-1.25,2.93-2.68ZM309.95,373.49c-1.61-.03-2.97,1.1-3.01,2.51-.04,1.32,1.38,2.67,2.86,2.71,1.55.04,2.92-1.15,2.97-2.57.04-1.46-1.19-2.62-2.81-2.66ZM45.1,438.12c1.6-.02,2.88-1.23,2.86-2.7-.02-1.51-1.27-2.59-2.95-2.57-1.63.02-2.96,1.23-2.93,2.65.03,1.35,1.52,2.64,3.02,2.62ZM157.73,384.65c1.62-.07,2.82-1.26,2.76-2.75-.06-1.51-1.32-2.54-3.01-2.48-1.63.06-2.9,1.28-2.82,2.71.08,1.39,1.54,2.59,3.08,2.53ZM326.02,364.2c0-1.53-1.22-2.62-2.92-2.61-1.66,0-2.98,1.18-2.97,2.62,0,1.35,1.48,2.67,2.99,2.66,1.61,0,2.9-1.19,2.9-2.68ZM319.38,298.95c.04-1.5-1.15-2.62-2.82-2.66-1.64-.03-2.97,1.08-3.02,2.52-.04,1.37,1.34,2.68,2.87,2.72,1.58.04,2.93-1.13,2.97-2.58ZM614.49,259.91c1.62-.04,2.86-1.26,2.77-2.74-.08-1.48-1.44-2.53-3.09-2.41-1.5.11-2.65,1.22-2.66,2.55,0,1.4,1.41,2.64,2.98,2.6ZM564.3,352.25c-.04-1.47-1.38-2.57-3.02-2.49-1.49.07-2.69,1.16-2.73,2.49-.05,1.38,1.36,2.68,2.89,2.68,1.6,0,2.9-1.22,2.86-2.68ZM114.11,423.5c-.04-1.45-1.37-2.55-3-2.47-1.49.07-2.64,1.13-2.69,2.47-.05,1.42,1.27,2.64,2.85,2.64,1.6,0,2.88-1.19,2.83-2.64ZM74.43,459.26c.04-1.46-1.19-2.61-2.82-2.64-1.61-.02-2.95,1.11-2.99,2.53-.03,1.33,1.39,2.66,2.87,2.69,1.55.03,2.91-1.15,2.94-2.58ZM425.27,322.56c-.04-1.48-1.36-2.56-3.01-2.48-1.5.07-2.67,1.13-2.71,2.48-.05,1.42,1.3,2.66,2.88,2.66,1.62,0,2.89-1.19,2.85-2.66ZM574.77,349.78c-1.64-.04-2.96,1.14-2.92,2.61.04,1.36,1.25,2.44,2.76,2.47,1.64.03,2.95-1.15,2.91-2.62-.04-1.35-1.24-2.42-2.74-2.45ZM319.31,370.01c-.08-1.45-1.49-2.54-3.1-2.39-1.48.14-2.56,1.27-2.51,2.62.06,1.37,1.23,2.38,2.76,2.39,1.65,0,2.92-1.16,2.84-2.63ZM587.76,342.91c1.51.07,2.82-.92,2.96-2.25.15-1.42-1.17-2.73-2.77-2.74-1.47,0-2.72,1.08-2.78,2.42-.06,1.39,1.05,2.49,2.58,2.56ZM206.76,387.83c-.07-1.45-1.48-2.53-3.08-2.39-1.48.13-2.55,1.25-2.5,2.61.05,1.38,1.19,2.37,2.74,2.38,1.67,0,2.91-1.13,2.84-2.61ZM41.26,429.52c0-1.45-1.34-2.59-2.95-2.52-1.51.07-2.61,1.12-2.63,2.5-.01,1.4,1.06,2.43,2.6,2.5,1.65.07,2.98-1.03,2.98-2.48ZM5.36,480.46c-1.44,0-2.68,1.09-2.73,2.41-.05,1.37,1.05,2.46,2.56,2.52,1.6.07,2.99-1.13,2.93-2.53-.05-1.28-1.34-2.4-2.77-2.41ZM5.48,492.35c-1.44-.07-2.75,1.02-2.82,2.36-.07,1.39,1.04,2.49,2.58,2.54,1.47.05,2.81-1.03,2.88-2.32.06-1.26-1.21-2.5-2.63-2.57ZM233.17,399.8c-.01-1.23-1.37-2.43-2.73-2.44-1.42,0-2.65,1.13-2.65,2.45,0,1.38,1.13,2.39,2.67,2.38,1.47-.01,2.73-1.12,2.72-2.39ZM94.15,584.04c.09-1.19-1.28-2.53-2.64-2.58-1.27-.05-2.55.96-2.72,2.13-.19,1.36.88,2.56,2.38,2.67,1.44.11,2.88-.97,2.97-2.23ZM614.39,295.25c1.33.01,2.58-.99,2.69-2.15.1-1.19-1.28-2.53-2.64-2.55-1.42-.02-2.69,1.19-2.61,2.5.07,1.26,1.15,2.18,2.57,2.2ZM349.74,266.75c-1.39-.08-2.75,1.08-2.78,2.39-.03,1.26.97,2.29,2.35,2.41,1.43.13,2.89-.93,3.02-2.18.12-1.18-1.23-2.54-2.59-2.62ZM568.07,260.79c-1.41,0-2.66,1.15-2.66,2.46,0,1.36,1.16,2.4,2.68,2.39,1.46-.01,2.74-1.14,2.72-2.4-.01-1.22-1.38-2.44-2.74-2.44ZM623.76,263.33c.06-1.19-1.34-2.5-2.69-2.52-1.4-.02-2.69,1.18-2.67,2.48.02,1.25,1.07,2.25,2.46,2.32,1.43.08,2.85-1.03,2.9-2.28ZM5.3,461.52c1.51.02,2.79-1.13,2.71-2.43-.07-1.15-1.33-2.25-2.61-2.28-1.45-.04-2.7,1.15-2.65,2.49.05,1.3,1.09,2.21,2.55,2.23ZM5.37,504.32c-1.33-.02-2.51.99-2.6,2.21-.11,1.43.97,2.48,2.56,2.49,1.37,0,2.59-.97,2.69-2.15.1-1.24-1.24-2.53-2.64-2.55ZM120.62,417.66c.01-1.2-1.43-2.49-2.76-2.47-1.39.02-2.67,1.27-2.61,2.56.06,1.24,1.15,2.22,2.54,2.27,1.44.05,2.82-1.1,2.84-2.35ZM34.51,423.72c.09-1.19-1.31-2.54-2.67-2.54-1.29,0-2.51,1.04-2.59,2.24-.09,1.28.86,2.32,2.26,2.47,1.45.16,2.91-.89,3.01-2.16ZM581.34,348.63c1.41,0,2.5-1,2.48-2.27-.02-1.26-1.15-2.25-2.55-2.23-1.42.02-2.49,1.01-2.46,2.29.02,1.28,1.1,2.22,2.53,2.21ZM7.89,447.4c.04-1.2-1.06-2.26-2.4-2.34-1.39-.08-2.54.82-2.66,2.06-.13,1.38.98,2.47,2.52,2.47,1.4,0,2.5-.95,2.53-2.19ZM597.07,322.53c-.07-1.23-1.2-2.18-2.57-2.16-1.39.02-2.44.97-2.46,2.24-.02,1.39,1.16,2.38,2.71,2.28,1.4-.09,2.38-1.09,2.31-2.35ZM544.11,275.17c.03-1.23-1.04-2.25-2.41-2.31-1.4-.06-2.52.82-2.62,2.07-.11,1.39.99,2.45,2.54,2.44,1.41-.01,2.47-.95,2.49-2.2ZM309.93,302.61c-1.41-.03-2.51.9-2.54,2.15-.03,1.24,1.03,2.25,2.41,2.29,1.4.04,2.5-.9,2.54-2.16.04-1.28-.99-2.25-2.41-2.28ZM5.38,433.28c-1.4-.02-2.53.98-2.51,2.21.03,1.2,1.25,2.23,2.58,2.17,1.24-.05,2.26-.96,2.33-2.08.08-1.25-1-2.28-2.4-2.3ZM223.9,407.94c1.31-.05,2.37-1.18,2.23-2.4-.13-1.13-1.17-1.93-2.44-1.87-1.21.06-2.28,1.02-2.3,2.06-.02,1.13,1.25,2.25,2.51,2.2ZM581.42,265.39c1.17-.06,2.2-1.07,2.19-2.16-.01-1.15-.99-2.03-2.27-2.03-1.36,0-2.54,1.11-2.39,2.26.13,1.04,1.35,1.99,2.48,1.94ZM212.91,393.85c-.02-1.14-.98-2.02-2.25-2.05-1.34-.04-2.57,1.02-2.52,2.16.04,1,1.19,2.05,2.31,2.11,1.28.07,2.47-1.01,2.45-2.22ZM537.29,281.05c0-1.16-1.01-2.06-2.3-2.07-1.24,0-2.38.92-2.44,1.99-.07,1.16,1.23,2.32,2.52,2.26,1.2-.05,2.23-1.07,2.23-2.19ZM124.36,413.85c1.17.08,2.32-.84,2.45-1.94.13-1.17-.73-2.13-2.01-2.26-1.37-.14-2.66.83-2.69,2.02-.02,1.01,1.11,2.1,2.25,2.18ZM186.44,524.44c-.04-1.15-1.04-2.02-2.32-2.03-1.38-.01-2.55,1.05-2.47,2.23.07,1.04,1.21,2.04,2.37,2.08,1.32.04,2.47-1.04,2.42-2.27ZM117.86,586.04c1.16.01,2.26-.97,2.31-2.05.06-1.17-.84-2.07-2.14-2.13-1.36-.07-2.6.96-2.54,2.13.05,1.01,1.24,2.05,2.37,2.06ZM263.62,368.04c-1.35-.04-2.57,1.01-2.53,2.16.04,1.01,1.18,2.05,2.31,2.11,1.29.07,2.48-.99,2.47-2.21-.01-1.15-.97-2.02-2.25-2.06ZM5.4,425.7c1.21-.04,2.24-1.05,2.21-2.18-.03-1.19-1.03-2.03-2.36-1.98-1.22.04-2.33,1.08-2.28,2.13.05,1.03,1.29,2.07,2.44,2.03ZM272.5,364.12c-.04-1.14-1.02-2.01-2.3-2.03-1.37-.02-2.55,1.04-2.48,2.21.07,1.02,1.22,2.04,2.35,2.08,1.3.05,2.46-1.04,2.42-2.26ZM298.88,316.77c.05-1.18-.87-2.06-2.18-2.09-1.24-.03-2.35.87-2.4,1.95-.04,1.01,1.1,2.11,2.23,2.15,1.16.04,2.29-.93,2.34-2.01ZM25.08,415.67c-1.25.06-2.24,1.05-2.08,2.15.16,1.11.95,1.73,2.16,1.81,1.2.08,2.25-.93,2.23-2.03-.02-1.15-1.02-1.99-2.31-1.93ZM106.85,583.91c0-1.17-.98-2.04-2.28-1.98-1.29.06-1.98.76-2.15,1.83-.17,1.05.95,2.13,2.13,2.17,1.2.04,2.29-.91,2.3-2.02ZM137.78,401.72c1.14-.01,2.1-.84,2.12-1.85.03-1.13-1.07-2.05-2.32-1.97-1.12.08-1.99.97-1.95,2,.04,1.03.98,1.83,2.15,1.82ZM303.28,312.66c1.16-.01,2.1-.83,2.13-1.85.03-1.15-1.04-2.06-2.32-1.97-1.14.08-1.99.95-1.95,2,.04,1.06.96,1.84,2.15,1.82ZM358.33,262.97c-.17-.93-.85-1.58-2.12-1.63-1.26-.04-2.2.95-2.06,2.13.12,1.07,1.04,1.74,2.26,1.64,1.19-.09,2-.92,1.93-2.14ZM172.98,547.99c-.18-.94-.87-1.6-2.15-1.63-1.25-.03-2.21,1.01-2.06,2.16.14,1.05,1.11,1.74,2.3,1.64,1.16-.1,2-.97,1.92-2.17ZM7.57,411.37c-.51-.41-1.14-1.22-1.98-1.51-1.13-.39-2.32.67-2.33,1.81-.02,1.06.83,1.9,2,1.89,1.25,0,2.02-.58,2.31-2.19ZM139.85,578.03c.03-1-.88-1.89-2-1.95-1.15-.06-2.07.7-2.13,1.78-.06,1.09.75,1.88,1.95,1.92,1.19.03,2.14-.73,2.17-1.75ZM389.96,243.58c-1.71-.06-2.62.74-2.65,1.8-.03,1.07.8,1.86,1.99,1.87,1.17.01,2.33-.82,2.06-1.76-.23-.79-1.04-1.44-1.39-1.9ZM150.96,386.06c-1.14,0-2,.83-1.99,1.9,0,1.09.86,1.82,2.08,1.79,1.21-.03,2.08-.83,2.03-1.86-.04-1.01-1.01-1.84-2.12-1.83ZM217.16,421.69c-1.14,0-2.02.85-2.01,1.91.01,1.07.9,1.83,2.1,1.8,1.19-.03,2.08-.85,2.04-1.88-.04-1.01-1.01-1.85-2.13-1.84ZM212.69,440.94c-.49-.35-1.16-1.11-2.03-1.37-1.05-.31-2.03.64-2.09,1.71-.06,1.1.73,1.87,1.93,1.9,1.19.03,2.13-.72,2.19-2.25ZM378.91,245.44c-1.32-.83-2.08-1.64-2.95-1.76-1.03-.14-1.77.66-1.82,1.7-.05,1.08.93,2.02,2.07,1.74.8-.2,1.46-.88,2.7-1.69ZM144.9,392.05c-1.66.01-2.56.9-2.48,1.93.08,1.02.72,1.59,1.85,1.66,1.15.07,2.36-.8,2.08-1.71-.24-.78-1.07-1.41-1.45-1.88ZM285.46,339.96c-.52-.34-1.24-1.09-2.12-1.31-1.01-.25-2.01.87-1.92,1.89.09,1.01.74,1.6,1.87,1.67,1.14.07,2.15-.77,2.16-2.25ZM528.25,289.37c.96-.98,1.76-1.5,2.06-2.2.36-.81-.86-1.92-1.9-1.97-1.09-.05-2.22.89-1.94,1.87.2.7.95,1.27,1.77,2.3ZM203.92,472.83c1.18.02,2.11-.79,2.08-1.79-.03-.96-1.08-1.88-2.13-1.79-1.11.09-1.76.67-1.85,1.69-.1,1.08.71,1.88,1.91,1.89ZM502.28,296.98c-1.62.1-2.56,1.11-2.4,2.09.16,1,.83,1.57,1.99,1.58,1.16.01,2.34-.93,1.99-1.83-.3-.78-1.17-1.38-1.58-1.84ZM365.48,257.18c-1.2-.73-1.88-1.39-2.69-1.56-1.02-.21-2.01.96-1.82,1.94.2,1.01.99,1.65,2.06,1.37.77-.2,1.36-.94,2.44-1.75ZM369.95,253.08c.36-.43,1.17-1.01,1.31-1.69.19-.97-.63-1.66-1.76-1.67-1.11,0-1.84.56-1.86,1.62-.02,1.05.64,1.59,2.32,1.74ZM34.44,530.63c-1.13-.84-1.74-1.62-2.5-1.78-1.05-.22-1.87.44-1.95,1.49-.08,1.04.57,1.82,1.68,1.71.79-.07,1.5-.75,2.76-1.43ZM595.05,265c.37-.42,1.15-.97,1.41-1.67.31-.85-1.02-1.97-2.03-1.82-1.07.15-1.79.73-1.76,1.78.04,1.04.72,1.58,2.38,1.71ZM451.52,322.69c-1.12-.8-1.74-1.5-2.52-1.72-1.01-.29-2.07.77-1.96,1.77.1,1.02.8,1.72,1.9,1.51.78-.15,1.43-.83,2.58-1.56ZM192.59,507.11c-.18-1.55-.95-2.21-2.03-1.98-.65.14-1.45.92-1.59,1.52-.24,1.01.59,1.8,1.73,1.62.77-.12,1.41-.85,1.89-1.16ZM133.79,405.67c-1.32-.74-2.07-1.48-2.82-1.47-.56,0-1.45.89-1.6,1.5-.25,1.01.59,1.81,1.73,1.64.77-.12,1.43-.85,2.69-1.66ZM219.83,399.97c-1.23-.84-1.89-1.62-2.62-1.68-.56-.04-1.55.73-1.76,1.31-.35.97.39,1.86,1.53,1.79.78-.04,1.51-.72,2.85-1.42ZM26.93,523.97c-.37-.23-.96-.85-1.65-.95-1.14-.16-2.03.53-1.79,1.56.13.59.95,1.28,1.62,1.49.97.29,1.85-.61,1.82-2.1ZM265.26,381.46c-.37-.23-.96-.85-1.64-.95-1.13-.16-2.03.51-1.8,1.55.13.59.94,1.28,1.61,1.49.96.3,1.84-.6,1.83-2.09ZM415.97,318.32c1.05-.17,1.64-.76,1.57-1.79-.06-.91-.69-1.41-1.69-1.4-1.13,0-1.85.54-1.83,1.6.02,1.04.74,1.54,1.95,1.59ZM14.33,512.53c-1.12-.64-1.81-1.34-2.38-1.27-.63.08-1.42.78-1.65,1.37-.3.76.94,1.79,1.8,1.52.68-.21,1.19-.83,2.23-1.62ZM19.17,516.99c-1.58.14-2.52.59-2.3,1.63.12.58.93,1.34,1.57,1.48,1.15.26,1.89-.54,1.78-1.52-.07-.61-.75-1.16-1.05-1.59ZM18.63,409.53c-.85.99-1.54,1.49-1.74,2.11-.27.83.9,1.87,1.79,1.57.65-.22,1.41-.97,1.47-1.55.06-.52-.75-1.12-1.51-2.13ZM12.2,407.94c.63-1.14,1.26-1.77,1.22-2.36-.03-.43-.9-1.08-1.47-1.16-.98-.14-1.76.55-1.57,1.41.13.61.91,1.1,1.82,2.11ZM38.11,534.92c-.33.35-1.24.92-1.18,1.39.07.57.88,1.22,1.54,1.48.26.1,1.26-.66,1.45-1.17.31-.85-.27-1.46-1.81-1.7ZM409.28,265.46c.71-1.11,1.39-1.71,1.39-2.32,0-.44-.83-1.14-1.41-1.26-.99-.2-1.81.47-1.69,1.34.09.62.86,1.17,1.71,2.23ZM417.56,269.46c-.4-1.27-.99-1.92-1.99-1.62-.59.17-1.48,1.06-1.36,1.31.28.61,1.02,1.37,1.66,1.45.53.06,1.2-.77,1.7-1.13ZM422.66,277.29c.63-1.14,1.25-1.76,1.21-2.35-.03-.43-.89-1.07-1.46-1.15-.98-.14-1.74.55-1.55,1.4.13.6.9,1.09,1.8,2.1ZM455.61,302.67c-.85,1.08-1.71,1.7-1.61,2.17.12.55.99,1.15,1.67,1.35.29.08,1.3-.79,1.32-1.24.02-.56-.65-1.15-1.37-2.27ZM276.43,356.77c-.33.36-1.26.93-1.2,1.4.07.57.89,1.23,1.56,1.5.27.11,1.27-.67,1.47-1.19.32-.86-.28-1.47-1.83-1.71ZM396.08,253.25c.62-.85,1.33-1.39,1.28-1.87-.05-.49-.8-1.19-1.35-1.29-1.04-.2-1.72.52-1.51,1.42.12.53.84.96,1.59,1.74ZM448.99,300.7c.64-.83,1.28-1.29,1.35-1.81.11-.9-.63-1.52-1.61-1.26-.53.14-1.17.88-1.18,1.36,0,.46.74.93,1.45,1.72ZM58.38,457.35c-.7.83-1.46,1.34-1.42,1.79.04.48.83.91,1.3,1.37.51-.42,1.34-.79,1.42-1.27.07-.45-.65-1.01-1.3-1.89ZM289.93,380.15c-.63.88-1.33,1.44-1.25,1.89.08.47.92,1.17,1.4,1.16.48-.02,1.26-.78,1.29-1.25.03-.46-.73-.96-1.45-1.8ZM100,447.76c-.74-.79-1.12-1.54-1.62-1.61-.5-.07-1.46.46-1.6.88-.12.39.47,1.27.95,1.43.47.15,1.2-.34,2.26-.69ZM464.22,310.89c-1.02-.66-1.53-1.23-2.11-1.29-.36-.04-1.12.65-1.16,1.05-.04.4.59,1.18.96,1.19.59.02,1.19-.45,2.32-.95ZM404.62,257.22c-1.05-.56-1.7-1.17-2.16-1.08-.5.1-1,.84-1.13,1.38-.06.23.84.94,1.25.91.56-.05,1.07-.59,2.05-1.21ZM197.2,487.06c-.56.98-1.08,1.52-1.07,2.05,0,.32.88.89,1.32.86.45-.03,1.22-.71,1.18-1.03-.07-.52-.69-.98-1.42-1.88ZM44.98,540.5c-.58.97-1.12,1.5-1.12,2.02,0,.32.85.91,1.29.89.45-.03,1.25-.68,1.21-1-.06-.52-.67-.99-1.38-1.91ZM521.73,294.58c.61-.77,1.25-1.23,1.29-1.73.03-.35-.75-.76-1.17-1.15-.47.42-1.15.79-1.33,1.3-.11.29.59.81,1.21,1.58ZM614.42,279.23c-.64.9-1.23,1.38-1.26,1.89-.02.36.81,1.13,1.08,1.07.59-.14,1.39-.63,1.48-1.08.08-.43-.63-.98-1.3-1.88ZM183.98,380.17c-.58.93-1.13,1.45-1.13,1.97,0,.35.89,1.06,1.17.98.57-.16,1.34-.7,1.38-1.15.05-.44-.7-.94-1.42-1.8ZM177.48,531.93c.55-.71,1.22-1.21,1.13-1.55-.11-.42-.8-.81-1.34-.98-.18-.05-.93.66-.9.98.04.44.58.85,1.11,1.54ZM429,282.52c.59-.59,1.38-1.13,1.29-1.34-.23-.51-.88-.88-1.36-1.3-.37.41-1.01.8-1.04,1.23-.03.38.6.8,1.12,1.41ZM548.15,338.9c-.51.64-1.13,1.08-1.12,1.5.01.4.69.78,1.08,1.17.48-.42,1.16-.79,1.35-1.29.09-.26-.71-.78-1.31-1.38ZM86.51,577.91c-.72-.5-1.36-1.18-1.63-1.08-.56.21-.92.84-1.36,1.3.47.32.95.89,1.4.88.46-.01.91-.6,1.58-1.1ZM51.75,549.72c.5-.71,1.11-1.22,1.01-1.54-.12-.4-.81-.76-1.32-.89-.19-.05-.88.66-.84.97.06.43.59.8,1.15,1.47ZM165.89,554.22c-.78-.5-1.31-1.09-1.73-1.03-.42.05-.9.72-1.04,1.19-.06.2.7.86,1.03.83.51-.05.97-.52,1.75-.99ZM93.05,453.36c-.73-.52-1.2-1.11-1.65-1.09-.41.02-.93.65-1.1,1.1-.07.21.63.91.94.89.52-.03,1-.47,1.81-.9ZM442.32,291.7c-.5.51-1.14.95-1.06,1.12.2.43.72.74,1.12,1.1.31-.33.85-.64.87-.99.02-.33-.49-.68-.93-1.23ZM600.96,306.19c.6-.52,1.28-.88,1.23-1.11-.1-.45-.53-.94-.98-1.2-.15-.09-1.09.45-1.09.71,0,.45.44.9.84,1.6ZM205.39,459.12c-.65-.4-1.08-.86-1.46-.83-.39.03-.72.55-1.08.85.42.35.79.83,1.28.98.22.07.69-.53,1.26-1ZM145.69,572.19c-.55-.46-.89-.96-1.23-.96-.37,0-.75.46-1.12.71.3.34.55.86.92.95.32.07.78-.36,1.43-.7ZM105.03,440.5c-.27-.14-.54-.28-.82-.42-.19.42-.57.87-.5,1.25.06.36.55.71.95.92.11.06.78-.39.8-.64.04-.36-.27-.74-.44-1.12ZM60.23,554.37c-1.25-.62-1.7-1.03-2.04-.96-.36.07-.61.59-.91.91.37.27.72.74,1.11.77.43.04.9-.33,1.83-.72ZM390.54,304.67c-.58-.3-1.02-.68-1.21-.6-.38.17-.73.55-.87.91-.05.14.62.71.81.65.4-.11.7-.51,1.26-.96ZM11.92,478.06c.38-.41.79-.66.81-.93.02-.26-.36-.55-.56-.83-.36.25-.81.45-1.04.78-.07.11.42.53.8.98ZM609,263.09c-.59-.3-1.02-.67-1.21-.59-.38.17-.73.55-.86.91-.05.14.62.7.82.65.4-.11.69-.51,1.25-.97ZM409.13,311.91c.41-.47.89-.79.83-1-.09-.35-.52-.64-.81-.95-.3.23-.87.48-.84.67.06.38.44.72.82,1.28ZM608.96,298.87c-.54-.34-.88-.72-1.16-.68-.33.04-.59.45-.88.69.29.26.55.69.87.73.28.03.63-.38,1.18-.74ZM51.8,454.35c.33-.48.72-.79.69-1.07-.03-.27-.48-.51-.74-.77-.31.3-.74.57-.88.92-.06.15.49.5.93.92ZM64.83,559.1c-.38.48-.87.93-.79,1.02.27.34.72.55,1.11.81.2-.3.58-.62.56-.91-.01-.26-.46-.51-.88-.92ZM244.85,387.76c-.56-.26-.94-.58-1.23-.53-.33.06-.59.46-.87.71.38.27.72.62,1.15.75.14.04.5-.48.95-.93ZM435.85,285.88c-.53.51-.99.79-1.12,1.15-.06.18.58.81.74.76.42-.12.86-.44,1.06-.79.1-.17-.33-.58-.67-1.13ZM85.94,459.33c-.5-.4-.78-.79-1.04-.79-.31,0-.61.36-.91.57.23.27.42.69.71.76.26.06.64-.26,1.24-.55ZM78.21,570.94c-.39.57-.77.88-.72,1.12.05.24.52.47.86.56.12.03.56-.37.54-.54-.04-.3-.32-.57-.68-1.13ZM277.79,382.01c-.45-.29-.72-.57-1.04-.63-.16-.03-.64.42-.6.49.16.28.42.57.72.71.12.06.46-.27.92-.57ZM595.42,311.23c-.2-.5-.28-.95-.41-.97-.34-.04-.74.07-1.05.22-.07.03.03.65.19.71.31.12.71.03,1.27.03ZM569.52,346.3c-.7-.31-1.02-.57-1.25-.52-.33.07-.6.37-.9.57.18.21.37.59.55.59.34,0,.66-.24,1.6-.63ZM561.5,270.06c.34-.42.72-.73.66-.84-.16-.28-.49-.52-.81-.66-.07-.03-.59.4-.55.55.07.29.38.54.71.95ZM72.58,566.09c-.46-.29-.73-.58-1.06-.64-.17-.03-.65.43-.61.5.16.29.43.58.74.73.12.06.46-.28.94-.59ZM435.71,321.55c-.39.56-.77.88-.72,1.12.05.24.52.47.86.56.12.03.56-.37.54-.54-.04-.3-.32-.57-.68-1.13ZM455.61,315.96c-.27.29-.57.46-.57.64,0,.19.27.52.43.53.22,0,.59-.22.62-.39.04-.18-.24-.42-.48-.77ZM157.66,559.47c-.24.31-.43.48-.49.68-.03.12.2.42.25.4.26-.06.5-.19.74-.3-.13-.21-.27-.42-.5-.79ZM151.76,565.95c-.45-.18-.71-.29-.97-.39-.08.25-.2.5-.22.75,0,.06.37.23.49.19.22-.08.39-.29.7-.55ZM172.02,381.91c-.53-.22-.8-.42-1.06-.41-.21,0-.55.25-.58.42-.03.17.25.5.43.53.21.03.47-.19,1.21-.54ZM190.72,471.4c.07-.13.16-.25.2-.39.01-.03-.17-.17-.2-.15-.14.07-.25.17-.38.26.12.09.25.19.38.28ZM197.8,477.15c-.09-.16-.15-.37-.29-.46-.1-.06-.33.05-.51.08.09.21.18.42.27.63.18-.08.35-.16.53-.24ZM190.63,482.71c-.1.12-.19.25-.29.37.16.06.31.13.47.16.04,0,.17-.15.16-.17-.1-.13-.22-.24-.34-.36ZM78.08,488.65c-.1.12-.19.25-.29.37.16.06.31.13.47.16.04,0,.17-.15.16-.17-.1-.13-.22-.24-.34-.36ZM190.96,494.81c-.15-.07-.31-.15-.47-.2-.02,0-.15.17-.13.21.07.12.2.22.3.33.1-.11.2-.23.3-.34ZM184.01,500.53c-.1.12-.19.25-.29.37.16.06.31.13.47.16.04,0,.17-.15.16-.17-.1-.13-.22-.24-.34-.36ZM297,376.25c-.09-.15-.14-.36-.29-.44-.08-.05-.42.09-.44.18-.04.13.11.3.18.46.18-.07.36-.13.54-.2ZM495.03,316.38c-.07.16-.14.33-.2.49.17.06.37.18.52.15.1-.03.24-.33.19-.4-.09-.12-.32-.17-.5-.24ZM217.5,411.62c-.17-.08-.34-.16-.51-.24-.07.16-.15.33-.22.49.17.06.36.19.51.16.11-.02.15-.26.22-.41ZM336.79,293.09c-.09-.16-.14-.37-.28-.45-.1-.06-.32.05-.49.08.09.2.17.41.26.61.17-.08.34-.16.51-.23ZM587.78,328.95c.19-.06.37-.12.56-.18l-.22-.49c-.21.09-.42.18-.63.27.1.13.19.27.29.4ZM12.28,465.06c-.17-.08-.34-.16-.52-.23-.07.16-.14.33-.21.49.17.06.37.19.51.16.11-.02.15-.27.22-.41ZM210.88,429.43c-.17-.08-.34-.16-.52-.23-.07.16-.14.33-.21.49.17.06.37.19.51.16.11-.02.15-.27.22-.41ZM488.94,310.68c-.17-.08-.34-.16-.51-.24-.07.16-.15.33-.22.49.17.06.36.19.51.16.11-.02.15-.26.22-.41ZM196.91,465.2c.18.1.31.2.47.25.04.01.21-.13.2-.15-.08-.14-.19-.27-.28-.4-.12.1-.25.19-.38.3ZM164.47,387.96c-.14-.08-.28-.18-.43-.27-.06.07-.17.16-.15.21.05.13.16.25.25.37.11-.1.22-.21.33-.31ZM204.21,447.37c-.14-.09-.28-.19-.44-.27-.02,0-.19.14-.17.17.05.14.16.26.24.39.12-.1.24-.2.37-.3ZM170.77,536.16c-.1.12-.19.25-.29.37.16.06.31.13.47.16.04,0,.18-.15.16-.17-.1-.13-.22-.24-.34-.36ZM177.05,518.64c.18.1.31.2.47.25.04.01.21-.13.2-.15-.08-.14-.19-.27-.28-.4-.12.1-.25.19-.38.3ZM171.11,524.56c-.14-.09-.28-.19-.43-.26-.02,0-.18.13-.17.17.05.14.16.26.24.39.12-.1.24-.2.36-.3ZM58.55,471.09c-.14-.08-.28-.18-.43-.27-.06.07-.17.16-.15.21.05.13.16.25.25.37.11-.11.22-.21.34-.31ZM290,334.14c-.13.1-.36.18-.38.3-.02.14.12.31.2.46.2-.14.4-.27.6-.41-.14-.12-.28-.23-.42-.35ZM183.97,512.4c-.08.14-.18.27-.24.42-.01.03.16.16.2.15.15-.06.28-.16.42-.25-.13-.11-.26-.21-.39-.32ZM111.06,435.14c-.07.16-.14.33-.2.49.17.06.37.18.52.15.1-.03.24-.33.19-.4-.09-.12-.32-.17-.5-.24ZM613.99,269.25c.18.1.31.2.47.25.04.01.21-.13.2-.15-.08-.14-.19-.27-.28-.4-.12.1-.25.19-.38.3ZM197.25,453.02c-.1.12-.19.25-.29.37.16.06.31.13.47.16.04,0,.17-.15.16-.17-.1-.13-.22-.24-.34-.36Z"/>
  <path class="cls-1" d="M901.99,122.84c-.46.99-1.26,1.97-1.31,2.98-.08,1.68-1.02,1.9-2.52,1.89-.91,0-1.52-.12-1.5-1.08,0-.2,0-.4-.06-.59-.68-2.25-2.51-3.41-4.85-3.08-2.14.3-3.74,1.88-3.42,4.04.26,1.74-.2,1.73-1.78,1.4-2.69-.56-5.87,1.79-5.41,4.59.17,1.04-.13,1.29-1.36,1.34-3.49.13-4.54,1-5.25,4.17-.19.83-.39,1.24-1.41,1.16-.91-.07-1.79,0-1.73-1.21.03-.47-.14-.98-.33-1.44-.41-.95-.18-1.22.99-1.08,1.86.22,3.25-.57,3.93-2.1.57-1.28.33-2.54-.81-3.56-1.04-.93-2.33-1.14-3.67-.78-1.65.45-2.42,1.57-2.69,3.07-.1.53,1.04,1.77-.85,1.51-2.73-.38-3.25-.71-3.01-2.14.07-.41.65-.81,1.08-1.11.22-.16.65-.05.97-.13,2.1-.53,3.49-1.99,3.62-3.79.14-1.88-1.2-3.52-3.45-4.2-.71-.21-1.9-.22-2.05-.6-.41-.98-.41-2.11-.46-3.18,0-.2.5-.52.83-.6.52-.13,1.11-.03,1.63-.17,1.77-.47,2.92-2.02,2.76-3.62-.17-1.73-1.78-3.14-3.71-3.23-1.81-.09-3.46.97-3.98,2.57-.03.09-.03.2-.05.29-.15.64-.26,1.8-.47,1.82-1.07.08-2.3.08-3.21-.35-.51-.24-.58-1.36-.66-2.1-.02-.17.71-.5,1.14-.6.63-.15,1.33-.07,1.94-.26,1.8-.54,3.03-2.2,2.99-3.9-.04-1.74-1.23-3.48-3.19-3.68-2.26-.23-2.83-1.17-2.61-2.94.03-.27-.16-.57-.28-.84-.48-1.09.13-1.12,1.1-.99.52.07,1.11-.02,1.61-.18,1.79-.56,2.76-2.09,2.44-3.75-.28-1.45-1.49-2.47-3.13-2.65-1.85-.19-3.54.76-4.04,2.4-.17.55.01,1.18-.1,1.75-.05.24-.48.6-.71.59-.65-.05-1.27-.35-1.92-.39-.88-.06-1.46-.21-1.46-1.17,0-.89.11-1.53,1.35-1.59,1.91-.1,3.48-.89,4.11-2.54.41-1.07-.13-2.67.57-3.34.7-.67,2.48-.32,3.68-.7,1.44-.45,2.36-1.55,2.49-2.92.14-1.46.91-1.57,2.35-1.69,1.7-.13,2.72-.45,2.92,1.69.17,1.83,2.34,2.9,4.14,2.6,1.68-.28,2.95-1.56,3.07-3.09.14-1.82-1.02-3.08-3.22-3.51-.8-.16-2.19.43-1.69-1.25.33-1.1.04-2.45,2.09-2.36.83.04,1.22.21,1.25.96.01.39.03.8.17,1.17.7,1.9,2.68,3.04,4.86,2.84,2.02-.18,3.81-1.53,3.91-3.44.08-1.58,0-2.41,2.37-2.13,2.32.27,4.28-1.34,4.59-3.48.22-1.55.82-2.04,2.44-1.94.52.03,1.07-.2,1.61-.31.69-.14,1.03,0,.92.74-.07.47-.03,1,.11,1.45.5,1.55,2.06,2.5,3.74,2.34,1.7-.16,3.05-1.4,3.18-2.94.13-1.57-.91-2.9-2.62-3.35-.11-.03-.22-.03-.33-.05-.71-.13-2.04-.28-2.03-.4.03-.97.16-1.99.57-2.88.16-.34,1.14-.51,1.72-.49.33.02.69.56.93.93.15.24.07.59.16.87.69,2.32,2.57,3.6,5.03,3.46,2.42-.14,4.06-1.62,4.48-4.04.1-.56.14-1.54.39-1.59.94-.19,1.96-.14,2.93,0,.19.03.33.82.35,1.27.09,1.99,1.08,3.42,3.19,4.09,2.92.93,5.69-.66,6.34-3.57.42-1.84.64-1.95,2.62-1.85.86.04,1.02.33,1.14,1.05.57,3.45,1.02,3.94,4.78,4.59,1.26.22,1.25.76,1.28,1.62.03,1.04-.19,1.49-1.56,1.69-4.08.57-5.48,2.86-4.18,6.4.1.28.32.54.36.82.03.28-.11.57-.17.85v-.03c-1.25-1.46-2.84-1.32-4.38-.54-1.34.68-2.01,1.86-1.74,3.26.29,1.5,1.37,2.43,3.01,2.83.7.17,1.98.29,2,.5.1,1.15-.06,2.33-.27,3.48-.03.17-.75.26-1.16.36-3.89.97-4.93,2.27-4.14,5.77.34,1.53-.31,1.08-1.29.94-2.66-.38-4.55.73-4.95,2.76-.44,2.23.99,3.81,3.81,4.22.66.1,1.82-.31,1.5.89-.25.9.5,2.36-1.47,2.52-3.55.27-5.32,2.1-5.44,5.23-.04.94-.57,1.11-1.45,1.2-2.98.28-4.47,1.93-4.74,4.49-.09.81-.26,1.18-1.3,1.28-1.39.14-2.74.57-4.1.88.22-.75.61-1.51.62-2.26.04-1.73-1.82-3.18-3.69-3.02-1.82.15-3.19,1.6-3.08,3.26.12,1.79,1.81,3.07,3.85,2.77.84-.13,1.62-.56,2.42-.86ZM929.19,73.17c-.04-1.83-1.53-3.16-3.57-3.19-2.09-.03-3.87,1.54-3.8,3.35.06,1.63,1.84,3.21,3.66,3.26,2.04.05,3.76-1.53,3.72-3.42ZM915.47,108.93c.04-1.57-1.33-2.85-3.08-2.88-1.73-.03-3.19,1.22-3.22,2.76-.03,1.55,1.36,2.85,3.08,2.89,1.73.04,3.18-1.2,3.22-2.76ZM915.43,73.39c.09-1.58-1.21-2.86-2.96-2.93-1.73-.07-3.21,1.12-3.29,2.65-.08,1.51,1.29,2.87,2.97,2.96,1.69.09,3.2-1.14,3.28-2.67ZM908.44,114.77c-.02-1.22-1.48-2.48-2.83-2.43-1.41.05-2.66,1.32-2.57,2.62.08,1.24,1.21,2.2,2.61,2.22,1.47.02,2.81-1.14,2.79-2.41ZM872.75,122.96c1.4-.07,2.38-1.07,2.3-2.35-.08-1.26-1.2-2.16-2.62-2.08-1.39.07-2.41,1.11-2.32,2.35.09,1.22,1.26,2.15,2.63,2.08ZM921.13,90.92c-.09-1.02-.73-1.72-2.03-1.82-1.26-.1-2.45.86-2.38,1.96.08,1.13.8,1.84,2.07,1.97,1.23.13,2.35-.86,2.35-2.11ZM866.13,93.04c1.23-.08,2.16-1.09,2.03-2.2-.13-1.14-1.22-1.91-2.49-1.73-1.26.18-1.86.95-1.91,2.01-.05,1.05,1.2,2,2.37,1.92ZM892.5,81.05c1.14-.02,2.08-.84,2.09-1.84.01-1.11-1.09-2.06-2.32-1.93-1.28.14-1.89.88-1.89,1.99,0,1.05.94,1.8,2.12,1.78ZM868.04,102.42c-.52-.33-1.25-1.07-2.13-1.29-1.01-.24-2,.88-1.9,1.91.1,1.02.75,1.59,1.89,1.65,1.17.06,2.15-.76,2.14-2.27ZM881,127.13c-.1-1.56-.83-2.2-1.91-1.96-.65.14-1.44.86-1.59,1.44-.25.98.56,1.77,1.67,1.61.75-.1,1.39-.81,1.83-1.1ZM885.88,86.93c.66-.87,1.38-1.41,1.31-1.84-.07-.47-.88-.86-1.36-1.28-.46.44-1.23.84-1.3,1.32-.06.43.67.95,1.34,1.8ZM887.26,120.82c-.57-.45-.93-.96-1.31-.96-.4,0-.81.45-1.22.71.37.39.68.91,1.15,1.12.2.09.75-.45,1.38-.86ZM874.13,108.93c-.69-.46-1.12-.93-1.62-1.02-.28-.05-1.05.7-.97.85.21.44.67.91,1.15,1.06.27.08.77-.46,1.44-.9ZM913.15,96.89c-.4-.21-.67-.47-.88-.43-.2.03-.46.37-.45.57,0,.15.39.4.61.4.2,0,.4-.28.72-.53ZM879.08,90.51c-.12.25-.26.47-.31.71-.01.05.43.27.49.22.2-.15.31-.38.46-.58-.18-.1-.36-.19-.64-.35ZM919.25,79.1c-.17-.08-.34-.16-.51-.24-.07.16-.15.33-.22.49.17.06.36.19.51.16.11-.02.15-.26.22-.41Z"/>
  <path class="cls-1" d="M968.79,82.02c-4.19-2.33-7.1-1.35-8.34,2.86-.22.77-.36,1.23-1.4,1.21-1.11-.02-1.57-.37-1.6-1.37-.02-.57-.39-1.13-.45-1.71-.02-.19.4-.57.66-.61.53-.08,1.11.11,1.62.02,1.88-.35,3.05-1.74,2.97-3.41-.09-1.71-1.45-2.95-3.36-3.05-1.87-.1-3.43.94-3.84,2.62-.11.46.05.98.01,1.46-.02.23-.24.65-.32.64-1.08-.14-2.2-.23-3.19-.59-.39-.14-.51-.93-.71-1.43-.44-1.1-.86-2.21-1.29-3.31.93.25,1.86.69,2.8.7,1.73.01,3.03-1.45,2.91-3-.11-1.43-1.4-2.6-3-2.7-1.72-.11-3.37,1.04-3.36,2.6,0,.84.49,1.68.76,2.51-1.34-.39-2.66-.95-4.04-1.11-1.19-.14-1.34-.66-1.49-1.52-.31-1.72-.37-1.71,1.62-2,2.36-.35,3.9-1.95,3.68-3.84-.22-1.92-2-3.45-4.37-3.21-1.74.18-1.81-.24-1.44-1.45.14-.46.16-.99.08-1.47-.18-1.07.35-1.27,1.45-1.38,3.75-.37,4.79-1.51,4.66-5.07-.03-.84.16-.93,1.03-.95,4.52-.07,5.55-1.01,5.52-5.09,0-.96.45-.83,1.16-.84,4.51-.04,5.71-1.24,5.35-5.44-.07-.87.22-1.02,1.07-.88.64.1,1.32.21,1.95.12,2.11-.27,3.55-1.82,3.55-3.7,0-1.89-1.43-3.42-3.52-3.72-.43-.06-.89-.06-1.32-.01-.94.12-1.53.02-1.21-1.05.22-.74.08-1.99.51-2.16,1.16-.45,2.54-.47,3.84-.59.11-.01.35.42.39.65.09.68-.03,1.41.19,2.04.55,1.56,2.44,2.53,4.17,2.26,1.79-.28,3.11-1.71,3.11-3.36,0-1.7-1.22-3.02-3.15-3.28-.74-.1-1.51-.03-2.27-.04.12-.85.34-1.69.34-2.54,0-1.02.48-1.25,1.56-1.41,3.52-.52,4.78-1.7,4.93-4.9.06-1.32.63-1.31,1.74-1.45,3.31-.42,4.88-2.16,4.38-5.13-.25-1.48.17-1.29,1.43-1.2,2.72.2,4.61-1.29,4.8-3.47.2-2.26-1.26-3.76-4.06-4.15-.22-.03-.44-.01-.66,0-.86.02-1.05-.29-.96-1.08.25-2.25.2-2.21,2.3-2.38,1.07-.09,1.42,0,1.55,1.15.36,3.21,1.96,4.24,5.58,3.74,1.41-.19,1.39.14,1.18,1.2-.59,2.9.61,4.69,3.87,5.01,2.01.2,1.51,1.13,1.66,2.16.19,1.38-.2,1.83-1.87,1.97-2.63.22-4.06,1.83-4.06,3.91,0,2.19,1.57,3.64,4.37,4.02.78.11,1.95-.31,1.69,1.09-.19,1.04.41,2.24-1.85,2.38-3.54.22-5.23,2.48-4.57,5.54.22,1.05.55,1.56-1.19,1.45-2.72-.17-4.23,1.04-4.42,3.01-.2,2.09,1.26,3.6,4.02,3.72,1.45.06,1.62.42,1.3,1.54-.19.65-.09,1.38-.05,2.06.04.76-.32,1.07-1.15,1.06-.44,0-.89.01-1.31.11-1.93.44-3.27,1.93-3.32,3.63-.05,1.56,1.06,3.05,2.82,3.67.6.21,1.29.24,1.92.4.27.07.7.29.71.45.03.88.1,1.81-.17,2.64-.11.34-1.01.53-1.59.69-2.69.77-3.92,2.07-3.89,4.17.03,2.14,1.27,3.4,4.03,3.99.74.16,1.64,0,1.48,1.09-.14.91.28,2.02-1.43,2.22-.94.11-1.83.61-2.74.93.1-.88.33-1.76.28-2.63-.11-1.94-1.86-3.21-4.02-3.06-1.97.14-3.46,1.58-3.47,3.33,0,1.83,1.7,3.44,3.76,3.38.96-.03,1.91-.37,2.87-.56-.56,1.5-.65,3.56-1.82,4.36-1.24.85-3.47.6-4.92,1.73.31-.83.76-1.64.91-2.49.37-2.05-1.25-3.72-3.51-3.77-2.09-.05-3.86,1.43-3.89,3.26-.04,1.89,1.94,3.59,4.08,3.41.85-.07,1.68-.33,2.52-.51-.32.71-1,1.46-.9,2.13.34,2.38-1.08,2.8-3.23,2.76-.61-.01-1.23.28-1.84.43.17-.46.37-.92.5-1.39.43-1.63-.29-2.89-1.7-3.84-1.43-.96-3.12-.92-4.57.03-1.49.97-1.98,2.3-1.57,3.87.17.66.5,1.29.76,1.93ZM991.67,28.82c2.03.04,3.56-1.28,3.57-3.07.01-1.76-1.57-3.16-3.53-3.14-1.88.02-3.28,1.24-3.38,2.94-.11,1.84,1.3,3.22,3.33,3.26ZM991.68,16.54c1.57.05,2.95-1.15,2.99-2.61.05-1.5-1.17-2.65-2.84-2.68-1.64-.03-3.01,1.1-3.05,2.54-.04,1.35,1.39,2.7,2.9,2.75ZM981.35,25.65c-.04-1.46-1.36-2.54-2.99-2.46-1.63.08-2.8,1.29-2.67,2.76.12,1.34,1.34,2.34,2.83,2.33,1.62,0,2.87-1.17,2.83-2.63ZM985.19,57.7c1.39-.02,2.54-1.03,2.56-2.24.02-1.16-1.18-2.3-2.48-2.36-1.47-.07-2.74,1.08-2.67,2.43.07,1.27,1.17,2.19,2.6,2.17ZM954.24,61.43c.04-1.14-.93-2.05-2.21-2.04-1.22,0-2.35.99-2.23,2.05.12,1.09.85,1.78,2.08,1.91,1.2.13,2.31-.82,2.36-1.92ZM985.03,41.57c-1.25.06-2.29,1.07-2.12,2.16.17,1.11.97,1.75,2.18,1.85,1.19.1,2.27-.95,2.26-2.05-.01-1.17-1.02-2.01-2.32-1.95ZM959.31,57.38c.39-.49,1.23-1.13,1.45-1.91.3-1.07-.91-2.02-2.18-1.98-1.25.04-2.21,1.03-2.04,2.16.17,1.14.97,1.67,2.77,1.73ZM985.81,17.97c-1.69-.09-2.66.76-2.65,1.82,0,1.04.63,1.65,1.76,1.79,1.13.14,2.46-.72,2.23-1.64-.2-.81-1-1.49-1.34-1.97ZM967.67,49.62c-1.04-.75-1.56-1.39-2.22-1.55-.93-.23-1.66.31-1.87,1.19-.2.83.72,1.91,1.64,1.75.7-.13,1.3-.71,2.46-1.39ZM987.21,31.68c-.85-.6-1.32-1.19-1.92-1.31-1.01-.21-1.84.45-1.66,1.29.11.55,1.01,1.19,1.68,1.35.39.09,1.04-.69,1.9-1.32ZM966.95,73.33c-.63-.53-1.17-1.25-1.45-1.18-.55.14-.97.73-1.44,1.14.41.35.8.96,1.23.98.46.02.95-.51,1.66-.94ZM971.69,41.74c-.43.9-.81,1.33-.77,1.72.04.36.55.67.85,1.01.36-.26.93-.48,1.01-.81.08-.3-.37-.71-1.09-1.93ZM971.75,67.93c.33-.28.58-.42.69-.62.05-.09-.18-.44-.27-.44-.25.01-.63.09-.71.25-.08.15.14.43.28.81ZM979.25,61.24c-.42-.18-.67-.28-.92-.38-.08.24-.19.47-.2.72,0,.06.35.22.47.18.21-.08.37-.27.66-.51ZM978.83,37.53c-.17-.08-.34-.16-.52-.23l-.21.49c.17.06.37.19.51.16.11-.02.15-.27.22-.41Z"/>
  <path class="cls-3" d="M818.97,151.43c-.25.43-.62.84-.74,1.3-.35,1.32-.18,2.95-1.01,3.9-.7.8-2.62.65-3.81,1.24-1.44.71-2.01,2.05-1.92,3.54.05.79-.09,1.38-1.22,1.26-.96-.1-2.08.1-2.01-1.31.03-.58-.02-1.2-.2-1.76-.27-.79-.04-1.05.87-1.05.64,0,1.32-.1,1.91-.32,1.65-.63,2.47-2.04,2.19-3.6-.26-1.46-1.43-2.5-3.06-2.72-1.74-.23-3.29.52-4.01,1.99-.17.35-.21.76-.36,1.13-.21.5.65,1.49-.85,1.42-2.49-.12-2.96-.38-3.06-1.79-.05-.74-.08-1.37,1.07-1.43.64-.03,1.31-.21,1.89-.46,1.73-.73,2.62-2.16,2.45-3.85-.16-1.63-1.14-2.75-2.82-3.35-2.59-.92-2.8-1.24-2.72-3.56.03-.78.31-1.07,1.13-1.03.22.01.45,0,.66-.05,2.23-.48,3.61-1.96,3.51-3.72-.11-1.77-1.58-3.35-3.85-3.43-1.82-.06-2.09-.51-1.52-1.87.11-.26.12-.62.01-.88-.61-1.52-.35-2.16,1.74-2.22,2.12-.07,3.36-1.67,3.29-3.45-.08-1.79-1.59-3.16-3.6-3.23-1.98-.07-3.49,1.05-3.93,2.94-.07.29-.06.59-.03.89.1,1.05-.48,1.01-1.42.9-1.05-.12-2.22-.14-3.2.15-2.36.7-3.58,2.33-3.43,4.54.1,1.46-.14,2.04-1.99,2.16-2.23.14-3.6,1.77-3.65,3.59-.05,1.72,1.15,3.14,3.15,3.72.31.09.68.07.96.2.48.23,1.34.72,1.3.79-.45.89.58,2.34-1.2,2.73-.21.05-.44.04-.65.09-3.39.85-4.77,2.65-4.07,5.67.27,1.18.25,1.72-1.27,1.42-.21-.04-.44-.05-.66-.03-1.99.17-3.41,1.29-3.66,2.88-.24,1.51.88,3.42,2.71,3.56,2.4.18,2.33,1.06,2.09,2.77-.17,1.21-.02,1.88-1.77,2.1-2.5.32-3.76,1.87-3.78,3.83-.02,1.95,1.27,3.62,3.69,3.94,1.72.23,1.91.76,1.73,2.07-.14.97-.79.96-1.54,1.16-3.54.96-4.61,2.11-4.57,5.24.01,1.23-.24,1.61-1.69,1.81-3.06.42-4.51,2.58-3.56,4.9.64,1.57,1.98,2.38,3.81,2.35,1.26-.02,1.43.41,1.26,1.42-.23,1.3.2,2.55-2.26,2.68-2.53.13-3.97,2.28-3.79,4.48.18,2.24,1.86,3.72,4.51,3.99,2.15.22,2.27.44,2.15,2.31-.06.88-.54.84-1.23.93-1.29.17-2.55.48-3.83.73.15-.57.36-1.13.44-1.7.31-2.18-1.19-3.95-3.5-4.16-2.13-.19-4.08,1.3-4.24,3.24-.17,2.13,1.44,3.69,3.94,3.76.75.02,1.51-.07,2.27-.11-.1.38-.29.76-.3,1.15-.03,1.99-.48,3.23-3.32,3.32-2.33.07-3.55,2.09-3.39,4.68.07,1.15,0,1.47-1.45,1.44-3.02-.05-4.83,1.43-4.96,3.68-.13,2.35,1.6,3.86,4.83,4.19.59.06,1.58-.22,1.25.75-.27.77.62,2.1-1.29,2.25-2.02.15-2.21.12-2.69-1.7-.59-2.23-2.35-3.42-4.74-3.2-2.29.21-4.02,1.85-3.88,4.04.08,1.24.52,1.89-1.58,1.58-3.1-.47-5.24,1.33-5.32,4.26-.04,1.35-.4,1.59-1.8,1.59-1.28,0-2.55.48-3.82.75.26-.74.67-1.48.74-2.23.18-2.03-1.54-3.6-3.78-3.57-2.2.03-3.93,1.73-3.73,3.66.21,2.04,2.43,3.5,4.69,3.01.73-.16,1.39-.55,2.08-.84-2.16,5.09-.66,4.07-6.93,6.36.37-.71.88-1.39,1.09-2.14.55-1.95-.86-3.8-3.07-4.18-2.31-.39-4.42,1.12-4.54,3.25-.11,2.06,1.53,3.69,3.81,3.61.95-.03,1.89-.42,2.84-.65-.26.94-.6,1.88-.77,2.83-.36,1.98-.45,2.03-2.49,1.93-.98-.05-1.37-.34-1.34-1.22.02-.58-.05-1.2-.25-1.75-.68-1.87-2.65-3.05-4.82-2.94-2.3.11-3.97,1.47-4.47,3.69-.2.86.32,1.95-1.6,1.9-1.57-.05-2.18-.12-2.35-1.78-.23-2.34-2.46-3.8-4.76-3.69-2.35.11-4.18,1.65-4.31,4.08-.08,1.42-.58,1.44-1.91,1.44-3.12,0-4.91,1.44-5.3,4.24-.17,1.18-.43,1.7-1.87,1.8-2.79.18-4.44,1.71-4.71,4.17-.14,1.26-.78,1.37-1.89,1.42-1.19.06-1.34-.46-1.58-1.36-.96-3.49-4.13-4.93-7.07-3.34-1.3.7-1.99,1.75-2.28,3.1-.35,1.61-.77,1.73-3.3,1.69-1.52-.02-.94-1.01-1.09-1.66-.53-2.18-2.07-3.35-4.34-3.29-2.09.06-3.76,1.4-4.06,3.26-.35,2.12,1.14,3.79,3.9,4.33.77.15,1.95-.25,1.65,1.13-.21.98.2,2.34-1.74,2.28-.32-.01-.65.1-.97.18-.89.22-1.56.25-1.26-.9.1-.37.07-.79-.02-1.17-.48-1.98-2.58-3.31-4.63-2.95-2.19.38-3.56,2.1-3.21,4.16.13.76.45,1.5.68,2.25l.06-.06c-.4-.15-.8-.3-1.21-.43-3.71-1.28-6.27.08-6.83,3.6-.09.58.37,1.61-1,1.32-.92-.19-2.41.42-2.5-1.22-.02-.49-.13-.98-.24-1.46-.18-.77.11-1.08,1.01-1,.54.05,1.11.03,1.64-.08,1.92-.4,3.25-1.99,3.14-3.69-.11-1.77-1.88-3.37-3.85-3.5-1.87-.12-3.68,1.08-4.17,2.77-.06.19-.08.39-.12.58-.13.62-.15,1.72-.4,1.76-.82.14-1.74-.04-2.59-.21-.63-.12-1.36-3.2-.81-3.38.69-.23,1.53-.09,2.26-.25,1.94-.44,3.19-1.99,3.08-3.73-.1-1.7-1.61-3.2-3.49-3.47-2.34-.34-4.26,1.1-4.74,3.53-.11.54.48,1.71-.92,1.3-1.12-.33-3.08.77-3.24-1.5-.13-1.76-.3-1.75,1.72-1.95,2.39-.23,4.01-1.67,4.05-3.59.04-2.02-1.79-3.9-4.22-3.67-2.15.21-2.07-.5-1.69-1.84.11-.37.05-.79.02-1.18-.05-.7.17-1.14,1.07-1.11,3.38.13,5.16-1.41,5.41-4.35.08-.97.6-1.02,1.47-1.11,4.14-.43,5.22-1.41,5.52-5.25.08-1.04.56-.99,1.39-1.08,3.56-.42,4.67-1.5,4.87-4.81.05-.85.12-1.14,1.22-1.2,4.06-.22,5.09-1.15,5.36-4.89.08-1.08.57-.96,1.42-1,3.93-.2,5.64-1.88,5.07-5.32-.25-1.51.44-1.05,1.36-1,2.39.13,4.08-.81,4.73-2.48.86-2.22-.43-4.48-3.12-5.01-1.32-.26-2.4-.28-2.01-1.88.24-.96,1.48-1.68,3.04-1.53.3.03.69.38.8.66.21.55.14,1.19.38,1.72.69,1.59,2.51,2.47,4.25,2.14,1.65-.32,2.91-1.63,3.01-3.15.11-1.69-1.02-3.04-2.91-3.46-.42-.09-.88-.12-1.31-.08-1.04.1-1.01-.36-.82-1.06.15-.57.02-1.22.26-1.75.19-.43.69-1,1.14-1.06,3.21-.45,4.93-2.03,4.97-4.97,0-.7.2-.99,1.05-1.16,4.53-.89,4.87-1.22,5.37-5.06.09-.71.24-1.12,1.13-1.01.33.04.67.05.99,0,2.64-.35,4.31-1.88,4.46-4.06.15-2.33-1.37-4.01-4.16-4.59-1.79-.38-2.15-.8-1.85-1.95.3-1.17,1.4-.67,2.14-.92,1.38-.45,2.12-.49,1.99,1.31-.12,1.69,1.23,2.84,2.88,3.19,1.44.31,2.61-.17,3.55-1.11,1.07-1.07,1.17-2.35.52-3.6-.74-1.42-2.12-1.95-3.82-1.8-1.13.1-1.36-.33-1-1.19.04-.09.11-.19.1-.28-.14-2,.36-3.28,3.05-3.64,1.96-.26,2.88-2.14,2.67-3.94-.21-1.86-1.63-3.11-3.9-3.45-.67-.1-1.86-.25-1.88-.46-.11-.95.08-1.94.26-2.91.03-.14.54-.24.84-.3,4.32-.94,4.62-1.19,5.17-4.91.1-.7.24-1.05,1.14-1.02,3.28.1,5.16-1.29,5.61-4.26.05-.36.8-.85,1.26-.89.77-.07,1.85-.42,2.17.74.08.29.09.59.19.87.84,2.42,2.57,3.62,5,3.49,2.4-.13,4.02-1.42,4.45-4.02.21-1.27.75-1.36,1.9-1.28.95.07,1.24.38,1.44,1.22.27,1.13.89,2.18,1.37,3.27-.93-.24-1.85-.64-2.8-.69-1.96-.11-3.58,1.33-3.65,3.05-.07,1.78,1.75,3.42,3.73,3.36,1.92-.06,3.53-1.51,3.41-3.27-.06-.85-.5-1.68-.77-2.51,2.72,1.88,5.4,1.51,8.06-.12-.25.74-.61,1.47-.73,2.22-.29,1.79.94,3.15,2.84,3.3,1.89.15,3.5-1.07,3.59-2.73.1-1.75-1.54-3.16-3.6-3.04-.75.04-1.48.23-2.22.35.38-.92,1.01-1.83,1.08-2.77.11-1.5,1.06-1.66,2.38-1.81,1.2-.14,1.63.14,1.53,1.21-.03.38.11.79.25,1.16.64,1.71,2.38,2.72,4.33,2.55,1.8-.16,3.33-1.39,3.69-2.96.39-1.7-.56-3.42-2.36-4.15-.49-.2-1.05-.26-1.58-.35-.67-.11-1.73.23-1.42-.98.24-.94-.34-2.29,1.68-2.31,1.22-.02,2.19-.51,2.28,1.34.12,2.27,1.89,3.45,4.14,3.35,1.93-.08,3.57-1.4,3.86-3.11.31-1.84-1.05-3.81-3.4-4.05-1.89-.19-2.24-.84-1.77-2.19.16-.45.64-.95,1.12-1.13,1.1-.42,2.28-.67,3.43-.99-.07.68-.24,1.37-.18,2.05.13,1.76,1.57,2.93,3.44,2.89,1.84-.04,3.36-1.39,3.36-3.01,0-1.7-1.67-3.15-3.65-3.07-.75.03-1.49.28-2.23.44.12-.17.29-.32.35-.5.4-1.21.42-2.71,1.25-3.57.73-.75,2.43-.66,3.58-1.17,1.6-.71,2.35-2.08,2.55-3.61.13-1.01.32-1.59,1.7-1.66,2.97-.16,4.55-1.84,4.92-4.38.16-1.07.48-1.51,1.77-1.59,2.82-.17,4.38-1.76,4.79-4.16.19-1.12.68-1.42,1.86-1.54,2.86-.3,4.5-1.83,5.03-4.38.1-.47.52-1.09.97-1.26.78-.3,1.71-.32,2.58-.38.12,0,.32.45.41.72.21.66.25,1.38.58,1.98.72,1.31,2.39,2,3.85,1.73,1.68-.31,2.92-1.62,2.98-3.14.07-1.6-.96-2.85-2.7-3.3-.11-.03-.22-.04-.32-.06-.64-.08-1.76-.05-1.83-.27-.19-.6.03-1.32.16-1.99.2-.97,1.76-1.79,2.97-1.56.25.05.56.3.62.51.14.47.06,1,.2,1.46.55,1.81,2.15,2.83,4.16,2.72,1.81-.1,3.34-1.28,3.74-2.88.41-1.64-.62-3.32-2.5-4.07-.3-.12-.63-.27-.94-.26-1.46.04-1.84-.57-1.68-1.82.19-1.52,1.29-2.38,2.98-2.07.21.04.5.34.52.55.07.58-.08,1.2.05,1.76.43,1.87,2.23,3.16,4.25,3.13,1.91-.03,3.55-1.2,4.06-2.95.19-.64.18-1.8.49-1.86,1.25-.26,2.59-.27,3.87-.17.27.02.53.9.67,1.42.73,2.71,3,4.03,5.56,3.11,1.82-.66,2.81-1.95,2.63-3.72-.14-1.33.28-1.37,1.62-1.17,1.48.22,2.56.16,2.7,2.02.17,2.36,2.03,3.59,4.63,3.93.57.07,1.47.31,1.57.62.25.83.22,1.75.08,2.61-.02.15-1.16.15-1.78.2-1.97.16-3.29,1.12-3.93,2.74-.55,1.41-.27,2.85.96,3.83.84.68,2.09.94,3.15,1.41.49.22,1.4.6,1.36.72-.26.85.56,2.13-1.08,2.47-.75.15-1.55.21-2.24.48-2.25.85-3.4,2.82-2.82,5.41.3,1.35.04,1.37-1.33,1.32-2.3-.09-3.75,1.01-4.13,2.69-.36,1.6.57,3.26,2.25,3.89.49.19,1.07.29,1.61.27,1.26-.04,1.48.51,1.27,1.47-.1.48-.21,1.02-.07,1.47.47,1.51-.29,1.72-1.79,1.94-2.49.37-3.68,2-3.42,4.01.27,1.99,1.89,3.31,4.44,3.01,2.06-.25,1.94.38,1.49,1.67-.16.45-.16,1-.04,1.46.35,1.3-.21,1.35-1.52,1.32-2.79-.08-4.61,1.35-4.89,3.47-.3,2.24,1.22,3.91,4.13,4.51.69.14,1.7-.13,1.49,1.01-.17.9.2,2.01-1.49,2.21-1.17.14-2.29.64-3.43.98.14-.86.43-1.72.38-2.57-.08-1.51-1.74-2.74-3.38-2.67-1.83.08-3.22,1.56-3.06,3.23.16,1.6,1.54,2.72,3.36,2.57.95-.08,1.87-.43,2.81-.66ZM800.31,119.61c.04-2.07-1.78-3.76-4.09-3.8-2.3-.04-4.21,1.61-4.25,3.67-.04,2.07,1.8,3.78,4.1,3.81,2.29.04,4.2-1.63,4.24-3.69ZM806.27,113.71c.06-1.79-1.47-3.22-3.47-3.24-2.01-.02-3.57,1.39-3.55,3.18.02,1.68,1.45,3.01,3.32,3.1,2,.1,3.64-1.25,3.7-3.04ZM687.01,196.73c0-1.5-1.73-3.04-3.4-3.04-1.78,0-3.32,1.41-3.32,3.05,0,1.67,1.46,2.99,3.33,2.98,1.82,0,3.4-1.4,3.4-2.99ZM792.67,125.49c0-1.56-1.33-2.78-3.08-2.82-1.72-.03-3.15,1.16-3.23,2.68-.08,1.65,1.4,3,3.24,2.97,1.7-.03,3.07-1.3,3.07-2.83ZM825.84,107.76c.05-1.55-1.31-2.87-3.04-2.96-1.74-.09-3.23,1.08-3.35,2.64-.14,1.73,1.24,3.08,3.16,3.08,1.76,0,3.18-1.21,3.23-2.77ZM693.42,250.06c-.08-1.53-1.56-2.78-3.26-2.75-1.84.03-3.28,1.5-3.11,3.16.16,1.57,1.62,2.67,3.39,2.57,1.72-.1,3.06-1.44,2.98-2.98ZM776.36,175.82c1.71-.03,3.1-1.34,3.06-2.89-.04-1.57-1.47-2.79-3.22-2.75-1.72.04-3.13,1.36-3.07,2.9.05,1.54,1.52,2.78,3.23,2.75ZM822.61,93.03c-1.74,0-3.13,1.25-3.12,2.79,0,1.51,1.44,2.8,3.13,2.8,1.71,0,3.1-1.25,3.1-2.81,0-1.6-1.32-2.78-3.11-2.78ZM743.29,229.22c1.67-.06,3.02-1.42,2.92-2.95-.09-1.45-1.37-2.54-3-2.55-1.71-.01-3.17,1.28-3.14,2.77.03,1.46,1.6,2.79,3.22,2.74ZM653.52,238.19c-.07-1.6-1.47-2.71-3.27-2.59-1.6.11-2.87,1.3-2.87,2.7,0,1.47,1.53,2.82,3.16,2.79,1.7-.03,3.04-1.35,2.98-2.91ZM677.13,247.44c-1.76-.07-3.24,1.13-3.27,2.68-.04,1.52,1.42,2.86,3.11,2.87,1.59,0,2.94-1.12,3.06-2.57.14-1.63-1.1-2.9-2.9-2.98ZM643.77,241.53c-1.73.05-3.11,1.38-3,2.89.11,1.49,1.71,2.74,3.35,2.61,1.57-.12,2.79-1.34,2.79-2.78,0-1.6-1.36-2.78-3.14-2.72ZM785.96,107.53c-.09-1.59-1.54-2.72-3.32-2.59-1.61.12-2.87,1.33-2.86,2.75.01,1.49,1.55,2.82,3.2,2.78,1.71-.04,3.06-1.38,2.98-2.94ZM693.13,190.74c-.04-1.47-1.29-2.56-2.93-2.55-1.6,0-2.94,1.16-2.98,2.56-.04,1.44,1.57,2.83,3.16,2.75,1.57-.09,2.79-1.31,2.76-2.75ZM719.61,238.45c.08-1.5-1.05-2.65-2.7-2.75-1.77-.1-3.24,1.1-3.23,2.63.02,1.32,1.47,2.64,2.94,2.68,1.56.04,2.91-1.11,2.99-2.56ZM703.41,152.54c-1.61.02-2.97,1.2-2.99,2.61-.02,1.43,1.64,2.85,3.22,2.75,1.57-.1,2.81-1.35,2.76-2.8-.05-1.48-1.33-2.58-2.99-2.56ZM765.87,208.67c.03-1.47-1.28-2.63-2.92-2.58-1.52.04-2.66,1.09-2.7,2.47-.04,1.4,1.04,2.47,2.58,2.56,1.67.1,3.01-.98,3.04-2.45ZM659.95,232.37c0-1.45-1.29-2.58-2.91-2.54-1.61.04-2.84,1.24-2.76,2.69.07,1.33,1.28,2.38,2.76,2.41,1.6.03,2.91-1.11,2.91-2.56ZM785.73,143.35c.04-1.44-1.31-2.63-2.92-2.58-1.5.05-2.67,1.12-2.7,2.47-.04,1.37,1.06,2.46,2.58,2.56,1.64.1,3.01-1,3.04-2.45ZM710,146.75c-1.44.04-2.66,1.24-2.62,2.56.04,1.39,1.25,2.39,2.8,2.34,1.5-.05,2.73-1.21,2.66-2.51-.06-1.28-1.43-2.43-2.85-2.39ZM769.69,188.35c-1.43-.02-2.7,1.17-2.68,2.5.03,1.25,1.09,2.25,2.48,2.33,1.44.08,2.85-1.04,2.91-2.3.05-1.21-1.35-2.51-2.71-2.53ZM699.51,244.19c-.04-1.26-1.51-2.46-2.88-2.35-1.32.1-2.4,1.21-2.38,2.44.02,1.42,1.22,2.39,2.81,2.27,1.36-.1,2.48-1.18,2.44-2.36ZM778.95,113.58c-.02-1.25-1.49-2.47-2.85-2.38-1.31.09-2.41,1.2-2.4,2.42,0,1.42,1.19,2.4,2.78,2.3,1.36-.08,2.49-1.16,2.47-2.34ZM765.79,125.34c-.1-1.24-1.53-2.4-2.88-2.33-1.4.07-2.61,1.31-2.54,2.59.07,1.35,1.31,2.34,2.83,2.27,1.45-.07,2.69-1.28,2.59-2.53ZM769.54,117.23c-1.38.06-2.43,1.09-2.41,2.36.03,1.41,1.25,2.38,2.82,2.23,1.38-.13,2.39-1.21,2.28-2.45-.11-1.18-1.39-2.2-2.69-2.14ZM816.07,135.09c-1.38-.04-2.5.9-2.58,2.14-.08,1.38,1.07,2.43,2.6,2.39,1.38-.04,2.45-1.02,2.45-2.26,0-1.21-1.12-2.24-2.48-2.27ZM666.32,226.37c-.05-1.18-1.26-2.25-2.57-2.25-1.5,0-2.67,1.17-2.54,2.53.13,1.26,1.26,2.13,2.69,2.06,1.39-.07,2.46-1.1,2.41-2.33ZM798.31,107.36c-.14-.93-.83-1.58-2.12-1.63-1.27-.05-2.32.93-2.25,2.06.06.98,1.08,1.87,2.16,1.88,1.25.02,2.29-.97,2.21-2.31ZM696.87,182.89c-1.23-.01-2.33.95-2.3,2.02.03,1.05,1.23,2.09,2.39,1.95,1.2-.14,1.99-.74,2.08-1.9.09-1.16-.87-2.06-2.17-2.08ZM703.5,240.27c1.34-.06,2.3-1.05,2.12-2.2-.18-1.15-.97-1.72-2.24-1.71-1.28.01-2.24,1.03-2.06,2.17.18,1.14,1,1.68,2.19,1.73ZM811.45,142.72c-.51-.31-1.24-1.03-2.12-1.23-1.05-.24-1.96.79-1.94,1.85.02,1.07.87,1.79,2.08,1.76,1.17-.04,2.06-.86,1.98-2.37ZM672.41,220.1c-.53-.36-1.24-1.18-2.09-1.34-1.01-.18-1.79.57-1.86,1.6-.07,1.03.52,1.66,1.64,1.84,1.08.17,2.22-.66,2.32-2.1ZM818.64,125.34c-1.21-.72-1.89-1.38-2.69-1.54-1.03-.21-2,.95-1.8,1.94.2,1.02.99,1.65,2.06,1.37.76-.2,1.35-.94,2.44-1.76ZM778.91,161.25c-1.16-.83-1.77-1.59-2.53-1.74-1.05-.2-1.85.46-1.91,1.52-.06,1.04.59,1.81,1.71,1.68.78-.09,1.48-.76,2.74-1.46ZM809.88,97.5c.35-.43,1.14-1.01,1.27-1.69.19-.97-.62-1.64-1.75-1.64-1.1,0-1.83.56-1.84,1.61,0,1.04.66,1.57,2.31,1.71ZM705.26,167.47c-.13-1.56-.9-2.18-1.96-1.94-.64.15-1.43.89-1.57,1.48-.23.98.6,1.76,1.7,1.59.75-.12,1.38-.84,1.82-1.13ZM809.48,129.26c-.87.97-1.57,1.45-1.78,2.07-.29.82.86,1.89,1.74,1.6.66-.21,1.44-.95,1.51-1.52.07-.52-.73-1.13-1.48-2.15ZM758.78,214.31c-1.22-.56-1.98-1.2-2.53-1.08-.6.13-1,.97-1.49,1.5.61.44,1.2,1.21,1.83,1.23.55.02,1.13-.8,2.2-1.65ZM811.01,120.05c-.09-1.41-.67-2.06-1.69-1.87-.6.11-1.57.91-1.49,1.19.19.63.84,1.45,1.46,1.58.53.11,1.28-.65,1.72-.9ZM663.91,251.78c.52-.78,1.1-1.29,1.09-1.78,0-.35-.82-.69-1.27-1.03-.42.46-1.05.87-1.19,1.38-.08.28.68.74,1.37,1.43ZM784.98,131.47c-1.05-.62-1.6-1.16-2.19-1.2-.35-.03-1.07.7-1.09,1.12-.02.39.66,1.13,1.03,1.13.58,0,1.16-.5,2.25-1.04ZM789.52,112.07c-.53.62-1.17,1.04-1.17,1.46,0,.41.66.81,1.03,1.22.5-.41,1.19-.75,1.4-1.26.1-.25-.68-.8-1.26-1.42ZM658.76,256.22c-.66-.52-1.09-1.12-1.55-1.14-.41-.01-1.14.58-1.19.96-.04.34.61,1.03,1.02,1.07.44.05.96-.47,1.72-.89ZM749.62,221.96c.64-.64,1.36-1.06,1.33-1.42-.04-.41-.69-.89-1.2-1.09-.2-.08-1.03.54-1.04.85,0,.45.47.91.91,1.66ZM751.26,149.36c-.64-.47-1.04-.94-1.51-1.02-.28-.05-.7.51-1.06.79.37.37.68.88,1.14,1.05.25.09.76-.42,1.43-.82ZM804.18,101.76c-.59-.43-.98-.92-1.35-.92-.39,0-.78.48-1.17.75.39.38.71.88,1.19,1.07.2.08.73-.48,1.33-.91ZM676.97,213.39c-.46.53-1.02.89-.98,1.18.05.34.62.63.97.93.33-.31.88-.59.92-.93.04-.31-.48-.66-.91-1.19ZM729.54,156.54c.27-.14.54-.28.81-.42.15-.38.44-.78.4-1.14-.03-.23-.68-.64-.83-.57-.38.17-.85.55-.89.88-.05.4.32.83.51,1.25ZM769.47,177.71c-.37.66-.84,1.12-.73,1.38.14.33.74.59,1.18.67.15.03.69-.59.63-.82-.09-.37-.55-.66-1.08-1.23ZM756.43,142.28c-.4.39-.93.72-.87.89.13.37.55.67.85,1,.29-.33.7-.62.81-.99.06-.18-.43-.5-.79-.89ZM817.33,113.48c-.65-.32-1.1-.73-1.43-.67-.36.07-.61.58-.91.9.37.27.73.76,1.11.76.33,0,.68-.51,1.24-1ZM810.7,107.84c-.55-.46-.89-.96-1.23-.96-.37,0-.75.45-1.12.71.3.34.55.86.92.95.32.07.78-.36,1.43-.7ZM650.63,249.01c-.54.56-1.13.92-1.08,1.18.06.34.6.67,1.02.85.13.05.76-.44.76-.68,0-.36-.35-.72-.7-1.35ZM723.74,231.63c-.27-.15-.54-.3-.8-.45-.12.37-.39.76-.33,1.1.05.29.43.59.75.77.09.05.63-.28.66-.48.05-.3-.17-.63-.28-.94ZM731.11,226.33c-.53-.22-.8-.42-1.06-.41-.21,0-.55.25-.58.42-.03.17.25.5.43.53.21.03.47-.19,1.21-.54ZM763.07,197.43c.26-.38.47-.57.52-.79.02-.11-.29-.4-.36-.38-.25.08-.57.22-.64.41-.05.15.23.39.49.76ZM663.98,238.32c-.14-.08-.28-.18-.43-.27-.06.07-.17.16-.15.21.05.13.16.25.25.37.11-.1.22-.21.34-.31ZM657.16,243.85c-.15.09-.39.16-.42.27-.03.14.11.32.17.48.22-.12.43-.24.65-.36-.13-.13-.27-.26-.4-.39ZM703.97,178.75c-.26-.07-.51-.17-.76-.19-.05,0-.22.44-.18.46.21.12.46.2.71.23.04,0,.13-.27.23-.5ZM763.05,137.69c.07-.13.16-.25.2-.39.01-.03-.17-.17-.2-.15-.14.07-.25.17-.38.26.12.09.25.19.38.28ZM710.39,232.29c-.17-.08-.34-.16-.51-.24-.07.16-.15.33-.22.49.17.06.36.19.51.16.11-.02.15-.26.22-.41ZM670.62,232.41c-.14-.09-.28-.19-.44-.27-.02,0-.19.14-.17.17.05.14.16.26.24.39.12-.1.24-.2.37-.3ZM683.91,208.54c-.17-.08-.34-.16-.52-.23-.07.16-.14.33-.21.49.17.06.37.19.51.16.11-.02.15-.27.22-.41Z"/>
  <g>
    <path class="cls-4" d="M672.61,229.35c5.55,2.26,10.41,5.45,14.59,9.58,4.18,4.13,7.42,8.96,9.73,14.47,2.31,5.52,3.46,11.47,3.46,17.85s-1.16,12.34-3.46,17.85c-2.31,5.52-5.55,10.34-9.73,14.47-4.18,4.13-9.04,7.33-14.59,9.58-5.55,2.26-11.44,3.38-17.68,3.38s-11.91-1.19-17.4-3.57c-5.49-2.38-10.29-5.64-14.4-9.78-4.12-4.13-7.33-8.95-9.63-14.47-2.31-5.51-3.46-11.28-3.46-17.29s1.15-11.99,3.46-17.57c2.31-5.58,5.52-10.43,9.63-14.57,4.12-4.13,8.91-7.39,14.4-9.77,5.49-2.38,11.29-3.57,17.4-3.57s12.13,1.13,17.68,3.38ZM640.25,236.87c-4.43,2-8.26,4.76-11.51,8.27-3.24,3.51-5.77,7.55-7.57,12.12-1.81,4.58-2.71,9.3-2.71,14.19s.9,9.59,2.71,14.1c1.81,4.51,4.33,8.49,7.57,11.93,3.24,3.45,7.08,6.17,11.51,8.18,4.42,2.01,9.13,3.01,14.12,3.01,5.23,0,10.13-.94,14.68-2.82,4.55-1.88,8.57-4.51,12.06-7.89,3.49-3.38,6.17-7.36,8.04-11.93,1.87-4.57,2.81-9.43,2.81-14.57s-.94-10.21-2.81-14.85c-1.87-4.63-4.52-8.65-7.95-12.03-3.43-3.38-7.45-6.01-12.06-7.89-4.61-1.88-9.54-2.82-14.78-2.82s-9.7,1-14.12,3.01Z"/>
    <path class="cls-4" d="M292.82,247.2l-6.87-3.59h-18.74l4.29,2.28c.5.25,1.37.69,2.62,1.31,3.99,1.88,7.32,3.6,10.01,5.17,2.68,1.57,5.24,3.38,7.67,5.45,2.43,2.07,4.4,4.51,5.89,7.33,1.5,2.82,2.25,5.99,2.25,9.49,0,4.51-.94,8.83-2.81,12.97-1.87,4.14-4.43,7.74-7.67,10.81-3.24,3.07-6.95,5.45-11.13,7.14-4.18,1.69-8.58,2.54-13.19,2.54-8.11,0-15.03-2.29-20.76-6.86-5.74-4.57-10.16-10.81-13.28-18.7l-7.86,3.57c3.37,9.27,8.73,16.66,16.09,22.18,7.36,5.52,15.84,8.27,25.44,8.27,5.73,0,11.25-1.03,16.56-3.1,5.3-2.07,10.03-4.98,14.22-8.74,4.18-3.76,7.45-8.14,9.82-13.16,2.37-5.01,3.55-10.4,3.55-16.16,0-6.26-1.31-11.68-3.93-16.26-2.62-4.57-6.67-8.55-12.16-11.93Z"/>
    <path class="cls-4" d="M283.56,183.87c4.68,2.89,8.7,7.02,12.06,12.4l6.36-5.26c-1.77-3.22-3.94-6.08-6.5-8.59l-15-.16c1.06.48,2.09,1.01,3.08,1.61Z"/>
    <polygon class="cls-4" points="340.7 216.28 332.28 216.28 332.28 227.85 322.74 227.85 322.74 235.74 332.28 235.74 332.28 314.67 340.7 314.67 340.7 235.74 355.85 235.74 355.85 227.85 340.7 227.85 340.7 216.28"/>
    <path class="cls-4" d="M422.81,240.77v36.13c0,5.01-.25,9.3-.75,12.87-.5,3.57-1.5,6.76-2.99,9.58-1.5,2.82-3.77,5.07-6.83,6.77-3.06,1.69-7.08,2.54-12.06,2.54s-9.01-.85-12.06-2.54c-3.06-1.69-5.33-3.95-6.83-6.77-1.5-2.82-2.5-6.01-2.99-9.58-.5-3.57-.75-7.86-.75-12.87v-49.05h-8.42v52.06c0,6.14.31,11.06.94,14.75.62,3.7,2.06,7.11,4.3,10.24,2.87,3.88,6.61,6.8,11.22,8.74,4.61,1.94,9.48,2.91,14.59,2.91s9.97-.97,14.59-2.91c4.61-1.94,8.35-4.86,11.22-8.74,2.25-3.13,3.68-6.55,4.3-10.24.62-3.69.93-8.61.93-14.75v-39.14h-8.42Z"/>
    <path class="cls-2" d="M582.18,206.61c2.12,0,3.93-.75,5.43-2.26,1.49-1.51,2.24-3.32,2.24-5.45s-.75-3.95-2.24-5.45c-1.5-1.51-3.31-2.26-5.43-2.26s-3.93.75-5.42,2.26c-1.5,1.5-2.25,3.32-2.25,5.45s.75,3.95,2.25,5.45c1.49,1.5,3.3,2.26,5.42,2.26Z"/>
    <rect class="cls-2" x="577.88" y="267.42" width="8.42" height="47.25"/>
    <path class="cls-4" d="M721.24,369.58c-.22-.49-.43-.98-.63-1.49-1.81-4.51-2.71-9.21-2.71-14.1s.9-9.61,2.71-14.19c1.81-4.57,4.33-8.61,7.57-12.12,3.24-3.51,7.08-6.26,11.51-8.27,4.42-2,9.13-3.01,14.12-3.01,5.23,0,10.16.94,14.78,2.82,4.61,1.88,8.63,4.51,12.06,7.89,3.43,3.38,6.08,7.39,7.95,12.03,1.87,4.64,2.81,9.58,2.81,14.85s-.94,9.99-2.81,14.57c-.14.34-.3.68-.44,1.01h9.02c1.77-4.92,2.65-10.18,2.65-15.77,0-6.39-1.16-12.34-3.46-17.85-2.31-5.51-5.55-10.34-9.73-14.47-4.18-4.13-9.04-7.33-14.59-9.58-5.55-2.26-11.44-3.38-17.68-3.38s-11.91,1.19-17.4,3.57c-5.49,2.38-10.29,5.64-14.4,9.77-4.12,4.13-7.33,8.99-9.63,14.57-2.31,5.58-3.46,11.43-3.46,17.57,0,5.4.94,10.59,2.79,15.58h8.97Z"/>
    <g>
      <path class="cls-4" d="M631.39,384.42h12.43c-1.81-1.35-3.49-2.88-5.05-4.59-3.24-3.57-5.73-7.61-7.48-12.12-1.75-4.51-2.62-9.21-2.62-14.1s.9-9.58,2.71-14.09c1.81-4.51,4.33-8.49,7.57-11.94,3.24-3.44,7.04-6.17,11.41-8.17,4.36-2,9.04-3.01,14.03-3.01,11.72,0,21.88,4.7,30.49,14.09v-11.27c-8.35-7.14-18.4-10.71-30.12-10.71-6.24,0-12.06,1.16-17.49,3.48-5.43,2.32-10.16,5.54-14.22,9.68-4.05,4.14-7.2,8.96-9.44,14.47-2.25,5.52-3.37,11.34-3.37,17.48s1.09,12.19,3.27,17.76c1.92,4.91,4.54,9.25,7.86,13.04Z"/>
      <path class="cls-4" d="M686.28,384.42h9.73v-8.81c-2.84,3.48-6.09,6.41-9.73,8.81Z"/>
    </g>
    <path class="cls-4" d="M460.12,277.8c-.47-2.62-.71-5.31-.71-8.06,0-4.63.81-9.18,2.43-13.63,1.62-4.44,3.93-8.42,6.92-11.93,2.99-3.51,6.55-6.26,10.66-8.27,4.11-2,8.6-3.01,13.47-3.01,10.35,0,18.7,3.41,25.06,10.24,6.36,6.83,9.54,15.38,9.54,25.66,0,3.14-.26,6.14-.76,9h8.62v-76.18h-8.42v40.31h-.38c-3.62-5.39-8.39-9.55-14.31-12.5-5.93-2.94-12.25-4.42-18.99-4.42-6.36,0-12.16,1.13-17.4,3.38-5.24,2.26-9.73,5.42-13.47,9.49-3.74,4.07-6.58,8.83-8.51,14.28-1.93,5.45-2.9,11.31-2.9,17.57,0,2.75.2,5.44.59,8.06h8.54Z"/>
    <path class="cls-4" d="M457.34,441.57h-8.98v-141.7h24.88c6.73,0,12.5.54,17.3,1.6,4.8,1.06,9.19,3.29,13.18,6.67,4.24,3.64,7.42,7.99,9.54,13.06,2.12,5.07,3.18,10.43,3.18,16.07,0,5.26-1.03,10.46-3.09,15.6-2.06,5.14-4.96,9.27-8.7,12.4-3.99,3.38-8.6,5.73-13.84,7.05-5.23,1.32-11.1,1.97-17.58,1.97h-15.9v67.28ZM473.61,365.83c5.23,0,9.82-.53,13.75-1.6,3.93-1.06,7.57-3.1,10.94-6.11,6.11-5.64,9.17-12.71,9.17-21.24,0-4.63-.91-8.99-2.71-13.06-1.81-4.07-4.46-7.36-7.95-9.87-3.12-2.38-6.61-3.91-10.47-4.6-3.87-.69-8.61-1.03-14.22-1.03h-14.78v57.51h16.27Z"/>
    <path class="cls-4" d="M525.18,363.89c-.83-3.43-1.25-6.98-1.25-10.65,0-4.63.81-9.18,2.43-13.63,1.62-4.44,3.93-8.42,6.92-11.93,2.99-3.51,6.55-6.26,10.66-8.27,4.11-2,8.6-3.01,13.47-3.01,10.35,0,18.7,3.41,25.06,10.24,6.36,6.83,9.54,15.38,9.54,25.66,0,4.1-.43,7.96-1.29,11.59h9.14v-53.5h-8.42v15.03h-.38c-3.62-5.39-8.39-9.55-14.31-12.5-5.93-2.94-12.25-4.42-18.99-4.42-6.36,0-12.16,1.13-17.4,3.38-5.24,2.26-9.73,5.42-13.47,9.49-3.74,4.07-6.58,8.83-8.51,14.28-1.93,5.45-2.9,11.31-2.9,17.57,0,3.67.35,7.22,1.04,10.65h8.64Z"/>
  </g>
</svg>