<?xml version="1.0" encoding="UTF-8"?>
<svg id="Layer_1" data-name="Layer 1" xmlns="http://www.w3.org/2000/svg" viewBox="0 0 1000 626.49">
  <defs>
    <style>
      .cls-1 {
        fill: #e6e7e8;
        stroke-width: 0px;
      }
    </style>
  </defs>
  <path class="cls-1" d="M614.38,301.47c-2.13.01-3.79,1.5-3.77,3.38.02,1.85,1.74,3.38,3.8,3.38,2.09,0,3.73-1.49,3.73-3.41,0-1.95-1.58-3.36-3.76-3.35Z"/>
  <path class="cls-1" d="M604.74,257.21c-.06-1.81-1.59-3.13-3.62-3.11-1.94.02-3.6,1.48-3.63,3.18-.02,1.76,1.91,3.43,3.86,3.32,1.92-.11,3.44-1.62,3.38-3.39Z"/>
  <path class="cls-1" d="M339.9,280.96c-.06-1.79-1.57-3.09-3.58-3.08-1.95.02-3.54,1.42-3.57,3.14-.02,1.81,1.8,3.37,3.8,3.27,1.93-.1,3.4-1.57,3.34-3.33Z"/>
  <path class="cls-1" d="M303.46,378.87c-2.03-.1-3.64,1.21-3.71,3.03-.06,1.71,1.25,3.07,3.14,3.24,2.02.18,3.71-1.08,3.85-2.87.15-1.81-1.29-3.29-3.29-3.39Z"/>
  <path class="cls-1" d="M481.89,319.82c1.99.05,3.59-1.33,3.61-3.1.02-1.76-1.58-3.19-3.54-3.16-1.86.02-3.33,1.29-3.43,2.96-.11,1.8,1.36,3.25,3.36,3.31Z"/>
  <path class="cls-1" d="M329.67,290.06c2.05.03,3.58-1.33,3.53-3.14-.05-1.65-1.52-2.98-3.36-3.02-2.02-.05-3.54,1.32-3.5,3.16.03,1.74,1.4,2.97,3.34,3Z"/>
  <path class="cls-1" d="M478.84,310.81c.03-1.57-1.52-3.06-3.28-3.15-1.95-.1-3.59,1.37-3.54,3.16.04,1.69,1.51,2.97,3.4,2.96,1.86,0,3.39-1.34,3.43-2.97Z"/>
  <path class="cls-1" d="M326.46,292.98c.03-1.52-1.67-3.05-3.37-3.04-1.8.01-3.29,1.44-3.23,3.09.05,1.58,1.37,2.77,3.13,2.83,1.84.06,3.44-1.28,3.47-2.88Z"/>
  <path class="cls-1" d="M548.3,355.23c1.86-.04,3.33-1.44,3.23-3.06-.1-1.48-1.59-2.78-3.23-2.82-1.82-.05-3.33,1.3-3.33,2.98,0,1.74,1.39,2.95,3.33,2.91Z"/>
  <path class="cls-1" d="M621.18,278.03c1.86-.07,3.31-1.49,3.17-3.11-.13-1.47-1.65-2.76-3.28-2.78-1.82-.02-3.3,1.35-3.27,3.03.03,1.74,1.43,2.93,3.39,2.86Z"/>
  <path class="cls-1" d="M399.19,310.75c0-1.62-1.64-3-3.42-2.92-1.7.08-3.03,1.38-3.03,2.93,0,1.72,1.45,2.95,3.37,2.86,1.72-.08,3.09-1.35,3.08-2.88Z"/>
  <path class="cls-1" d="M535.07,343.3c1.73-.05,3.12-1.33,3.11-2.87,0-1.55-1.42-2.83-3.15-2.86-1.85-.03-3.34,1.37-3.24,3.04.1,1.57,1.51,2.73,3.28,2.68Z"/>
  <path class="cls-1" d="M346.17,275.03c-.06-1.57-1.48-2.79-3.23-2.77-1.75.02-3.12,1.26-3.14,2.83-.02,1.74,1.43,2.99,3.37,2.89,1.75-.09,3.06-1.37,3-2.95Z"/>
  <path class="cls-1" d="M518.3,346.43c.03-1.55-1.33-2.84-3.06-2.9-1.73-.06-3.2,1.12-3.3,2.66-.11,1.71,1.29,3.05,3.2,3.04,1.73,0,3.14-1.25,3.17-2.8Z"/>
  <path class="cls-1" d="M329.73,355.48c-1.71,0-3.14,1.27-3.13,2.78,0,1.5,1.45,2.8,3.13,2.81,1.7,0,3.1-1.26,3.11-2.8,0-1.58-1.35-2.79-3.1-2.79Z"/>
  <path class="cls-1" d="M252.97,383.5c.34-.46.42-.9.41-1.51-.02-1.63-1.13-2.78-2.94-2.76l-1.88-3.17c.12-1.23.54-1.33,1.73-1.44,3.4-.33,4.72-1.67,4.9-4.87.06-1.02.27-1.25,1.45-1.32,3.55-.22,4.63-1.26,5.06-4.63.1-.81.23-1.11,1.3-1.19,4.12-.31,5.41-1.56,5.29-5.26-.04-1.3.47-1.1,1.48-1.12,2.57-.03,4.17-1.19,4.59-3.07.55-2.43-1-4.21-4.07-4.7-.65-.1-1.8.29-1.46-.92.23-.82-.43-2.09,1.34-2.29,1.18-.13,2.33-.53,3.49-.81-.11.68-.35,1.37-.32,2.05.07,1.75,1.54,2.98,3.41,2.98,1.74,0,3.2-1.12,3.45-2.65.26-1.58-.98-3.19-2.81-3.48-.85-.13-1.74-.02-2.62-.02.2-.56.57-1.13.57-1.69.01-1.86.5-3.01,3.01-3.22,1.85-.15,3.14-2.06,3.17-3.74.03-1.73-.84-3.05-2.54-3.88-.57-.28-1.23-.45-1.87-.54-.8-.11-1.53-.09-1.5-1.12.02-.92.29-1.41,1.43-1.58,2.05-.32,2.04-.39,2.48,1.41.51,2.12,1.93,3.19,4.1,3.09,1.97-.09,3.53-1.46,3.7-3.21.17-1.78-1.2-3.24-3.43-3.81-.64-.16-2.13.66-1.78-.89.24-1.06-.54-2.66,1.89-2.78,2.81-.14,4.31-1.87,4.69-4.26.17-1.07.28-1.66,1.75-1.91,3.22-.56,4.19-1.66,4.44-4.66.09-1.05.38-1.22,1.5-1.33,3.62-.33,4.59-1.26,5.06-4.69.12-.9.42-1.05,1.38-1.15,3.72-.36,4.73-1.2,5.31-4.53.19-1.08.7-1.17,1.68-1.28,3.52-.42,4.77-1.53,5.16-4.72.12-.99.33-1.24,1.47-1.4,3.62-.5,4.64-1.57,4.87-4.88.06-.94.18-1.34,1.4-1.46,3.79-.37,4.81-1.4,4.8-4.71,0-.86,0-1.18,1.12-1.21,4.17-.12,5.02-.75,5.74-4.25.17-.84.4-1.09,1.38-1.2,4-.43,4.82-1.12,5.54-4.66.18-.89.55-1.06,1.44-1.19,4.01-.57,4.8-1.33,5.32-5.17.1-.75.32-.93,1.13-1.06,4.13-.67,4.71-1.2,5.18-4.88.11-.91.45-1.07,1.39-1.16,3.89-.39,5.06-1.43,5.15-4.83.03-1.2.5-1.18,1.53-1.24,3.79-.22,5.26-1.79,4.82-5.2-.13-1.01,0-1.09,1.12-.99,3.62.29,5.25-1.04,5.32-4.4.02-1.18.39-1.17,1.49-1.1,3.48.2,4.85-.87,5.74-4.02.13-.46.57-1.1.98-1.18.89-.17,1.76.05,1.83,1.16.03.49.2.97.34,1.45.22.74,0,1.13-.93,1.07-.44-.03-.9-.03-1.32.06-1.69.37-2.89,1.78-2.82,3.25.07,1.56,1.64,3.02,3.4,3.14,1.64.12,3.28-.92,3.72-2.41.21-.72.1-1.9.54-2.09.66-.28,1.69.3,2.55.24,1.35-.09,1.54.52,1.82,1.52.83,2.95,2.13,3.83,5.67,3.81,1.11,0,1.2.27,1.27,1.1.33,3.5,1.24,4.28,5.35,4.55.96.06,1.27.25,1.36,1.16.39,3.9,1.39,4.7,5.8,4.63,1.01-.02.96.23.93.97-.14,3.8,1.4,5.15,5.69,4.92.99-.05.99.11.95.89-.23,3.75.84,4.83,5.19,5.17,1.05.08,1.19.4,1.26,1.24.32,3.86,1.38,4.75,5.76,4.67,1.32-.02,1.02.43.99,1.19-.13,3.45,1.83,5.05,5.74,4.58,1.17-.14,1.4-.03,1.04.97-.61,1.71.03,3.14,1.5,4.24,1.17.87,2.55,1.2,4.03.71,1.47-.49,1.33.07,1.15,1.1-.59,3.34,1.56,5.31,5.33,4.78,1.63-.23,1.2.29,1.08,1.19-.42,3.3,1.3,5.03,5.05,5.01,1.08,0,1.48-.06,1.45,1.16-.1,3.67,1.53,5.02,5.58,4.81,1.05-.06,1.53-.25,1.32,1.1-.4,2.55,1.25,4.44,3.72,4.73,2.4.28,4.3-1.18,4.72-3.91.16-1.04.49-1.25,1.6-1.3,3.97-.15,5.1-.91,6.01-4.24.3-1.11.8-1.41,1.94-1.52.96-.09,1.89-.49,2.83-.76-.12.77-.41,1.55-.33,2.31.18,1.63,1.84,2.87,3.6,2.85,1.92-.02,3.5-1.47,3.52-3.22.02-1.7-1.2-2.99-3.13-3.18-.75-.07-1.52.07-2.28.12.24-.96.61-1.91.67-2.88.07-1.07.63-1.3,1.67-1.33,1.01-.03,1.74.04,1.68,1.2-.02.48.09.99.27,1.45.67,1.67,2.42,2.72,4.33,2.67,1.94-.05,3.85-1.15,4.02-2.92.19-1.98,1.07-2.49,3.04-2.19.41.06.87-.1,1.29-.23,1.14-.35,1.14.08,1.19.99.05.91.47,1.96,1.12,2.64,1,1.05,2.46,1.26,3.93.61,1.43-.63,2.13-1.67,2.04-3.11-.09-1.45-.97-2.39-2.45-2.85-.5-.16-1.09-.13-1.63-.13-.76,0-1.28-.09-.96-.99.23-.65.05-1.52.47-1.99.45-.49,1.37-.69,2.12-.89.97-.26,1.01.39,1.07,1.02.04.49.12.99.31,1.44.75,1.78,2.71,2.85,4.69,2.62,2.04-.23,3.85-1.63,3.74-3.55-.13-2.11.69-2.33,2.74-2.28,2.37.06,3.87-1.36,4.28-3.78.2-1.15.39-1.62,1.88-1.71,3.26-.21,4.52-1.37,5.08-4.45.18-.97.48-1.27,1.57-1.41,3.53-.46,4.55-1.33,5.19-4.4.19-.88.27-1.42,1.5-1.45,3.32-.08,4.9-1.87,5.36-4.66.07-.43.33-1.09.66-1.17,1.03-.26,2.13-.31,3.21-.39.05,0,.18.51.2.79.04.49-.07,1.01.05,1.48.44,1.71,2.33,2.89,4.19,2.68,1.8-.21,3.22-1.59,3.31-3.22.1-1.79-1.21-3.23-3.26-3.52-.43-.06-.89-.04-1.31.03-.99.16-1.14-.23-.91-.98.17-.57.37-1.16.37-1.74,0-1.17.82-1.15,1.75-1.21,1.17-.07,1.39.4,1.55,1.36.48,2.77,2.1,4.12,4.62,4.13,2.41.01,4.35-1.23,4.68-3.77.27-2.09,1.76-1.2,2.81-1.46,1.75-.44,1.26.85,1.49,1.59.68,2.14,2.38,3.41,4.44,3.33,2.11-.08,3.63-1.42,4.09-3.62.04-.19.04-.4.03-.59-.05-.78.39-1.06,1.2-1,.44.03.9.11,1.32.02,1.8-.38,2.74-.23,2.71,1.88-.03,1.83,1.86,2.94,3.89,2.88,2-.06,3.55-1.35,3.77-3.13.21-1.72-1.05-3.3-3.02-3.73-.52-.11-1.11-.15-1.62-.05-1.01.2-1.14-.19-.95-.93.13-.48.41-1,.3-1.44-.46-1.86.86-1.83,2.26-1.89.85-.04,1.24.18,1.17.96-.03.3-.07.6-.04.89.28,2.68,2.2,4.23,5,4.05,2.67-.18,4.61-2.14,4.19-4.72-.24-1.47.02-1.7,1.52-1.39.6.13,1.33,0,1.94-.17,1.41-.4,1.03.19.97,1.02-.08,1.03.02,2.18.48,3.11.74,1.5,2.71,2.24,4.42,1.98,1.79-.27,3.22-1.46,3.6-3.08.11-.48.13-.99.08-1.47-.09-.87.37-.99,1.18-.85.54.09,1.16.2,1.64.04,1.82-.59,2.08-.09,2.04,1.56-.05,2.26,1.98,3.68,4.34,3.52,2.19-.15,3.78-1.71,3.83-3.78.02-.64-.02-1.28-.03-1.92.65.09,1.3.16,1.94.27.7.12,1.91.13,2.01.43.33,1.01.29,2.13.35,3.21,0,.09-.3.26-.48.29-.32.05-.66-.01-.99.02-2.78.25-4.35,1.46-4.52,3.48-.17,2.02,1.24,3.47,3.91,4.07.55.12,1.48.39,1.5.64.09.96.07,2.01-.33,2.87-.17.36-1.42.27-2.13.49-1.94.59-3.18,1.76-3.38,3.65-.18,1.72.51,3.15,2.21,4.01.74.37,1.66.59,2.51.61,1.32.02,1.36.68,1.32,1.55-.05.87.18,1.61-1.36,1.84-4.66.69-5.89,3.07-3.89,7.03-.74-.13-1.47-.3-2.21-.37-2.35-.23-4.33,1.23-4.5,3.28-.18,2.13,1.39,3.73,3.85,3.84.75.03,1.51-.08,2.27-.13-.07.29-.14.58-.22.86-.47,1.64-2.02,3.26-3.78,3.93-1.74.67-2.84,2.36-2.64,4.07.19,1.71,1.6,3.17,3.48,3.54.53.1,1.1.11,1.64.07.94-.08,1.5.01,1.21,1.08-.15.55-.1,1.18,0,1.75.14.84-.24.89-1.08.93-3.81.18-4.94,1.06-5.32,4.3-.12,1.03-.39,1.41-1.56,1.26-.64-.08-1.32.04-1.96.13-.79.11-1.26.06-1.13-.86.08-.57.05-1.2-.13-1.75-.59-1.8-2.69-2.96-4.6-2.63-1.88.32-3.32,1.85-3.36,3.57-.04,1.9,1.36,3.35,3.54,3.67.11.02.23,0,.33.04.67.24,1.9-.72,2.01.61.14,1.66-.68,2.54-2.25,2.77-.43.06-.88.12-1.28.25-1.14.38-1.14-.1-1.22-.96-.09-.93-.42-1.96-1.03-2.69-.94-1.12-2.42-1.28-3.91-.86-1.51.43-2.56,1.72-2.56,3.13,0,1.42.74,2.49,2.16,3.07.67.28,1.52.21,2.21.46.37.13.71.58.83.95.11.35-.17.78-.13,1.16.15,1.3-.22,1.93-1.91,2.04-1.07.07-2.32.74-3.07,1.48-2.24,2.2-1.16,5.72,1.98,6.82.61.21,1.34.19,1.9.47.37.19.71.72.71,1.1,0,.39-.33,1.01-.69,1.13-.69.24-1.61.45-2.24.22-.43-.16-.57-1.06-.75-1.64-.6-1.91-2.06-2.97-4.02-2.86-1.96.1-3.52,1.5-3.62,3.25-.11,1.78,1.07,3.1,3.16,3.63.7.18,2.14-.39,1.88.88-.21,1.05.42,2.64-1.84,2.93-2.85.37-4.49,1.98-4.56,4.65-.02.86-.33,1.2-1.33,1.26-3.21.2-5.07,1.73-5.28,4.67-.07,1.01-.8.97-1.59,1.06-3.17.34-4.94,1.9-5.26,4.8-.11.98-2.58,2.19-3.46,1.65-.33-.2-.2-1.02-.27-1.56-.24-1.89-1.47-3.26-3.34-3.61-1.7-.31-3.14.26-3.99,1.52-.52.78-.64,1.84-.68,2.79-.04.79.14,1.41-1.14,1-.5-.16-1.11-.23-1.63-.15-1.71.25-2.47-.06-2.52-1.89-.06-2.13-1.99-3.46-4.17-3.4-2.17.06-3.63,1.4-4.03,3.62-.09.52.64,1.76-.74,1.39-1.08-.28-2.97.62-3.21-1.25-.34-2.75-1.91-4.31-5.02-4.63-.93-.1-2.09-2.53-1.61-3.26.12-.18.52-.25.8-.29.54-.07,1.11,0,1.63-.12,2.11-.47,3.38-2.06,3.21-3.94-.16-1.85-1.82-3.3-3.88-3.42-2.1-.12-3.81,1.03-4.35,2.93-.08.28-.18.6-.12.87.31,1.39-.42,1.25-1.63,1.21-1.36-.04-2.75.47-4.13.74.06-.89.26-1.79.13-2.66-.23-1.52-1.82-2.57-3.55-2.52-1.86.05-3.34,1.37-3.42,3.03-.07,1.54,1.1,2.98,2.83,3.18.94.11,1.94-.16,2.92-.26-.28,1.05-.8,2.09-.78,3.13.02,1.35-.59,1.69-1.92,1.67-.73-.01-1.47.2-2.2.3.03-.64.11-1.29.08-1.93-.07-2.01-1.85-3.62-3.98-3.64-2.16-.02-3.81,1.47-3.95,3.59-.03.39.08.79.09,1.18,0,.19-.05.54-.07.54-1.15-.03-2.31-.02-3.44-.18-.4-.05-.85-.44-1.05-.78-.18-.31,0-.78-.08-1.16-.39-2.07-1.74-3.57-3.99-3.79-1.68-.16-2.38-.44-2.43-2.16-.06-2.35-1.78-3.77-4.39-4.08-1.17-.14-1.66-.43-1.81-1.58-.16-1.24-.81-2.43-1.25-3.64.78.31,1.55.82,2.36.88,2.01.16,3.63-1.34,3.59-3.1-.04-1.6-1.6-3.01-3.39-3.04-1.96-.04-3.63,1.42-3.45,3.21.07.72.64,1.41.98,2.11-1.24-.39-2.46-.98-3.74-1.11-1.32-.13-1.53-.63-1.72-1.65-.25-1.33-.74-2.2,1.64-2.22,2.36-.02,3.65-2.1,3.07-4.06-.49-1.67-2.46-2.71-4.41-2.23-1.83.45-2.82,1.65-2.7,3.29.11,1.52-.51,1.34-1.69,1.02-1.19-.32-2.49,0-2.6-1.89-.08-1.44-.31-1.96,1.68-2.02,2.17-.07,3.35-1.66,3.22-3.46-.12-1.72-1.51-2.93-3.43-3-2.02-.07-3.4,1-3.88,2.97-.14.57-.4,1.59-.61,1.6-1.08.01-2.19-.16-3.21-.46-.3-.09-.41-.81-.54-1.26-.96-3.41-2.91-4.68-6.71-3.96-1.68.32-1.43-.19-1.39-1.26.06-2.03-.93-3.15-2.73-3.56-1.72-.39-3.36.23-4.24,1.61-1.44,2.24.25,4.74,3.36,5.07.6.06,1.67-.76,1.79.48.16,1.63-.76,2.89-1.98,3.07-1.45.22-2.32.22-2.47-1.6-.18-2.15-2.2-3.34-4.4-3.16-2.31.18-3.82,1.76-3.7,4.12.06,1.1.48,1.83-1.49,1.45-3.05-.58-4.86.74-5.73,3.58-.16.51-.41,1.3-.79,1.39-1.25.3-2.58.38-3.89.4-.1,0-.21-1.06-.33-1.62-.51-2.38-2.92-3.64-5.15-2.59-1.61.76-2.43,2.04-1.94,3.71.36,1.23-.25,1.09-1.14.83-.52-.15-1.07-.29-1.61-.33-2.33-.17-2.47-.24-3.05-2.11-.54-1.71-2.34-2.93-4.17-2.81-1.89.13-3.27,1.39-3.7,3.26-.14.61.63,1.72-.9,1.71-2.32,0-3.14-.44-3.46-1.69-.76-2.98-1.98-3.97-5.45-4.02-1.36-.02-1.53-.29-1.59-1.47-.12-2.53-1.8-4.03-4.19-4.19-2.37-.16-4.13,1.17-4.82,3.63-.36,1.28-1.22,1.76-2.43,1.36-.57-.19-1.19-1.95-.85-2.6.11-.22.44-.42.71-.48.64-.15,1.33-.12,1.94-.31,1.87-.59,2.92-2.25,2.63-4-.26-1.59-1.72-2.9-3.49-3.14-1.93-.26-3.77.7-4.49,2.35-.12.27-.16.57-.24.86-.18.67.27,1.75-1.28,1.52-1.1-.16-2.43.25-2.54-1.5-.2-3.16-4.27-5.4-7.61-3.85-1.69.79-2.66,1.99-2.97,3.69-.1.52-.34,1.31-.74,1.45-1.01.34-2.14.41-3.23.47-.1,0-.34-.82-.36-1.26-.08-1.55-.85-2.65-2.52-3.14-1.92-.56-3.83.31-4.56,2.01-.66,1.52.07,3.24,1.81,3.98.67.29,1.52.24,2.2.51.35.14.75.64.74.97-.07,2.17-.51,2.5-2.86,2.69-.78.06-1.27.08-1.23-.81.02-.48-.08-.99-.26-1.45-.58-1.5-2.12-2.4-3.83-2.3-1.83.1-3.34,1.37-3.58,2.98-.22,1.51.69,2.99,2.26,3.62.3.12.63.16.94.26.7.22,1.92-.4,1.92.93,0,1.69-.57,2.34-2.15,2.65-1.22.24-2.16.73-2.1-1.24.06-2.08-1.78-3.31-3.87-3.22-1.81.08-3.37,1.35-3.6,2.96-.26,1.8,1.04,3.3,3.28,3.84.71.17,1.92-.42,1.89.96-.03,1.74-.51,2.28-2.15,2.65-1.37.31-2.37.73-2.36-1.33.01-2-1.65-3.06-3.7-2.96-1.84.09-3.34,1.41-3.45,3.03-.11,1.69,1.28,3.05,3.36,3.5.62.13,1.95-.88,1.82.73-.18,2.26-.49,2.64-2.17,2.93-.54.09-1.07.31-1.6.31-.27,0-.69-.32-.77-.57-.14-.46,0-1-.12-1.47-.4-1.6-1.79-2.54-3.58-2.5-1.74.04-3.16,1.12-3.46,2.67-.3,1.5.65,2.94,2.32,3.53.2.07.41.16.63.19.72.11,1.44.19,2.16.28-.2.97-.05,2.23-.69,2.82-.71.66-2.12.75-3.25.92-.13.02-.58-1-.67-1.56-.22-1.44-1.06-2.54-2.58-2.73-1.07-.14-2.42.18-3.34.71-1.16.68-1.46,1.92-1.03,3.19.47,1.39,1.61,2.02,3.11,2.35.6.13,1.67-.76,1.8.5.15,1.45-.85,2.87-1.98,3.2-1.13.33-2.22.79-3.32,1.19.2-.66.52-1.32.56-1.99.12-1.76-1.55-3.29-3.42-3.28-1.67.01-3.13,1.24-3.29,2.77-.19,1.81,1.18,3.2,3.31,3.28.76.03,1.52-.13,2.28-.21-.12.17-.26.33-.35.5-.53,1.04-3.35,3.72-4.54,4.33-1.52.79-2.51,1.93-2.71,3.51-.14,1.06-.34,1.73-1.84,1.92-2.81.35-4.55,1.9-4.76,4.53-.08,1.04-.66,1.19-1.64,1.39-3.59.75-4.56,1.71-4.92,4.98-.11,1.01-.43,1.26-1.5,1.43-3.55.55-4.42,1.49-4.65,4.97-.05.79-.24.94-1.08,1.01-4.08.37-5.11,1.18-5.46,4.55-.11,1.07-.45,1.37-1.54,1.3-.65-.04-1.32.17-1.96.09-.34-.04-.81-.4-.9-.69-.14-.45.07-.98,0-1.46-.3-1.87-2.01-3.22-4.06-3.24-2.08-.03-3.79,1.25-4.15,3.13-.07.38-.09.8,0,1.17.2.87.05,1.37-1.11,1.08-.11-.03-.22-.04-.33-.05-3.87-.13-5.26.82-6.08,4.36-.18.78-.27,1.29-1.33,1.23-.94-.05-1.6-.09-1.79-1.22-.19-1.13-.85-2.19-1.3-3.28.86.16,1.71.42,2.57.47,2.02.11,3.64-1.24,3.73-3.01.1-1.92-1.57-3.41-3.7-3.32-1.97.08-3.48,1.53-3.35,3.35.05.78.34,1.54.52,2.31-.79-.34-1.55-.91-2.36-.98-1.28-.12-2.93.54-3.79.02-.72-.44-.36-2.14-.8-3.17-.54-1.28-2.28-1.92-3.88-1.69-1.72.25-3.03,1.21-3.07,2.68-.05,1.93-1.06,1.96-2.62,1.67-.42-.08-.92-.08-1.31.05-1.51.5-2.01.25-2.08-1.36-.09-2-1.71-3.07-3.73-2.99-.96.04-1.84.41-2.5,1l-1.28-2.17Z"/>
  <path class="cls-1" d="M290.15,319.92c-1.71-.06-3.2,1.17-3.24,2.67-.03,1.45,1.49,2.83,3.11,2.83,1.54,0,2.89-1.15,3.01-2.57.13-1.58-1.13-2.87-2.88-2.93Z"/>
  <path class="cls-1" d="M257.05,373.38c-1.74-.07-3.26,1.2-3.24,2.71.01,1.33,1.44,2.67,2.93,2.76,1.67.1,3.18-1.21,3.18-2.77,0-1.49-1.22-2.64-2.87-2.7Z"/>
  <path class="cls-1" d="M508.44,337.72c-1.72.02-3.14,1.34-3.07,2.84.07,1.48,1.66,2.77,3.3,2.67,1.56-.09,2.83-1.31,2.86-2.73.03-1.59-1.32-2.81-3.09-2.79Z"/>
  <path class="cls-1" d="M385.74,310.88c.07-1.58-1.26-2.84-3.02-2.85-1.58-.01-2.98,1.1-3.13,2.49-.16,1.46,1.22,2.91,2.89,3.03,1.67.12,3.19-1.12,3.26-2.66Z"/>
  <path class="cls-1" d="M485,304.75c-.04-1.48-1.29-2.6-2.94-2.63-1.72-.03-3.23,1.3-3.16,2.78.06,1.3,1.57,2.65,3.01,2.69,1.66.05,3.13-1.3,3.09-2.85Z"/>
  <path class="cls-1" d="M551.21,269.27c.04-1.47-1.15-2.65-2.78-2.76-1.74-.11-3.27,1.1-3.31,2.62-.04,1.43,1.56,2.86,3.16,2.82,1.55-.04,2.88-1.25,2.93-2.68Z"/>
  <path class="cls-1" d="M309.95,373.49c-1.61-.03-2.97,1.1-3.01,2.51-.04,1.32,1.38,2.67,2.86,2.71,1.55.04,2.92-1.15,2.97-2.57.04-1.46-1.19-2.62-2.81-2.66Z"/>
  <path class="cls-1" d="M326.02,364.2c0-1.53-1.22-2.62-2.92-2.61-1.66,0-2.98,1.18-2.97,2.62,0,1.35,1.48,2.67,2.99,2.66,1.61,0,2.9-1.19,2.9-2.68Z"/>
  <path class="cls-1" d="M319.38,298.95c.04-1.5-1.15-2.62-2.82-2.66-1.64-.03-2.97,1.08-3.02,2.52-.04,1.37,1.34,2.68,2.87,2.72,1.58.04,2.93-1.13,2.97-2.58Z"/>
  <path class="cls-1" d="M614.49,259.91c1.62-.04,2.86-1.26,2.77-2.74-.08-1.48-1.44-2.53-3.09-2.41-1.5.11-2.65,1.22-2.66,2.55,0,1.4,1.41,2.64,2.98,2.6Z"/>
  <path class="cls-1" d="M564.3,352.25c-.04-1.47-1.38-2.57-3.02-2.49-1.49.07-2.69,1.16-2.73,2.49-.05,1.38,1.36,2.68,2.89,2.68,1.6,0,2.9-1.22,2.86-2.68Z"/>
  <path class="cls-1" d="M425.27,322.56c-.04-1.48-1.36-2.56-3.01-2.48-1.5.07-2.67,1.13-2.71,2.48-.05,1.42,1.3,2.66,2.88,2.66,1.62,0,2.89-1.19,2.85-2.66Z"/>
  <path class="cls-1" d="M574.77,349.78c-1.64-.04-2.96,1.14-2.92,2.61.04,1.36,1.25,2.44,2.76,2.47,1.64.03,2.95-1.15,2.91-2.62-.04-1.35-1.24-2.42-2.74-2.45Z"/>
  <path class="cls-1" d="M319.31,370.01c-.08-1.45-1.49-2.54-3.1-2.39-1.48.14-2.56,1.27-2.51,2.62.06,1.37,1.23,2.38,2.76,2.39,1.65,0,2.92-1.16,2.84-2.63Z"/>
  <path class="cls-1" d="M587.76,342.91c1.51.07,2.82-.92,2.96-2.25.15-1.42-1.17-2.73-2.77-2.74-1.47,0-2.72,1.08-2.78,2.42-.06,1.39,1.05,2.49,2.58,2.56Z"/>
  <path class="cls-1" d="M614.39,295.25c1.33.01,2.58-.99,2.69-2.15.1-1.19-1.28-2.53-2.64-2.55-1.42-.02-2.69,1.19-2.61,2.5.07,1.26,1.15,2.18,2.57,2.2Z"/>
  <path class="cls-1" d="M349.74,266.75c-1.39-.08-2.75,1.08-2.78,2.39-.03,1.26.97,2.29,2.35,2.41,1.43.13,2.89-.93,3.02-2.18.12-1.18-1.23-2.54-2.59-2.62Z"/>
  <path class="cls-1" d="M568.07,260.79c-1.41,0-2.66,1.15-2.66,2.46,0,1.36,1.16,2.4,2.68,2.39,1.46-.01,2.74-1.14,2.72-2.4-.01-1.22-1.38-2.44-2.74-2.44Z"/>
  <path class="cls-1" d="M623.76,263.33c.06-1.19-1.34-2.5-2.69-2.52-1.4-.02-2.69,1.18-2.67,2.48.02,1.25,1.07,2.25,2.46,2.32,1.43.08,2.85-1.03,2.9-2.28Z"/>
  <path class="cls-1" d="M581.34,348.63c1.41,0,2.5-1,2.48-2.27-.02-1.26-1.15-2.25-2.55-2.23-1.42.02-2.49,1.01-2.46,2.29.02,1.28,1.1,2.22,2.53,2.21Z"/>
  <path class="cls-1" d="M597.07,322.53c-.07-1.23-1.2-2.18-2.57-2.16-1.39.02-2.44.97-2.46,2.24-.02,1.39,1.16,2.38,2.71,2.28,1.4-.09,2.38-1.09,2.31-2.35Z"/>
  <path class="cls-1" d="M544.11,275.17c.03-1.23-1.04-2.25-2.41-2.31-1.4-.06-2.52.82-2.62,2.07-.11,1.39.99,2.45,2.54,2.44,1.41-.01,2.47-.95,2.49-2.2Z"/>
  <path class="cls-1" d="M309.93,302.61c-1.41-.03-2.51.9-2.54,2.15-.03,1.24,1.03,2.25,2.41,2.29,1.4.04,2.5-.9,2.54-2.16.04-1.28-.99-2.25-2.41-2.28Z"/>
  <path class="cls-1" d="M581.42,265.39c1.17-.06,2.2-1.07,2.19-2.16-.01-1.15-.99-2.03-2.27-2.03-1.36,0-2.54,1.11-2.39,2.26.13,1.04,1.35,1.99,2.48,1.94Z"/>
  <path class="cls-1" d="M537.29,281.05c0-1.16-1.01-2.06-2.3-2.07-1.24,0-2.38.92-2.44,1.99-.07,1.16,1.23,2.32,2.52,2.26,1.2-.05,2.23-1.07,2.23-2.19Z"/>
  <path class="cls-1" d="M263.62,368.04c-1.35-.04-2.57,1.01-2.53,2.16.04,1.01,1.18,2.05,2.31,2.11,1.29.07,2.48-.99,2.47-2.21-.01-1.15-.97-2.02-2.25-2.06Z"/>
  <path class="cls-1" d="M272.5,364.12c-.04-1.14-1.02-2.01-2.3-2.03-1.37-.02-2.55,1.04-2.48,2.21.07,1.02,1.22,2.04,2.35,2.08,1.3.05,2.46-1.04,2.42-2.26Z"/>
  <path class="cls-1" d="M298.88,316.77c.05-1.18-.87-2.06-2.18-2.09-1.24-.03-2.35.87-2.4,1.95-.04,1.01,1.1,2.11,2.23,2.15,1.16.04,2.29-.93,2.34-2.01Z"/>
  <path class="cls-1" d="M303.28,312.66c1.16-.01,2.1-.83,2.13-1.85.03-1.15-1.04-2.06-2.32-1.97-1.14.08-1.99.95-1.95,2,.04,1.06.96,1.84,2.15,1.82Z"/>
  <path class="cls-1" d="M358.33,262.97c-.17-.93-.85-1.58-2.12-1.63-1.26-.04-2.2.95-2.06,2.13.12,1.07,1.04,1.74,2.26,1.64,1.19-.09,2-.92,1.93-2.14Z"/>
  <path class="cls-1" d="M389.96,243.58c-1.71-.06-2.62.74-2.65,1.8-.03,1.07.8,1.86,1.99,1.87,1.17.01,2.33-.82,2.06-1.76-.23-.79-1.04-1.44-1.39-1.9Z"/>
  <path class="cls-1" d="M378.91,245.44c-1.32-.83-2.08-1.64-2.95-1.76-1.03-.14-1.77.66-1.82,1.7-.05,1.08.93,2.02,2.07,1.74.8-.2,1.46-.88,2.7-1.69Z"/>
  <path class="cls-1" d="M285.46,339.96c-.52-.34-1.24-1.09-2.12-1.31-1.01-.25-2.01.87-1.92,1.89.09,1.01.74,1.6,1.87,1.67,1.14.07,2.15-.77,2.16-2.25Z"/>
  <path class="cls-1" d="M528.25,289.37c.96-.98,1.76-1.5,2.06-2.2.36-.81-.86-1.92-1.9-1.97-1.09-.05-2.22.89-1.94,1.87.2.7.95,1.27,1.77,2.3Z"/>
  <path class="cls-1" d="M502.28,296.98c-1.62.1-2.56,1.11-2.4,2.09.16,1,.83,1.57,1.99,1.58,1.16.01,2.34-.93,1.99-1.83-.3-.78-1.17-1.38-1.58-1.84Z"/>
  <path class="cls-1" d="M365.48,257.18c-1.2-.73-1.88-1.39-2.69-1.56-1.02-.21-2.01.96-1.82,1.94.2,1.01.99,1.65,2.06,1.37.77-.2,1.36-.94,2.44-1.75Z"/>
  <path class="cls-1" d="M369.95,253.08c.36-.43,1.17-1.01,1.31-1.69.19-.97-.63-1.66-1.76-1.67-1.11,0-1.84.56-1.86,1.62-.02,1.05.64,1.59,2.32,1.74Z"/>
  <path class="cls-1" d="M595.05,265c.37-.42,1.15-.97,1.41-1.67.31-.85-1.02-1.97-2.03-1.82-1.07.15-1.79.73-1.76,1.78.04,1.04.72,1.58,2.38,1.71Z"/>
  <path class="cls-1" d="M451.52,322.69c-1.12-.8-1.74-1.5-2.52-1.72-1.01-.29-2.07.77-1.96,1.77.1,1.02.8,1.72,1.9,1.51.78-.15,1.43-.83,2.58-1.56Z"/>
  <path class="cls-1" d="M265.26,381.46c-.37-.23-.96-.85-1.64-.95-1.13-.16-2.03.51-1.8,1.55.13.59.94,1.28,1.61,1.49.96.3,1.84-.6,1.83-2.09Z"/>
  <path class="cls-1" d="M415.97,318.32c1.05-.17,1.64-.76,1.57-1.79-.06-.91-.69-1.41-1.69-1.4-1.13,0-1.85.54-1.83,1.6.02,1.04.74,1.54,1.95,1.59Z"/>
  <path class="cls-1" d="M409.28,265.46c.71-1.11,1.39-1.71,1.39-2.32,0-.44-.83-1.14-1.41-1.26-.99-.2-1.81.47-1.69,1.34.09.62.86,1.17,1.71,2.23Z"/>
  <path class="cls-1" d="M417.56,269.46c-.4-1.27-.99-1.92-1.99-1.62-.59.17-1.48,1.06-1.36,1.31.28.61,1.02,1.37,1.66,1.45.53.06,1.2-.77,1.7-1.13Z"/>
  <path class="cls-1" d="M422.66,277.29c.63-1.14,1.25-1.76,1.21-2.35-.03-.43-.89-1.07-1.46-1.15-.98-.14-1.74.55-1.55,1.4.13.6.9,1.09,1.8,2.1Z"/>
  <path class="cls-1" d="M455.61,302.67c-.85,1.08-1.71,1.7-1.61,2.17.12.55.99,1.15,1.67,1.35.29.08,1.3-.79,1.32-1.24.02-.56-.65-1.15-1.37-2.27Z"/>
  <path class="cls-1" d="M276.43,356.77c-.33.36-1.26.93-1.2,1.4.07.57.89,1.23,1.56,1.5.27.11,1.27-.67,1.47-1.19.32-.86-.28-1.47-1.83-1.71Z"/>
  <path class="cls-1" d="M396.08,253.25c.62-.85,1.33-1.39,1.28-1.87-.05-.49-.8-1.19-1.35-1.29-1.04-.2-1.72.52-1.51,1.42.12.53.84.96,1.59,1.74Z"/>
  <path class="cls-1" d="M448.99,300.7c.64-.83,1.28-1.29,1.35-1.81.11-.9-.63-1.52-1.61-1.26-.53.14-1.17.88-1.18,1.36,0,.46.74.93,1.45,1.72Z"/>
  <path class="cls-1" d="M289.93,380.15c-.63.88-1.33,1.44-1.25,1.89.08.47.92,1.17,1.4,1.16.48-.02,1.26-.78,1.29-1.25.03-.46-.73-.96-1.45-1.8Z"/>
  <path class="cls-1" d="M464.22,310.89c-1.02-.66-1.53-1.23-2.11-1.29-.36-.04-1.12.65-1.16,1.05-.04.4.59,1.18.96,1.19.59.02,1.19-.45,2.32-.95Z"/>
  <path class="cls-1" d="M404.62,257.22c-1.05-.56-1.7-1.17-2.16-1.08-.5.1-1,.84-1.13,1.38-.06.23.84.94,1.25.91.56-.05,1.07-.59,2.05-1.21Z"/>
  <path class="cls-1" d="M521.73,294.58c.61-.77,1.25-1.23,1.29-1.73.03-.35-.75-.76-1.17-1.15-.47.42-1.15.79-1.33,1.3-.11.29.59.81,1.21,1.58Z"/>
  <path class="cls-1" d="M614.42,279.23c-.64.9-1.23,1.38-1.26,1.89-.02.36.81,1.13,1.08,1.07.59-.14,1.39-.63,1.48-1.08.08-.43-.63-.98-1.3-1.88Z"/>
  <path class="cls-1" d="M429,282.52c.59-.59,1.38-1.13,1.29-1.34-.23-.51-.88-.88-1.36-1.3-.37.41-1.01.8-1.04,1.23-.03.38.6.8,1.12,1.41Z"/>
  <path class="cls-1" d="M548.15,338.9c-.51.64-1.13,1.08-1.12,1.5.01.4.69.78,1.08,1.17.48-.42,1.16-.79,1.35-1.29.09-.26-.71-.78-1.31-1.38Z"/>
  <path class="cls-1" d="M442.32,291.7c-.5.51-1.14.95-1.06,1.12.2.43.72.74,1.12,1.1.31-.33.85-.64.87-.99.02-.33-.49-.68-.93-1.23Z"/>
  <path class="cls-1" d="M600.96,306.19c.6-.52,1.28-.88,1.23-1.11-.1-.45-.53-.94-.98-1.2-.15-.09-1.09.45-1.09.71,0,.45.44.9.84,1.6Z"/>
  <path class="cls-1" d="M390.54,304.67c-.58-.3-1.02-.68-1.21-.6-.38.17-.73.55-.87.91-.05.14.62.71.81.65.4-.11.7-.51,1.26-.96Z"/>
  <path class="cls-1" d="M609,263.09c-.59-.3-1.02-.67-1.21-.59-.38.17-.73.55-.86.91-.05.14.62.7.82.65.4-.11.69-.51,1.25-.97Z"/>
  <path class="cls-1" d="M409.13,311.91c.41-.47.89-.79.83-1-.09-.35-.52-.64-.81-.95-.3.23-.87.48-.84.67.06.38.44.72.82,1.28Z"/>
  <path class="cls-1" d="M608.96,298.87c-.54-.34-.88-.72-1.16-.68-.33.04-.59.45-.88.69.29.26.55.69.87.73.28.03.63-.38,1.18-.74Z"/>
  <path class="cls-1" d="M435.85,285.88c-.53.51-.99.79-1.12,1.15-.06.18.58.81.74.76.42-.12.86-.44,1.06-.79.1-.17-.33-.58-.67-1.13Z"/>
  <path class="cls-1" d="M277.79,382.01c-.45-.29-.72-.57-1.04-.63-.16-.03-.64.42-.6.49.16.28.42.57.72.71.12.06.46-.27.92-.57Z"/>
  <path class="cls-1" d="M595.42,311.23c-.2-.5-.28-.95-.41-.97-.34-.04-.74.07-1.05.22-.07.03.03.65.19.71.31.12.71.03,1.27.03Z"/>
  <path class="cls-1" d="M569.52,346.3c-.7-.31-1.02-.57-1.25-.52-.33.07-.6.37-.9.57.18.21.37.59.55.59.34,0,.66-.24,1.6-.63Z"/>
  <path class="cls-1" d="M561.5,270.06c.34-.42.72-.73.66-.84-.16-.28-.49-.52-.81-.66-.07-.03-.59.4-.55.55.07.29.38.54.71.95Z"/>
  <path class="cls-1" d="M435.71,321.55c-.39.56-.77.88-.72,1.12.05.24.52.47.86.56.12.03.56-.37.54-.54-.04-.3-.32-.57-.68-1.13Z"/>
  <path class="cls-1" d="M455.61,315.96c-.27.29-.57.46-.57.64,0,.19.27.52.43.53.22,0,.59-.22.62-.39.04-.18-.24-.42-.48-.77Z"/>
  <path class="cls-1" d="M297,376.25c-.09-.15-.14-.36-.29-.44-.08-.05-.42.09-.44.18-.04.13.11.3.18.46.18-.07.36-.13.54-.2Z"/>
  <path class="cls-1" d="M495.03,316.38c-.07.16-.14.33-.2.49.17.06.37.18.52.15.1-.03.24-.33.19-.4-.09-.12-.32-.17-.5-.24Z"/>
  <path class="cls-1" d="M336.79,293.09c-.09-.16-.14-.37-.28-.45-.1-.06-.32.05-.49.08.09.2.17.41.26.61.17-.08.34-.16.51-.23Z"/>
  <path class="cls-1" d="M587.78,328.95c.19-.06.37-.12.56-.18l-.22-.49c-.21.09-.42.18-.63.27.1.13.19.27.29.4Z"/>
  <path class="cls-1" d="M488.94,310.68c-.17-.08-.34-.16-.51-.24-.07.16-.15.33-.22.49.17.06.36.19.51.16.11-.02.15-.26.22-.41Z"/>
  <path class="cls-1" d="M290,334.14c-.13.1-.36.18-.38.3-.02.14.12.31.2.46.2-.14.4-.27.6-.41-.14-.12-.28-.23-.42-.35Z"/>
  <path class="cls-1" d="M613.99,269.25c.18.1.31.2.47.25.04.01.21-.13.2-.15-.08-.14-.19-.27-.28-.4-.12.1-.25.19-.38.3Z"/>
  <path class="cls-1" d="M901.99,122.84c-.46.99-1.26,1.97-1.31,2.98-.08,1.68-1.02,1.9-2.52,1.89-.91,0-1.52-.12-1.5-1.08,0-.2,0-.4-.06-.59-.68-2.25-2.51-3.41-4.85-3.08-2.14.3-3.74,1.88-3.42,4.04.26,1.74-.2,1.73-1.78,1.4-2.69-.56-5.87,1.79-5.41,4.59.17,1.04-.13,1.29-1.36,1.34-3.49.13-4.54,1-5.25,4.17-.19.83-.39,1.24-1.41,1.16-.91-.07-1.79,0-1.73-1.21.03-.47-.14-.98-.33-1.44-.41-.95-.18-1.22.99-1.08,1.86.22,3.25-.57,3.93-2.1.57-1.28.33-2.54-.81-3.56-1.04-.93-2.33-1.14-3.67-.78-1.65.45-2.42,1.57-2.69,3.07-.1.53,1.04,1.77-.85,1.51-2.73-.38-3.25-.71-3.01-2.14.07-.41.65-.81,1.08-1.11.22-.16.65-.05.97-.13,2.1-.53,3.49-1.99,3.62-3.79.14-1.88-1.2-3.52-3.45-4.2-.71-.21-1.9-.22-2.05-.6-.41-.98-.41-2.11-.46-3.18,0-.2.5-.52.83-.6.52-.13,1.11-.03,1.63-.17,1.77-.47,2.92-2.02,2.76-3.62-.17-1.73-1.78-3.14-3.71-3.23-1.81-.09-3.46.97-3.98,2.57-.03.09-.03.2-.05.29-.15.64-.26,1.8-.47,1.82-1.07.08-2.3.08-3.21-.35-.51-.24-.58-1.36-.66-2.1-.02-.17.71-.5,1.14-.6.63-.15,1.33-.07,1.94-.26,1.8-.54,3.03-2.2,2.99-3.9-.04-1.74-1.23-3.48-3.19-3.68-2.26-.23-2.83-1.17-2.61-2.94.03-.27-.16-.57-.28-.84-.48-1.09.13-1.12,1.1-.99.52.07,1.11-.02,1.61-.18,1.79-.56,2.76-2.09,2.44-3.75-.28-1.45-1.49-2.47-3.13-2.65-1.85-.19-3.54.76-4.04,2.4-.17.55.01,1.18-.1,1.75-.05.24-.48.6-.71.59-.65-.05-1.27-.35-1.92-.39-.88-.06-1.46-.21-1.46-1.17,0-.89.11-1.53,1.35-1.59,1.91-.1,3.48-.89,4.11-2.54.41-1.07-.13-2.67.57-3.34.7-.67,2.48-.32,3.68-.7,1.44-.45,2.36-1.55,2.49-2.92.14-1.46.91-1.57,2.35-1.69,1.7-.13,2.72-.45,2.92,1.69.17,1.83,2.34,2.9,4.14,2.6,1.68-.28,2.95-1.56,3.07-3.09.14-1.82-1.02-3.08-3.22-3.51-.8-.16-2.19.43-1.69-1.25.33-1.1.04-2.45,2.09-2.36.83.04,1.22.21,1.25.96.01.39.03.8.17,1.17.7,1.9,2.68,3.04,4.86,2.84,2.02-.18,3.81-1.53,3.91-3.44.08-1.58,0-2.41,2.37-2.13,2.32.27,4.28-1.34,4.59-3.48.22-1.55.82-2.04,2.44-1.94.52.03,1.07-.2,1.61-.31.69-.14,1.03,0,.92.74-.07.47-.03,1,.11,1.45.5,1.55,2.06,2.5,3.74,2.34,1.7-.16,3.05-1.4,3.18-2.94.13-1.57-.91-2.9-2.62-3.35-.11-.03-.22-.03-.33-.05-.71-.13-2.04-.28-2.03-.4.03-.97.16-1.99.57-2.88.16-.34,1.14-.51,1.72-.49.33.02.69.56.93.93.15.24.07.59.16.87.69,2.32,2.57,3.6,5.03,3.46,2.42-.14,4.06-1.62,4.48-4.04.1-.56.14-1.54.39-1.59.94-.19,1.96-.14,2.93,0,.19.03.33.82.35,1.27.09,1.99,1.08,3.42,3.19,4.09,2.92.93,5.69-.66,6.34-3.57.42-1.84.64-1.95,2.62-1.85.86.04,1.02.33,1.14,1.05.57,3.45,1.02,3.94,4.78,4.59,1.26.22,1.25.76,1.28,1.62.03,1.04-.19,1.49-1.56,1.69-4.08.57-5.48,2.86-4.18,6.4.1.28.32.54.36.82.03.28-.11.57-.17.85v-.03c-1.25-1.46-2.84-1.32-4.38-.54-1.34.68-2.01,1.86-1.74,3.26.29,1.5,1.37,2.43,3.01,2.83.7.17,1.98.29,2,.5.1,1.15-.06,2.33-.27,3.48-.03.17-.75.26-1.16.36-3.89.97-4.93,2.27-4.14,5.77.34,1.53-.31,1.08-1.29.94-2.66-.38-4.55.73-4.95,2.76-.44,2.23.99,3.81,3.81,4.22.66.1,1.82-.31,1.5.89-.25.9.5,2.36-1.47,2.52-3.55.27-5.32,2.1-5.44,5.23-.04.94-.57,1.11-1.45,1.2-2.98.28-4.47,1.93-4.74,4.49-.09.81-.26,1.18-1.3,1.28-1.39.14-2.74.57-4.1.88.22-.75.61-1.51.62-2.26.04-1.73-1.82-3.18-3.69-3.02-1.82.15-3.19,1.6-3.08,3.26.12,1.79,1.81,3.07,3.85,2.77.84-.13,1.62-.56,2.42-.86ZM929.19,73.17c-.04-1.83-1.53-3.16-3.57-3.19-2.09-.03-3.87,1.54-3.8,3.35.06,1.63,1.84,3.21,3.66,3.26,2.04.05,3.76-1.53,3.72-3.42ZM915.47,108.93c.04-1.57-1.33-2.85-3.08-2.88-1.73-.03-3.19,1.22-3.22,2.76-.03,1.55,1.36,2.85,3.08,2.89,1.73.04,3.18-1.2,3.22-2.76ZM915.43,73.39c.09-1.58-1.21-2.86-2.96-2.93-1.73-.07-3.21,1.12-3.29,2.65-.08,1.51,1.29,2.87,2.97,2.96,1.69.09,3.2-1.14,3.28-2.67ZM908.44,114.77c-.02-1.22-1.48-2.48-2.83-2.43-1.41.05-2.66,1.32-2.57,2.62.08,1.24,1.21,2.2,2.61,2.22,1.47.02,2.81-1.14,2.79-2.41ZM872.75,122.96c1.4-.07,2.38-1.07,2.3-2.35-.08-1.26-1.2-2.16-2.62-2.08-1.39.07-2.41,1.11-2.32,2.35.09,1.22,1.26,2.15,2.63,2.08ZM921.13,90.92c-.09-1.02-.73-1.72-2.03-1.82-1.26-.1-2.45.86-2.38,1.96.08,1.13.8,1.84,2.07,1.97,1.23.13,2.35-.86,2.35-2.11ZM866.13,93.04c1.23-.08,2.16-1.09,2.03-2.2-.13-1.14-1.22-1.91-2.49-1.73-1.26.18-1.86.95-1.91,2.01-.05,1.05,1.2,2,2.37,1.92ZM892.5,81.05c1.14-.02,2.08-.84,2.09-1.84.01-1.11-1.09-2.06-2.32-1.93-1.28.14-1.89.88-1.89,1.99,0,1.05.94,1.8,2.12,1.78ZM868.04,102.42c-.52-.33-1.25-1.07-2.13-1.29-1.01-.24-2,.88-1.9,1.91.1,1.02.75,1.59,1.89,1.65,1.17.06,2.15-.76,2.14-2.27ZM881,127.13c-.1-1.56-.83-2.2-1.91-1.96-.65.14-1.44.86-1.59,1.44-.25.98.56,1.77,1.67,1.61.75-.1,1.39-.81,1.83-1.1ZM885.88,86.93c.66-.87,1.38-1.41,1.31-1.84-.07-.47-.88-.86-1.36-1.28-.46.44-1.23.84-1.3,1.32-.06.43.67.95,1.34,1.8ZM887.26,120.82c-.57-.45-.93-.96-1.31-.96-.4,0-.81.45-1.22.71.37.39.68.91,1.15,1.12.2.09.75-.45,1.38-.86ZM874.13,108.93c-.69-.46-1.12-.93-1.62-1.02-.28-.05-1.05.7-.97.85.21.44.67.91,1.15,1.06.27.08.77-.46,1.44-.9ZM913.15,96.89c-.4-.21-.67-.47-.88-.43-.2.03-.46.37-.45.57,0,.15.39.4.61.4.2,0,.4-.28.72-.53ZM879.08,90.51c-.12.25-.26.47-.31.71-.01.05.43.27.49.22.2-.15.31-.38.46-.58-.18-.1-.36-.19-.64-.35ZM919.25,79.1c-.17-.08-.34-.16-.51-.24-.07.16-.15.33-.22.49.17.06.36.19.51.16.11-.02.15-.26.22-.41Z"/>
  <path class="cls-1" d="M968.79,82.02c-4.19-2.33-7.1-1.35-8.34,2.86-.22.77-.36,1.23-1.4,1.21-1.11-.02-1.57-.37-1.6-1.37-.02-.57-.39-1.13-.45-1.71-.02-.19.4-.57.66-.61.53-.08,1.11.11,1.62.02,1.88-.35,3.05-1.74,2.97-3.41-.09-1.71-1.45-2.95-3.36-3.05-1.87-.1-3.43.94-3.84,2.62-.11.46.05.98.01,1.46-.02.23-.24.65-.32.64-1.08-.14-2.2-.23-3.19-.59-.39-.14-.51-.93-.71-1.43-.44-1.1-.86-2.21-1.29-3.31.93.25,1.86.69,2.8.7,1.73.01,3.03-1.45,2.91-3-.11-1.43-1.4-2.6-3-2.7-1.72-.11-3.37,1.04-3.36,2.6,0,.84.49,1.68.76,2.51-1.34-.39-2.66-.95-4.04-1.11-1.19-.14-1.34-.66-1.49-1.52-.31-1.72-.37-1.71,1.62-2,2.36-.35,3.9-1.95,3.68-3.84-.22-1.92-2-3.45-4.37-3.21-1.74.18-1.81-.24-1.44-1.45.14-.46.16-.99.08-1.47-.18-1.07.35-1.27,1.45-1.38,3.75-.37,4.79-1.51,4.66-5.07-.03-.84.16-.93,1.03-.95,4.52-.07,5.55-1.01,5.52-5.09,0-.96.45-.83,1.16-.84,4.51-.04,5.71-1.24,5.35-5.44-.07-.87.22-1.02,1.07-.88.64.1,1.32.21,1.95.12,2.11-.27,3.55-1.82,3.55-3.7,0-1.89-1.43-3.42-3.52-3.72-.43-.06-.89-.06-1.32-.01-.94.12-1.53.02-1.21-1.05.22-.74.08-1.99.51-2.16,1.16-.45,2.54-.47,3.84-.59.11-.01.35.42.39.65.09.68-.03,1.41.19,2.04.55,1.56,2.44,2.53,4.17,2.26,1.79-.28,3.11-1.71,3.11-3.36,0-1.7-1.22-3.02-3.15-3.28-.74-.1-1.51-.03-2.27-.04.12-.85.34-1.69.34-2.54,0-1.02.48-1.25,1.56-1.41,3.52-.52,4.78-1.7,4.93-4.9.06-1.32.63-1.31,1.74-1.45,3.31-.42,4.88-2.16,4.38-5.13-.25-1.48.17-1.29,1.43-1.2,2.72.2,4.61-1.29,4.8-3.47.2-2.26-1.26-3.76-4.06-4.15-.22-.03-.44-.01-.66,0-.86.02-1.05-.29-.96-1.08.25-2.25.2-2.21,2.3-2.38,1.07-.09,1.42,0,1.55,1.15.36,3.21,1.96,4.24,5.58,3.74,1.41-.19,1.39.14,1.18,1.2-.59,2.9.61,4.69,3.87,5.01,2.01.2,1.51,1.13,1.66,2.16.19,1.38-.2,1.83-1.87,1.97-2.63.22-4.06,1.83-4.06,3.91,0,2.19,1.57,3.64,4.37,4.02.78.11,1.95-.31,1.69,1.09-.19,1.04.41,2.24-1.85,2.38-3.54.22-5.23,2.48-4.57,5.54.22,1.05.55,1.56-1.19,1.45-2.72-.17-4.23,1.04-4.42,3.01-.2,2.09,1.26,3.6,4.02,3.72,1.45.06,1.62.42,1.3,1.54-.19.65-.09,1.38-.05,2.06.04.76-.32,1.07-1.15,1.06-.44,0-.89.01-1.31.11-1.93.44-3.27,1.93-3.32,3.63-.05,1.56,1.06,3.05,2.82,3.67.6.21,1.29.24,1.92.4.27.07.7.29.71.45.03.88.1,1.81-.17,2.64-.11.34-1.01.53-1.59.69-2.69.77-3.92,2.07-3.89,4.17.03,2.14,1.27,3.4,4.03,3.99.74.16,1.64,0,1.48,1.09-.14.91.28,2.02-1.43,2.22-.94.11-1.83.61-2.74.93.1-.88.33-1.76.28-2.63-.11-1.94-1.86-3.21-4.02-3.06-1.97.14-3.46,1.58-3.47,3.33,0,1.83,1.7,3.44,3.76,3.38.96-.03,1.91-.37,2.87-.56-.56,1.5-.65,3.56-1.82,4.36-1.24.85-3.47.6-4.92,1.73.31-.83.76-1.64.91-2.49.37-2.05-1.25-3.72-3.51-3.77-2.09-.05-3.86,1.43-3.89,3.26-.04,1.89,1.94,3.59,4.08,3.41.85-.07,1.68-.33,2.52-.51-.32.71-1,1.46-.9,2.13.34,2.38-1.08,2.8-3.23,2.76-.61-.01-1.23.28-1.84.43.17-.46.37-.92.5-1.39.43-1.63-.29-2.89-1.7-3.84-1.43-.96-3.12-.92-4.57.03-1.49.97-1.98,2.3-1.57,3.87.17.66.5,1.29.76,1.93ZM991.67,28.82c2.03.04,3.56-1.28,3.57-3.07.01-1.76-1.57-3.16-3.53-3.14-1.88.02-3.28,1.24-3.38,2.94-.11,1.84,1.3,3.22,3.33,3.26ZM991.68,16.54c1.57.05,2.95-1.15,2.99-2.61.05-1.5-1.17-2.65-2.84-2.68-1.64-.03-3.01,1.1-3.05,2.54-.04,1.35,1.39,2.7,2.9,2.75ZM981.35,25.65c-.04-1.46-1.36-2.54-2.99-2.46-1.63.08-2.8,1.29-2.67,2.76.12,1.34,1.34,2.34,2.83,2.33,1.62,0,2.87-1.17,2.83-2.63ZM985.19,57.7c1.39-.02,2.54-1.03,2.56-2.24.02-1.16-1.18-2.3-2.48-2.36-1.47-.07-2.74,1.08-2.67,2.43.07,1.27,1.17,2.19,2.6,2.17ZM954.24,61.43c.04-1.14-.93-2.05-2.21-2.04-1.22,0-2.35.99-2.23,2.05.12,1.09.85,1.78,2.08,1.91,1.2.13,2.31-.82,2.36-1.92ZM985.03,41.57c-1.25.06-2.29,1.07-2.12,2.16.17,1.11.97,1.75,2.18,1.85,1.19.1,2.27-.95,2.26-2.05-.01-1.17-1.02-2.01-2.32-1.95ZM959.31,57.38c.39-.49,1.23-1.13,1.45-1.91.3-1.07-.91-2.02-2.18-1.98-1.25.04-2.21,1.03-2.04,2.16.17,1.14.97,1.67,2.77,1.73ZM985.81,17.97c-1.69-.09-2.66.76-2.65,1.82,0,1.04.63,1.65,1.76,1.79,1.13.14,2.46-.72,2.23-1.64-.2-.81-1-1.49-1.34-1.97ZM967.67,49.62c-1.04-.75-1.56-1.39-2.22-1.55-.93-.23-1.66.31-1.87,1.19-.2.83.72,1.91,1.64,1.75.7-.13,1.3-.71,2.46-1.39ZM987.21,31.68c-.85-.6-1.32-1.19-1.92-1.31-1.01-.21-1.84.45-1.66,1.29.11.55,1.01,1.19,1.68,1.35.39.09,1.04-.69,1.9-1.32ZM966.95,73.33c-.63-.53-1.17-1.25-1.45-1.18-.55.14-.97.73-1.44,1.14.41.35.8.96,1.23.98.46.02.95-.51,1.66-.94ZM971.69,41.74c-.43.9-.81,1.33-.77,1.72.04.36.55.67.85,1.01.36-.26.93-.48,1.01-.81.08-.3-.37-.71-1.09-1.93ZM971.75,67.93c.33-.28.58-.42.69-.62.05-.09-.18-.44-.27-.44-.25.01-.63.09-.71.25-.08.15.14.43.28.81ZM979.25,61.24c-.42-.18-.67-.28-.92-.38-.08.24-.19.47-.2.72,0,.06.35.22.47.18.21-.08.37-.27.66-.51ZM978.83,37.53c-.17-.08-.34-.16-.52-.23l-.21.49c.17.06.37.19.51.16.11-.02.15-.27.22-.41Z"/>
</svg>